<svg
  xmlns="http://www.w3.org/2000/svg"
  height="11.90682227cm"
  viewBox="0 0 500.02401766636706 450.0216290902887"
  width="13.22980213cm"
><defs /><g
    fill="none"
    id=""
    stroke="var(--logo-stroke, currentColor)"
    style="display:inline"
  ><polygon
      points="34.02,111.87 34.77,111.12 34.77,110.74 35.15,110.36 35.15,109.98 35.53,109.61 35.91,109.61 35.91,109.23 36.28,108.85 36.28,108.47 36.66,108.09 37.04,108.09 37.04,107.72 37.42,107.34 37.42,106.96 37.8,106.58 38.17,106.58 38.17,106.2 38.93,105.45 38.93,105.07 39.31,105.07 39.31,104.69 40.82,103.18 40.82,102.8 41.2,102.43 41.57,102.43 41.57,102.05 41.95,101.67 42.33,101.67 42.33,101.29 43.84,99.78 43.84,99.4 44.22,99.4 45.73,97.89 45.73,97.51 46.11,97.51 48.38,95.24 48.76,95.24 48.76,94.87 49.13,94.49 49.51,94.49 49.89,94.11 49.89,93.73 50.27,93.73 51.78,92.22 52.16,92.22 52.16,91.84 52.54,91.84 53.29,91.09 53.67,91.09 53.67,90.71 54.05,90.33 54.43,90.33 55.56,89.2 55.94,89.2 57.07,88.06 57.45,88.06 57.83,87.69 58.2,87.69 58.2,87.31 58.58,86.93 58.96,86.93 59.34,86.55 59.72,86.55 59.72,86.17 60.09,86.17 60.47,85.8 60.85,85.8 61.98,84.66 62.36,84.66 62.74,84.28 63.12,84.28 63.5,83.91 63.87,83.91 63.87,83.53 64.25,83.53 64.63,83.15 65.01,83.15 65.76,82.39 66.14,82.39 66.14,82.02 66.52,82.02 66.9,81.64 67.28,81.64 67.65,81.26 68.03,81.26 68.79,80.5 69.17,80.5 69.54,80.13 70.3,80.13 70.68,79.75 71.06,79.75 71.81,78.99 72.19,78.99 72.57,78.61 72.94,78.61 73.32,78.24 73.7,78.24 74.08,77.86 74.83,77.86 75.59,77.1 75.97,77.1 76.35,76.72 77.1,76.72 77.48,76.35 77.86,76.35 78.24,75.97 78.99,75.97 79.37,75.59 79.75,75.59 80.13,75.21 80.5,75.21 80.88,74.83 81.26,74.83 81.64,74.46 82.39,74.46 82.77,74.08 83.53,74.08 83.91,73.7 84.66,73.7 85.04,73.32 85.8,73.32 86.17,72.94 86.55,72.94 86.93,72.57 87.69,72.57 88.06,72.19 88.82,72.19 89.2,71.81 89.95,71.81 90.33,71.43 91.09,71.43 91.46,71.06 92.6,71.06 92.98,70.68 94.11,70.68 94.49,70.3 94.87,70.3 95.24,69.92 96.38,69.92 96.76,69.54 97.89,69.54 98.27,69.17 99.78,69.17 100.16,68.79 101.29,68.79 101.67,68.41 103.18,68.41 103.56,68.03 105.45,68.03 105.83,67.65 107.34,67.65 107.72,67.28 109.61,67.28 109.98,66.9 112.63,66.9 113.01,66.52 116.41,66.52 116.79,66.14 122.46,66.14 122.83,65.76 132.66,65.76 133.04,66.14 139.09,66.14 139.46,66.52 142.11,66.52 142.49,66.9 147.4,66.9 147.78,67.28 148.54,67.65 148.91,68.03 151.18,68.03 151.56,68.41 152.69,68.41 153.07,68.79 153.83,68.79 154.2,69.17 154.96,69.17 155.34,69.54 156.09,69.54 156.47,69.92 157.98,69.92 158.74,70.3 159.12,70.3 159.5,70.68 160.25,70.68 160.25,71.06 161.39,71.06 161.76,71.43 162.52,71.43 162.52,71.81 163.28,71.81 163.65,72.19 164.41,72.19 164.79,72.57 165.54,72.57 165.92,72.94 166.3,72.94 166.68,73.32 167.43,73.32 167.81,73.7 168.57,73.7 168.94,74.08 169.7,74.08 170.08,74.46 170.83,74.46 171.21,74.83 171.59,74.83 171.97,75.21 172.72,75.21 173.1,75.59 173.86,75.59 174.24,75.97 174.99,75.97 175.37,76.35 175.75,76.35 176.13,76.72 176.5,76.72 176.88,77.1 177.64,77.1 178.02,77.48 178.77,77.48 179.15,77.86 179.53,77.86 179.91,78.24 180.66,78.24 181.04,78.61 181.8,78.61 181.8,78.99 182.17,78.99 182.55,79.37 182.93,79.37 183.31,79.75 184.06,79.75 184.44,80.13 184.82,80.13 185.2,80.5 185.57,80.5 185.95,80.88 186.71,80.88 186.71,81.26 187.09,81.26 187.46,81.64 187.84,81.64 188.22,82.02 188.6,82.02 188.98,82.39 189.35,82.39 189.73,82.77 190.11,82.77 190.87,83.53 191.24,83.53 191.62,83.91 192,83.91 192.38,84.28 192.76,84.28 193.51,85.04 193.89,85.04 194.65,85.8 195.02,85.8 195.78,86.55 196.16,86.55 196.91,87.31 197.29,87.31 197.29,87.69 197.67,87.69 198.43,88.44 198.8,88.44 199.94,89.57 200.32,89.57 201.45,90.71 201.83,90.71 202.96,91.84 203.34,91.84 203.72,92.22 203.72,92.6 204.09,92.6 204.47,92.98 204.85,92.98 204.85,93.35 205.23,93.73 205.61,93.73 205.98,94.11 205.98,94.49 206.36,94.49 207.12,95.24 207.5,95.24 207.5,95.62 207.87,96 208.25,96 209.39,97.13 209.76,97.13 209.76,97.51 210.14,97.89 210.52,97.89 212.03,99.4 212.41,99.4 212.41,99.78 212.79,100.16 213.17,100.16 214.3,101.29 214.68,101.29 214.68,101.67 215.06,102.05 215.43,102.05 216.57,103.18 216.94,103.18 217.32,103.56 217.32,103.94 217.7,103.94 218.46,104.69 218.83,104.69 218.83,105.07 219.59,105.45 219.97,105.45 220.35,105.83 220.35,106.2 221.1,106.96 221.1,107.34 221.48,107.72 221.48,108.85 221.1,109.23 221.1,109.61 220.72,109.98 220.72,110.36 219.21,111.87 219.21,112.25 218.83,112.63 218.83,113.01 218.46,113.01 218.08,113.39 218.08,113.76 217.7,114.14 217.7,114.52 217.32,114.52 217.32,114.9 216.57,115.65 216.57,116.03 216.19,116.03 216.19,116.41 215.43,117.17 215.43,117.54 215.06,117.54 215.06,117.92 214.3,118.68 214.3,119.06 213.92,119.06 213.92,119.43 213.54,119.81 213.54,120.19 213.17,120.57 212.79,120.57 212.79,120.94 212.41,121.32 212.41,121.7 212.03,122.08 211.65,122.08 211.65,122.46 211.28,122.83 211.28,123.21 210.14,124.35 210.14,124.72 209.01,125.86 209.01,126.24 207.87,127.37 207.87,127.75 206.74,128.88 206.74,129.26 205.23,130.77 205.23,131.15 204.09,132.28 204.09,132.66 202.96,133.8 202.96,134.17 201.83,135.31 201.83,135.69 201.45,136.06 201.45,136.44 201.07,136.44 200.69,136.82 200.69,137.2 200.32,137.57 200.32,137.95 199.94,137.95 199.56,138.33 199.56,138.71 199.18,139.09 199.18,139.46 198.8,139.46 198.43,139.84 198.43,140.22 198.05,140.6 198.05,140.98 197.67,140.98 197.29,141.35 197.29,141.73 196.91,142.11 196.91,142.49 196.54,142.49 196.16,142.87 196.16,143.24 195.78,143.62 195.78,144 195.4,144 195.02,144.38 195.02,144.76 194.65,145.13 194.65,145.51 194.27,145.51 193.89,145.89 193.89,146.27 193.51,146.65 193.51,147.02 192.38,148.16 192.38,148.54 191.24,149.67 191.24,150.05 190.49,150.8 190.49,151.18 189.35,152.32 189.35,152.69 188.6,153.45 188.22,153.45 187.46,154.2 187.09,154.2 186.71,154.58 186.33,154.58 185.95,154.96 185.95,154.58 185.2,153.83 185.2,153.45 184.44,152.69 184.44,152.32 183.69,151.56 183.69,151.18 183.31,150.8 183.31,150.43 182.17,149.29 182.17,148.91 181.8,148.54 181.8,148.16 181.42,147.78 181.04,147.78 181.04,147.4 180.66,147.02 180.66,146.65 180.28,146.27 179.91,146.27 179.91,145.89 179.53,145.51 179.53,145.13 179.15,144.76 178.77,144.76 178.77,144.38 177.26,142.87 177.26,142.49 176.88,142.49 176.5,142.11 176.5,141.73 176.13,141.73 175.75,141.35 175.75,140.98 175.37,140.6 174.99,140.6 174.99,140.22 174.61,139.84 174.24,139.84 174.24,139.46 173.86,139.09 173.48,139.09 173.48,138.71 173.1,138.33 172.72,138.33 171.59,137.2 171.21,137.2 171.21,136.82 170.83,136.44 170.46,136.44 169.32,135.31 168.94,135.31 168.94,134.93 168.57,134.93 167.81,134.17 167.43,134.17 167.43,133.8 167.06,133.8 166.68,133.42 166.3,133.42 165.17,132.28 164.79,132.28 164.41,131.91 164.03,131.91 163.28,131.15 162.9,131.15 162.52,130.77 162.14,130.77 161.76,130.39 161.39,130.39 161.01,130.02 160.63,130.02 159.87,129.26 159.5,129.26 159.12,128.88 158.74,128.88 158.36,128.5 157.61,128.5 157.23,128.13 156.85,128.13 156.47,127.75 156.09,127.75 155.72,127.37 154.96,127.37 154.58,126.99 154.2,126.99 153.83,126.61 153.45,126.61 153.07,126.24 152.32,126.24 151.94,125.86 151.56,125.86 151.18,125.48 150.43,125.48 150.05,125.1 149.29,125.1 148.91,124.72 148.16,124.72 147.78,124.35 147.02,124.35 146.65,123.97 146.27,123.97 145.89,123.59 144.76,123.59 144.38,123.21 143.24,123.21 142.87,122.83 141.73,122.83 141.35,122.46 140.22,122.46 139.84,122.08 138.33,122.08 137.95,121.7 136.06,121.7 135.69,121.32 132.66,121.32 132.28,120.94 125.1,120.94 124.72,121.32 121.7,121.32 121.32,121.7 119.81,121.7 119.43,122.08 115.65,122.08 115.28,122.46 114.9,122.46 114.9,122.83 114.52,123.21 113.39,123.21 113.01,123.59 111.87,123.59 111.5,123.97 110.36,123.97 109.98,124.35 108.85,124.35 108.47,124.72 107.72,124.72 107.34,125.1 106.58,125.1 106.2,125.48 105.07,125.48 104.69,125.86 103.94,125.86 103.56,126.24 103.18,126.24 102.8,126.61 102.05,126.61 101.67,126.99 100.91,126.99 100.16,127.75 99.4,127.75 99.02,128.13 98.65,128.13 98.27,128.5 97.51,128.5 96.76,129.26 96.38,129.26 96,129.64 95.62,129.64 95.24,130.02 94.87,130.02 94.49,130.39 94.11,130.39 93.73,130.77 93.35,130.77 92.98,131.15 92.6,131.15 92.6,131.53 92.22,131.53 91.46,132.28 91.09,132.28 91.09,132.66 90.71,132.66 90.33,133.04 89.95,133.04 89.2,133.8 88.82,133.8 88.44,134.17 88.44,134.55 88.06,134.55 87.69,134.93 87.31,134.93 87.31,135.31 86.93,135.69 86.55,135.69 86.17,136.06 86.17,136.44 85.8,136.44 85.42,136.82 85.04,136.82 85.04,137.2 84.66,137.57 84.28,137.57 84.28,137.95 83.91,138.33 83.53,138.33 83.53,138.71 83.15,139.09 82.77,139.09 82.77,139.46 80.5,141.73 80.5,142.11 80.13,142.11 79.75,142.49 79.75,142.87 79.37,143.24 79.37,143.62 78.99,143.62 78.61,144 78.61,144.38 78.24,144.76 78.24,145.13 77.86,145.13 77.48,145.51 77.48,145.89 77.1,146.27 77.1,146.65 76.35,147.4 76.35,147.78 75.97,148.16 75.97,148.54 75.21,149.29 75.21,149.67 74.83,149.67 74.83,150.05 74.46,150.43 74.46,150.8 74.08,151.18 74.08,151.56 73.7,151.94 73.7,152.69 73.32,153.07 73.32,153.45 72.94,153.83 72.94,154.2 72.57,154.58 72.57,154.96 72.19,155.34 72.19,155.72 71.81,156.09 71.81,156.85 71.43,157.23 71.43,157.98 70.68,158.74 70.68,159.87 70.3,160.25 70.3,161.01 69.92,161.39 69.92,162.52 69.54,162.9 69.54,164.41 69.17,164.79 69.17,167.06 68.79,167.43 68.79,177.64 69.17,178.02 69.17,180.28 69.54,180.66 69.54,182.55 69.92,182.93 69.92,184.44 70.3,184.82 70.3,185.95 70.68,186.33 70.68,187.46 71.06,187.84 71.06,188.6 71.43,188.98 71.43,189.73 71.81,190.11 71.81,190.87 72.19,191.24 72.19,192 72.57,192.38 72.57,193.13 72.94,193.51 72.94,193.89 73.32,194.27 73.32,194.65 73.7,195.02 73.7,195.78 74.08,196.16 74.08,196.54 74.46,196.54 74.46,196.91 74.83,197.29 74.83,197.67 75.21,198.05 75.21,198.8 75.97,199.56 75.97,199.94 76.72,200.69 76.72,201.07 77.48,201.83 77.48,202.2 77.86,202.58 77.86,202.96 78.24,202.96 78.24,203.34 78.99,204.09 78.99,204.47 79.37,204.47 79.37,204.85 80.5,205.98 80.5,206.36 80.88,206.74 81.26,206.74 81.26,207.12 85.8,211.65 86.17,211.65 86.17,212.03 86.55,212.41 86.93,212.41 87.31,212.79 87.31,213.17 87.69,213.17 88.82,214.3 89.2,214.3 89.57,214.68 89.57,215.06 89.95,215.06 90.33,215.43 90.71,215.43 91.09,215.81 91.09,216.19 91.46,216.19 91.84,216.57 92.22,216.57 92.98,217.32 93.35,217.32 94.11,218.08 94.49,218.08 94.49,218.46 94.87,218.46 95.24,218.83 95.62,218.83 96,219.21 96.38,219.21 96.38,219.59 96.76,219.59 97.13,219.97 97.51,219.97 97.89,220.35 98.27,220.35 98.65,220.72 99.02,220.72 99.02,221.1 99.4,221.1 99.78,221.48 100.16,221.48 100.54,221.86 100.91,221.86 101.29,222.24 101.67,222.24 102.43,222.99 103.18,222.99 103.56,223.37 103.94,223.37 104.32,223.75 104.69,223.75 105.07,224.13 105.83,224.13 106.2,224.5 106.58,224.5 106.96,224.88 107.72,224.88 107.72,225.26 108.09,225.26 108.47,225.64 109.23,225.64 109.61,226.02 109.98,226.02 110.36,226.39 111.12,226.39 111.5,226.77 111.87,226.77 112.25,227.15 113.01,227.15 113.39,227.53 113.76,227.53 113.76,227.91 114.52,227.91 114.9,228.28 115.28,228.28 115.65,228.66 116.41,228.66 116.79,229.04 117.17,229.04 117.54,229.42 118.3,229.42 119.06,230.17 119.81,230.17 120.19,230.55 120.94,230.55 121.32,230.93 121.7,230.93 122.08,231.31 122.83,231.31 122.83,231.69 123.21,231.69 123.59,232.06 124.35,232.06 124.72,232.44 125.48,232.44 125.86,232.82 126.24,232.82 126.61,233.2 127.37,233.2 127.75,233.57 128.13,233.57 128.5,233.95 129.26,233.95 129.64,234.33 130.02,234.33 130.39,234.71 131.15,234.71 131.53,235.09 132.28,235.09 132.66,235.46 133.04,235.46 133.42,235.84 134.17,235.84 134.55,236.22 135.31,236.22 135.69,236.6 136.44,236.6 136.82,236.98 137.57,236.98 137.95,237.35 138.71,237.35 139.09,237.73 139.46,237.73 139.84,238.11 140.6,238.11 140.98,238.49 141.73,238.49 142.11,238.87 142.87,238.87 143.24,239.24 144,239.24 144.38,239.62 144.76,239.62 145.13,240 145.89,240 146.27,240.38 147.02,240.38 147.4,240.76 147.78,240.76 148.16,241.13 148.91,241.13 149.29,241.51 149.67,241.51 150.05,241.89 150.8,241.89 151.18,242.27 151.94,242.27 152.32,242.65 153.07,242.65 153.45,243.02 153.83,243.02 154.2,243.4 154.58,243.4 154.96,243.78 155.34,243.78 155.72,244.16 156.47,244.16 156.85,244.54 157.61,244.54 157.98,244.91 158.36,244.91 158.74,245.29 159.5,245.29 159.87,245.67 160.25,245.67 160.25,246.05 161.01,246.05 161.39,246.43 161.76,246.43 162.14,246.8 162.9,246.8 163.28,247.18 163.65,247.18 164.03,247.56 164.41,247.56 164.79,247.94 165.17,247.94 165.54,248.32 165.92,248.32 166.3,248.69 166.68,248.69 167.06,249.07 167.81,249.07 168.19,249.45 168.57,249.45 168.57,249.83 168.94,249.83 169.32,250.2 170.08,250.2 170.46,250.58 170.83,250.58 171.21,250.96 171.59,250.96 171.59,251.34 171.97,251.34 172.35,251.72 172.72,251.72 173.1,252.09 173.86,252.09 174.24,252.47 174.61,252.47 174.61,252.85 174.99,252.85 175.37,253.23 175.75,253.23 176.13,253.61 176.5,253.61 177.26,254.36 177.64,254.36 178.02,254.74 178.39,254.74 178.77,255.12 179.15,255.12 179.15,255.5 179.53,255.5 179.91,255.87 180.28,255.87 180.66,256.25 181.04,256.25 181.8,257.01 182.17,257.01 182.55,257.39 182.93,257.39 183.69,258.14 184.06,258.14 185.2,259.28 185.57,259.28 185.95,259.65 186.33,259.65 186.33,260.03 186.71,260.03 187.09,260.41 187.46,260.41 187.84,260.79 187.84,261.17 188.22,261.17 188.6,261.54 188.98,261.54 190.49,263.06 190.87,263.06 191.24,263.43 191.24,263.81 191.62,263.81 192,264.19 192.38,264.19 192.76,264.57 192.76,264.94 193.13,264.94 194.65,266.46 195.02,266.46 195.4,266.83 195.4,267.21 195.78,267.21 197.29,268.72 197.67,268.72 198.05,269.1 198.05,269.48 198.43,269.48 201.83,272.88 202.2,272.88 202.2,273.26 202.58,273.64 202.96,273.64 202.96,274.02 203.72,274.77 204.09,274.77 204.09,275.15 204.47,275.53 204.85,275.53 204.85,275.91 208.25,279.31 208.25,279.69 208.63,279.69 208.63,280.06 210.14,281.57 210.14,281.95 210.52,281.95 210.9,282.33 210.9,282.71 212.03,283.84 212.03,284.22 212.41,284.6 212.79,284.6 212.79,284.98 213.17,285.35 213.17,285.73 213.54,285.73 213.92,286.11 213.92,286.49 214.3,286.87 214.3,287.24 214.68,287.24 214.68,287.62 215.43,288.38 215.43,288.76 215.81,288.76 215.81,289.13 216.19,289.51 216.19,289.89 217.32,291.02 217.32,291.4 217.7,291.78 217.7,292.16 218.08,292.16 218.08,292.54 218.46,292.91 218.46,293.29 218.83,293.67 218.83,294.05 219.59,294.8 219.59,295.18 219.97,295.56 219.97,295.94 220.35,296.32 220.35,296.69 220.72,296.69 220.72,297.07 221.1,297.45 221.1,297.83 221.48,298.2 221.48,298.96 222.24,299.72 222.24,300.09 222.61,300.47 222.61,300.85 222.99,301.23 222.99,301.98 223.37,302.36 223.37,302.74 223.75,303.12 223.75,303.5 224.13,303.87 224.13,304.25 224.5,304.63 224.5,305.39 224.88,305.76 224.88,306.52 225.26,306.9 225.26,307.28 225.64,307.65 225.64,308.41 226.02,308.79 226.02,309.54 226.39,309.92 226.39,310.68 226.77,311.06 226.77,311.81 227.15,312.19 227.15,313.32 227.53,313.7 227.53,314.83 227.91,315.21 227.91,316.35 228.28,316.72 228.28,317.86 228.66,318.24 228.66,319.75 229.04,320.13 229.04,321.64 229.42,322.02 229.42,323.53 229.8,323.91 229.8,325.42 230.17,325.8 230.17,328.44 230.55,328.82 230.55,331.84 230.93,332.22 230.93,337.51 231.31,337.89 231.31,345.45 230.93,345.83 230.93,351.12 230.55,351.5 230.55,354.52 230.17,354.9 230.17,357.17 229.8,357.54 229.8,359.43 229.42,359.81 229.42,361.32 229.04,361.7 229.04,363.21 228.66,363.59 228.66,364.72 228.28,365.1 228.28,366.61 227.91,366.99 227.91,367.75 227.53,368.13 227.53,368.88 227.15,369.26 227.15,370.02 226.77,370.39 226.77,371.15 226.39,371.53 226.39,372.28 226.02,372.66 226.02,373.42 225.64,373.8 225.64,374.17 225.26,374.55 225.26,374.93 224.88,375.31 224.88,376.06 224.5,376.44 224.5,377.2 224.13,377.57 224.13,378.33 223.75,378.71 223.75,379.09 223.37,379.09 223.37,379.84 222.99,380.22 222.99,380.6 222.61,380.98 222.61,381.73 221.86,382.49 221.86,382.87 221.48,383.24 221.48,384 221.1,384.38 221.1,384.76 220.35,385.51 220.35,385.89 219.97,386.27 219.97,387.02 219.21,387.78 219.21,388.16 218.83,388.54 218.83,388.91 218.08,389.67 218.08,390.05 217.7,390.43 217.7,390.8 217.32,391.18 217.32,391.56 216.94,391.56 216.94,391.94 216.57,392.32 216.57,392.69 215.81,393.45 215.81,393.83 215.06,394.58 215.06,394.96 214.68,394.96 214.68,395.34 214.3,395.72 214.3,396.09 213.92,396.47 213.54,396.47 213.54,396.85 213.17,397.23 213.17,397.61 212.03,398.74 212.03,399.12 211.65,399.12 211.65,399.5 210.9,400.25 210.9,400.63 210.52,400.63 210.14,401.01 210.14,401.39 208.63,402.9 208.63,403.28 208.25,403.28 207.87,403.65 207.87,404.03 207.5,404.41 207.12,404.41 207.12,404.79 202.2,409.7 201.83,409.7 201.83,410.08 201.45,410.46 201.07,410.46 200.69,410.83 200.69,411.21 200.32,411.21 198.8,412.72 198.43,412.72 197.29,413.86 196.91,413.86 196.91,414.24 196.54,414.61 196.16,414.61 195.78,414.99 195.4,414.99 195.4,415.37 195.02,415.75 194.65,415.75 194.27,416.13 193.89,416.13 193.89,416.5 193.51,416.88 193.13,416.88 192.76,417.26 192.38,417.26 192.38,417.64 192,418.02 191.62,418.02 191.24,418.39 190.87,418.39 189.73,419.53 189.35,419.53 188.98,419.91 188.6,419.91 188.6,420.28 188.22,420.28 187.84,420.66 187.46,420.66 187.09,421.04 186.71,421.04 186.71,421.42 186.33,421.42 185.95,421.8 185.57,421.8 185.2,422.17 184.82,422.17 184.82,422.55 184.44,422.55 184.06,422.93 183.69,422.93 183.31,423.31 182.93,423.31 182.55,423.69 182.17,423.69 182.17,424.06 181.8,424.06 181.42,424.44 181.04,424.44 180.66,424.82 180.28,424.82 179.53,425.57 178.77,425.57 178.39,425.95 178.02,425.95 177.64,426.33 177.26,426.33 176.88,426.71 176.5,426.71 176.13,427.09 175.75,427.09 175.37,427.46 174.99,427.46 174.61,427.84 173.86,427.84 173.48,428.22 173.1,428.22 173.1,428.6 172.35,428.6 171.97,428.98 171.21,428.98 170.83,429.35 170.46,429.35 170.08,429.73 169.32,429.73 168.94,430.11 168.19,430.11 167.81,430.49 167.43,430.49 167.06,430.87 166.3,430.87 165.92,431.24 165.17,431.24 164.79,431.62 163.65,431.62 163.28,432 162.52,432 162.14,432.38 161.01,432.38 160.63,432.76 159.5,432.76 159.12,433.13 157.98,433.13 157.61,433.51 156.47,433.51 156.09,433.89 154.96,433.89 154.58,434.27 153.07,434.27 152.69,434.65 151.18,434.65 150.8,435.02 148.91,435.02 148.54,435.4 146.65,435.4 146.27,435.78 144.38,435.78 144,436.16 141.35,436.16 140.98,436.54 137.95,436.54 137.57,436.91 133.04,436.91 132.66,437.29 116.03,437.29 115.65,436.91 111.87,436.91 111.5,436.54 108.85,436.54 108.47,436.16 106.2,436.16 105.83,435.78 103.94,435.78 103.56,435.4 102.05,435.4 101.67,435.02 100.16,435.02 99.78,434.65 98.27,434.65 97.89,434.27 96.76,434.27 96.38,433.89 94.87,433.89 94.49,433.51 93.35,433.51 92.98,433.13 92.22,433.13 91.84,432.76 90.71,432.76 90.33,432.38 89.57,432.38 89.2,432 88.44,432 88.06,431.62 87.31,431.62 86.93,431.24 86.17,431.24 85.8,430.87 84.66,430.87 84.28,430.49 83.53,430.49 83.15,430.11 82.77,430.11 82.39,429.73 82.02,429.73 81.64,429.35 80.88,429.35 80.5,428.98 79.75,428.98 79.37,428.6 78.61,428.6 77.86,427.84 77.1,427.84 76.72,427.46 76.35,427.46 75.97,427.09 75.21,427.09 74.83,426.71 74.46,426.71 74.08,426.33 73.7,426.33 73.32,425.95 72.94,425.95 72.57,425.57 72.19,425.57 71.81,425.2 71.06,425.2 71.06,424.82 70.68,424.82 70.3,424.44 69.92,424.44 69.54,424.06 69.17,424.06 68.79,423.69 68.41,423.69 68.03,423.31 67.65,423.31 67.28,422.93 66.9,422.93 66.52,422.55 66.14,422.55 65.76,422.17 65.39,422.17 65.39,421.8 65.01,421.8 64.63,421.42 64.25,421.42 63.87,421.04 63.5,421.04 62.74,420.28 62.36,420.28 61.98,419.91 61.61,419.91 61.23,419.53 60.85,419.53 60.85,419.15 60.47,418.77 60.09,418.77 59.72,418.39 59.34,418.39 58.58,417.64 58.2,417.64 57.83,417.26 57.45,417.26 57.07,416.88 57.07,416.5 56.69,416.5 56.32,416.13 55.94,416.13 54.8,414.99 54.43,414.99 53.67,414.24 53.29,414.24 53.29,413.86 52.91,413.86 52.16,413.1 51.78,413.1 51.78,412.72 51.4,412.35 51.02,412.35 50.65,411.97 50.27,411.97 50.27,411.59 49.89,411.21 49.51,411.21 48,409.7 47.62,409.7 47.24,409.32 47.24,408.94 46.87,408.94 46.49,408.57 46.11,408.57 46.11,408.19 45.35,407.43 44.98,407.43 44.98,407.06 44.6,406.68 44.22,406.68 43.84,406.3 43.84,405.92 43.46,405.92 39.31,401.76 39.31,401.39 38.93,401.39 38.55,401.01 38.55,400.63 38.17,400.63 37.8,400.25 37.8,399.87 37.42,399.5 37.04,399.5 37.04,399.12 35.53,397.61 35.53,397.23 35.15,397.23 34.77,396.85 34.77,396.47 34.39,396.09 34.02,396.09 34.02,395.72 33.64,395.34 33.64,394.96 33.26,394.96 32.88,394.58 32.88,394.2 31.75,393.07 31.75,392.69 30.61,391.56 30.61,391.18 29.48,390.05 29.48,389.67 29.1,389.29 29.1,388.91 28.72,388.91 28.72,388.54 28.35,388.16 28.35,387.78 27.97,387.4 27.59,387.4 27.59,387.02 27.21,386.65 27.21,386.27 26.83,385.89 26.83,385.51 26.46,385.51 26.46,385.13 26.08,384.76 26.08,384.38 25.7,384 25.7,383.62 25.32,383.62 25.32,383.24 24.94,382.87 24.94,382.49 24.57,382.11 24.57,381.73 23.81,380.98 23.81,380.6 23.43,380.22 23.43,379.84 23.06,379.46 23.06,379.09 22.68,379.09 22.68,378.71 22.3,378.33 22.3,377.95 21.92,377.57 21.92,376.82 21.54,376.44 21.54,376.06 21.17,376.06 21.17,375.69 20.79,375.31 20.79,374.55 20.41,374.17 20.41,373.8 20.03,373.42 20.03,373.04 19.65,372.66 19.65,372.28 19.28,371.91 19.28,371.53 18.9,371.15 18.9,370.39 18.52,370.02 18.52,369.64 18.14,369.26 18.14,368.5 17.76,368.13 17.76,367.75 17.39,367.37 17.39,366.61 17.01,366.24 17.01,365.48 16.63,365.1 16.63,364.72 16.25,364.35 16.25,363.59 15.87,363.21 15.87,362.08 15.5,361.7 15.5,360.94 15.12,360.57 15.12,359.81 14.74,359.81 14.74,358.68 14.36,358.3 14.36,357.17 13.98,356.79 13.98,355.65 13.61,355.28 13.61,354.14 13.23,353.76 13.23,352.25 12.85,351.87 12.85,350.74 12.47,350.36 12.47,348.85 12.09,348.47 12.09,346.58 11.72,346.2 11.72,344.32 11.34,343.94 11.34,342.05 10.96,341.67 10.96,339.78 10.58,339.4 10.58,337.51 10.2,337.13 10.2,335.24 9.83,334.87 9.83,332.98 9.45,332.6 9.45,330.71 9.07,330.33 9.07,328.82 65.01,328.82 65.01,329.57 65.39,329.95 65.39,330.71 65.76,331.09 65.76,331.84 66.14,332.22 66.14,333.35 66.52,333.73 66.52,334.87 66.9,335.24 66.9,336 67.28,336.38 67.28,337.51 67.65,337.89 67.65,339.02 68.03,339.4 68.03,340.54 68.41,340.91 68.41,341.67 68.79,342.05 68.79,342.8 69.17,343.18 69.17,343.94 69.54,344.32 69.54,345.07 69.92,345.45 69.92,345.83 70.3,346.2 70.3,346.58 70.68,346.96 70.68,347.72 71.06,348.09 71.06,348.47 71.43,348.85 71.43,349.23 71.81,349.61 71.81,349.98 72.19,350.36 72.19,350.74 72.57,351.12 72.57,351.5 72.94,351.87 72.94,352.25 73.32,352.25 73.32,352.63 73.7,353.01 73.7,353.39 74.08,353.76 74.08,354.14 75.21,355.28 75.21,355.65 75.59,356.03 75.59,356.41 76.72,357.54 76.72,357.92 77.86,359.06 77.86,359.43 78.24,359.43 78.24,359.81 79.37,360.94 79.37,361.32 79.75,361.7 80.13,361.7 80.13,362.08 83.91,365.86 84.28,365.86 84.28,366.24 84.66,366.61 85.04,366.61 85.04,366.99 85.42,366.99 86.55,368.13 86.93,368.13 87.31,368.5 87.31,368.88 87.69,368.88 88.06,369.26 88.44,369.26 88.44,369.64 88.82,370.02 89.2,370.02 89.57,370.39 89.95,370.39 89.95,370.77 90.33,370.77 90.71,371.15 91.09,371.15 91.84,371.91 92.22,371.91 92.6,372.28 92.98,372.28 93.73,373.04 94.11,373.04 94.49,373.42 94.87,373.42 95.24,373.8 95.62,373.8 95.62,374.17 96,374.17 96.38,374.55 96.76,374.55 97.13,374.93 97.51,374.93 97.89,375.31 98.65,375.31 98.65,375.69 99.02,375.69 99.4,376.06 99.78,376.06 100.16,376.44 100.91,376.44 101.29,376.82 101.67,376.82 102.05,377.2 102.43,377.2 102.8,377.57 103.56,377.57 103.94,377.95 104.69,377.95 105.07,378.33 105.45,378.33 105.83,378.71 106.58,378.71 106.96,379.09 107.72,379.09 108.09,379.46 108.85,379.46 109.23,379.84 109.98,379.84 110.36,380.22 111.5,380.22 111.87,380.6 113.01,380.6 113.39,380.98 114.9,380.98 115.28,381.35 117.17,381.35 117.54,381.73 119.81,381.73 120.19,382.11 123.59,382.11 123.97,382.49 130.77,382.49 131.15,382.11 134.93,382.11 135.31,381.73 137.57,381.73 137.95,381.35 139.09,381.35 139.46,380.98 140.98,380.98 141.35,380.6 142.49,380.6 142.87,380.22 144,380.22 144.38,379.84 145.13,379.84 145.51,379.46 145.89,379.46 146.27,379.09 147.02,379.09 147.4,378.71 148.16,378.71 148.54,378.33 149.29,378.33 149.67,377.95 150.43,377.95 151.18,377.2 151.56,377.2 151.94,376.82 152.69,376.82 153.07,376.44 153.45,376.44 153.83,376.06 154.2,376.06 154.58,375.69 154.96,375.69 154.96,375.31 155.34,374.93 155.72,374.93 156.09,374.55 156.47,374.55 156.85,374.17 157.23,374.17 157.23,373.8 157.61,373.8 157.98,373.42 158.36,373.42 158.74,373.04 158.74,372.66 159.12,372.66 159.5,372.28 159.87,372.28 160.25,371.91 160.25,371.53 160.63,371.53 161.01,371.15 161.39,371.15 161.39,370.77 161.76,370.39 162.14,370.39 162.14,370.02 162.52,369.64 162.9,369.64 163.28,369.26 163.28,368.88 163.65,368.88 164.03,368.5 164.03,368.13 164.41,368.13 164.41,367.75 166.3,365.86 166.3,365.48 167.43,364.35 167.43,363.97 167.81,363.97 167.81,363.59 168.19,363.21 168.19,362.83 168.94,362.08 168.94,361.32 169.7,360.57 169.7,360.19 170.08,359.81 170.08,359.06 170.46,359.06 170.46,358.68 170.83,358.3 170.83,357.54 171.21,357.17 171.21,356.41 171.59,356.41 171.59,355.65 171.97,355.28 171.97,354.14 172.35,353.76 172.35,352.63 172.72,352.25 172.72,351.12 173.1,350.74 173.1,348.85 173.48,348.47 173.48,337.51 173.1,337.13 173.1,334.49 172.72,334.11 172.72,331.46 172.35,331.09 172.35,329.95 171.97,329.57 171.97,328.44 171.59,328.06 171.59,326.93 171.21,326.55 171.21,325.8 170.83,325.42 170.83,324.66 170.46,324.28 170.46,323.53 170.08,323.15 170.08,322.77 169.7,322.39 169.7,322.02 169.32,321.64 169.32,321.26 168.94,320.88 168.94,320.5 168.57,320.13 168.57,319.37 168.19,319.37 168.19,318.99 167.81,318.61 167.81,318.24 167.43,317.86 167.43,317.48 167.06,317.48 167.06,317.1 166.3,316.35 166.3,315.97 165.92,315.97 165.92,315.59 165.54,315.21 165.54,314.83 165.17,314.83 164.79,314.46 164.79,314.08 163.65,312.94 163.65,312.57 163.28,312.57 163.28,312.19 162.9,311.81 162.52,311.81 162.52,311.43 162.14,311.06 161.76,311.06 161.76,310.68 161.39,310.3 161.01,310.3 161.01,309.92 160.63,309.54 160.25,309.54 159.87,309.17 159.87,308.79 159.5,308.79 159.12,308.41 159.12,308.03 158.74,308.03 157.61,306.9 157.23,306.9 156.85,306.52 156.85,306.14 156.47,306.14 156.09,305.76 155.72,305.76 154.58,304.63 154.2,304.63 154.2,304.25 153.83,304.25 153.45,303.87 153.07,303.87 152.69,303.5 152.32,303.5 152.32,303.12 151.94,302.74 151.56,302.74 151.18,302.36 150.8,302.36 150.05,301.61 149.67,301.61 149.29,301.23 148.91,301.23 148.54,300.85 148.16,300.85 147.4,300.09 147.02,300.09 146.65,299.72 146.27,299.72 145.89,299.34 145.51,299.34 145.13,298.96 144.76,298.96 144.76,298.58 144,298.58 143.62,298.2 143.24,298.2 142.87,297.83 142.49,297.83 142.11,297.45 141.73,297.45 141.35,297.07 140.98,297.07 140.22,296.32 139.46,296.32 139.09,295.94 138.71,295.94 138.33,295.56 137.57,295.56 137.2,295.18 136.44,295.18 136.06,294.8 135.69,294.8 135.69,294.43 134.93,294.43 134.55,294.05 133.8,294.05 133.42,293.67 132.66,293.67 132.28,293.29 131.53,293.29 131.15,292.91 130.77,292.91 130.39,292.54 130.02,292.54 129.64,292.16 128.88,292.16 128.5,291.78 127.75,291.78 127.37,291.4 126.99,291.4 126.61,291.02 125.86,291.02 125.48,290.65 125.1,290.65 124.72,290.27 123.97,290.27 123.59,289.89 122.83,289.89 122.46,289.51 122.08,289.51 121.7,289.13 120.94,289.13 120.57,288.76 119.81,288.76 119.43,288.38 119.06,288.38 118.68,288 117.92,288 117.54,287.62 117.17,287.62 116.79,287.24 116.03,287.24 115.65,286.87 114.9,286.87 114.52,286.49 113.76,286.49 113.76,286.11 113.39,286.11 113.01,285.73 112.25,285.73 111.87,285.35 111.12,285.35 110.74,284.98 109.98,284.98 109.61,284.6 109.23,284.6 108.85,284.22 108.09,284.22 108.09,283.84 107.34,283.84 106.96,283.46 106.58,283.46 106.2,283.09 105.45,283.09 105.07,282.71 104.32,282.71 103.94,282.33 103.56,282.33 103.18,281.95 102.8,281.95 102.43,281.57 101.67,281.57 101.29,281.2 100.91,281.2 100.54,280.82 99.78,280.82 99.4,280.44 99.02,280.44 98.65,280.06 98.27,280.06 97.89,279.69 97.13,279.69 96.76,279.31 96.38,279.31 96,278.93 95.24,278.93 94.87,278.55 94.49,278.55 94.11,278.17 93.73,278.17 93.35,277.8 92.98,277.8 92.6,277.42 91.84,277.42 91.46,277.04 91.09,277.04 90.71,276.66 90.33,276.66 89.95,276.28 89.57,276.28 89.2,275.91 88.82,275.91 88.44,275.53 87.69,275.53 87.31,275.15 86.93,275.15 86.17,274.39 85.42,274.39 85.04,274.02 84.66,274.02 84.28,273.64 83.91,273.64 83.15,272.88 82.39,272.88 82.02,272.5 81.64,272.5 81.26,272.13 80.88,272.13 80.13,271.37 79.75,271.37 79.37,270.99 78.61,270.99 78.24,270.61 77.86,270.61 77.1,269.86 76.35,269.86 75.97,269.48 75.59,269.48 75.21,269.1 74.83,269.1 74.46,268.72 74.08,268.72 74.08,268.35 73.7,268.35 73.32,267.97 72.57,267.97 72.19,267.59 71.81,267.59 71.43,267.21 71.06,267.21 71.06,266.83 70.68,266.83 70.3,266.46 69.92,266.46 69.54,266.08 69.17,266.08 68.79,265.7 68.41,265.7 68.41,265.32 68.03,265.32 67.65,264.94 67.28,264.94 66.9,264.57 66.52,264.57 66.14,264.19 65.76,264.19 65.76,263.81 65.39,263.81 65.01,263.43 64.63,263.43 64.25,263.06 63.87,263.06 63.12,262.3 62.74,262.3 62.36,261.92 61.98,261.92 61.61,261.54 61.23,261.54 61.23,261.17 60.85,261.17 60.47,260.79 60.09,260.79 59.34,260.03 58.96,260.03 58.96,259.65 58.58,259.65 58.2,259.28 57.83,259.28 57.45,258.9 57.07,258.9 57.07,258.52 56.69,258.14 56.32,258.14 55.94,257.76 55.56,257.76 55.56,257.39 55.18,257.39 54.43,256.63 54.05,256.63 52.91,255.5 52.54,255.5 51.4,254.36 51.02,254.36 49.89,253.23 49.51,253.23 49.51,252.85 49.13,252.47 48.76,252.47 48.38,252.09 48,252.09 48,251.72 47.62,251.34 47.24,251.34 46.87,250.96 46.87,250.58 46.49,250.58 44.98,249.07 44.6,249.07 44.6,248.69 44.22,248.32 43.84,248.32 43.46,247.94 43.46,247.56 43.09,247.56 42.71,247.18 42.71,246.8 42.33,246.8 41.57,246.05 41.57,245.67 41.2,245.67 40.82,245.29 40.82,244.91 40.44,244.91 39.69,244.16 39.69,243.78 39.31,243.78 38.93,243.4 38.93,243.02 38.55,242.65 38.17,242.65 38.17,242.27 37.8,241.89 37.42,241.89 37.42,241.51 36.66,240.76 36.66,240.38 36.28,240.38 35.91,240 35.91,239.62 35.53,239.24 35.15,239.24 35.15,238.87 34.39,238.11 34.39,237.73 34.02,237.73 34.02,237.35 33.26,236.6 33.26,236.22 32.88,236.22 32.5,235.84 32.5,235.46 32.13,235.09 32.13,234.71 31.75,234.71 31.37,234.33 31.37,233.95 30.99,233.57 30.99,233.2 29.86,232.06 29.86,231.69 29.48,231.31 29.48,230.93 28.72,230.17 28.72,229.8 28.35,229.42 28.35,229.04 27.97,228.66 27.97,228.28 27.59,227.91 27.21,227.91 27.21,227.53 26.83,227.15 26.83,226.77 26.46,226.39 26.46,226.02 26.08,225.64 26.08,225.26 25.7,224.88 25.7,224.5 25.32,224.13 25.32,223.75 24.94,223.37 24.94,222.99 24.57,222.99 24.57,222.61 24.19,222.24 24.19,221.86 23.81,221.48 23.81,221.1 23.43,220.72 23.43,219.97 23.06,219.97 23.06,219.59 22.68,219.21 22.68,218.83 22.3,218.46 22.3,217.7 21.92,217.32 21.92,216.94 21.54,216.94 21.54,216.19 21.17,215.81 21.17,215.43 20.79,215.06 20.79,214.3 20.41,213.92 20.41,213.54 20.03,213.54 20.03,212.79 19.65,212.41 19.65,211.65 19.28,211.28 19.28,210.52 18.9,210.14 18.9,209.39 18.52,209.01 18.52,208.63 18.14,208.63 18.14,207.5 17.76,207.12 17.76,206.36 17.39,205.98 17.39,205.23 17.01,204.85 17.01,204.09 16.63,203.72 16.63,202.58 16.25,202.2 16.25,201.45 15.87,201.07 15.87,199.94 15.5,199.56 15.5,198.43 15.12,198.05 15.12,196.91 14.74,196.54 14.74,196.16 14.36,195.78 14.36,195.4 13.98,195.02 13.98,191.62 13.61,191.24 13.61,187.84 13.23,187.46 13.23,182.93 12.85,182.55 12.85,179.15 12.09,179.15 12.09,169.32 12.47,168.94 12.47,168.57 12.85,168.19 12.85,164.79 13.23,164.41 13.23,161.76 13.61,161.39 13.61,159.5 13.98,159.12 13.98,158.36 14.36,157.98 14.36,156.09 14.74,155.72 14.74,154.58 15.12,153.83 15.12,150.05 15.5,149.67 15.5,148.54 15.87,148.16 15.87,147.02 16.25,146.65 16.25,145.51 16.63,145.13 16.63,144.38 17.01,144 17.01,142.87 17.39,142.49 17.39,141.73 17.76,141.35 17.76,140.6 18.14,140.22 18.14,139.46 18.52,139.46 18.52,138.71 18.9,138.33 18.9,137.57 19.28,137.2 19.28,136.44 19.65,136.06 19.65,135.31 20.03,134.93 20.03,134.55 20.41,134.17 20.41,133.8 20.79,133.42 20.79,132.66 21.17,132.28 21.17,131.91 21.54,131.53 21.54,131.15 21.92,130.77 21.92,130.02 22.3,130.02 22.3,129.64 22.68,129.26 22.68,128.88 23.06,128.5 23.06,127.75 23.43,127.37 23.43,126.99 24.19,126.24 24.19,125.86 24.57,125.48 24.57,125.1 24.94,124.72 24.94,124.35 25.32,123.97 25.32,123.59 25.7,123.59 25.7,123.21 26.08,122.83 26.08,122.46 26.46,122.08 26.46,121.7 26.83,121.32 26.83,120.94 27.21,120.94 27.21,120.57 27.59,120.19 27.59,119.81 27.97,119.43 27.97,119.06 28.35,118.68 28.72,118.68 28.72,118.3 29.1,117.92 29.1,117.54 29.48,117.17 29.48,116.79 29.86,116.41 30.24,116.41 30.24,116.03 30.61,115.65 30.61,115.28 31.75,114.14 31.75,113.76 32.13,113.39 32.5,113.39 32.5,113.01 32.88,113.01"
      fill="var(--logo-fill, currentColor)"
    /><polygon
      points="393.83,68.03 395.34,68.03 395.72,68.41 397.23,68.41 397.61,68.79 399.12,68.79 399.5,69.17 399.87,69.17 400.63,69.54 401.01,69.54 401.39,69.92 404.03,69.92 404.79,70.68 405.54,71.06 406.68,71.06 407.06,71.43 407.81,71.43 408.19,71.81 409.32,71.81 409.7,72.19 410.46,72.19 410.83,72.57 411.59,72.57 411.97,72.94 412.72,72.94 413.1,73.32 413.86,73.32 413.86,73.7 414.61,73.7 414.99,74.08 415.75,74.08 416.13,74.46 416.5,74.46 416.88,74.83 417.64,74.83 418.02,75.21 418.77,75.21 419.53,75.97 420.28,75.97 420.66,76.35 421.04,76.35 421.42,76.72 422.17,76.72 422.93,77.48 423.69,77.48 424.06,77.86 424.44,77.86 424.82,78.24 425.2,78.24 425.95,78.99 426.71,78.99 427.09,79.37 427.46,79.37 427.84,79.75 428.22,79.75 428.22,80.13 428.6,80.13 428.98,80.5 429.35,80.5 429.73,80.88 430.11,80.88 430.87,81.64 431.24,81.64 431.62,82.02 432,82.02 432.38,82.39 432.76,82.39 432.76,82.77 433.13,82.77 433.51,83.15 433.89,83.15 434.27,83.53 434.65,83.53 434.65,83.91 435.02,83.91 435.4,84.28 435.78,84.28 436.91,85.42 437.29,85.42 437.67,85.8 438.05,85.8 439.18,86.93 439.56,86.93 439.94,87.31 440.32,87.31 440.32,87.69 440.69,87.69 441.45,88.44 441.83,88.44 441.83,88.82 442.2,88.82 442.96,89.57 443.34,89.57 443.34,89.95 443.72,90.33 444.09,90.33 444.47,90.71 444.85,90.71 444.85,91.09 445.23,91.46 445.61,91.46 447.12,92.98 447.5,92.98 447.87,93.35 447.87,93.73 448.25,93.73 449.76,95.24 450.14,95.24 450.52,95.62 450.52,96 450.9,96 452.79,97.89 453.17,97.89 453.17,98.27 453.54,98.65 453.92,98.65 453.92,99.02 455.43,100.54 455.81,100.54 455.81,100.91 459.21,104.32 459.21,104.69 459.59,104.69 459.97,105.07 459.97,105.45 460.35,105.45 460.72,105.83 460.72,106.2 461.1,106.58 461.48,106.58 461.48,106.96 462.24,107.72 462.61,107.72 462.61,108.09 463.37,108.85 463.37,109.23 463.75,109.23 464.13,109.61 464.13,109.98 464.5,110.36 464.88,110.36 464.88,110.74 465.26,111.12 465.26,111.5 465.64,111.5 466.02,111.87 466.02,112.25 467.53,113.76 467.53,114.14 467.91,114.14 467.91,114.52 468.66,115.28 468.66,115.65 469.04,115.65 469.42,116.03 469.42,116.41 469.8,116.79 469.8,117.17 470.17,117.54 470.55,117.54 470.55,117.92 470.93,118.3 470.93,118.68 471.31,119.06 471.69,119.06 471.69,119.43 472.06,119.81 472.06,120.19 472.44,120.57 472.44,120.94 472.82,120.94 473.2,121.32 473.2,121.7 473.57,122.08 473.57,122.46 474.33,123.21 474.33,123.59 474.71,123.97 474.71,124.35 475.09,124.72 475.09,125.1 475.46,125.1 475.46,125.48 476.22,126.24 476.22,126.99 476.6,127.37 476.6,127.75 476.98,127.75 476.98,128.13 477.35,128.5 477.35,128.88 477.73,129.26 477.73,129.64 478.11,130.02 478.11,130.39 478.49,130.77 478.49,131.15 478.87,131.15 478.87,131.91 479.24,132.28 479.24,132.66 479.62,133.04 479.62,133.8 480,134.17 480,134.55 480.38,134.93 480.38,135.31 480.76,135.69 480.76,136.06 481.13,136.44 481.13,137.2 481.51,137.57 481.51,138.33 481.89,138.71 481.89,139.09 482.27,139.46 482.27,139.84 482.65,140.22 482.65,140.98 483.02,141.35 483.02,142.11 483.4,142.49 483.4,143.24 483.78,143.62 483.78,144.38 484.16,144.76 484.16,145.51 484.54,145.89 484.54,146.65 484.91,147.02 484.91,148.16 485.29,148.54 485.29,149.29 485.67,149.29 485.67,150.43 486.05,150.8 486.05,151.94 486.43,152.32 486.43,153.07 486.8,153.45 486.8,154.96 487.18,155.34 487.18,156.47 487.56,156.85 487.56,157.98 487.94,158.36 487.94,159.87 488.32,160.25 488.32,162.14 488.69,162.52 488.69,164.41 489.07,164.79 489.07,166.68 489.45,167.06 489.45,170.08 489.83,170.46 489.83,173.86 490.2,174.24 490.2,178.02 490.58,178.39 490.58,191.62 490.2,192 490.2,196.16 489.83,196.54 489.83,199.18 489.45,199.56 489.45,201.83 489.07,202.2 489.07,204.47 488.69,204.85 488.69,206.36 488.32,206.74 488.32,208.25 487.94,208.63 487.94,210.14 487.56,210.52 487.56,212.03 487.18,212.41 487.18,213.54 486.8,213.92 486.8,215.43 486.43,215.81 486.43,216.57 486.05,216.94 486.05,218.08 485.67,218.46 485.67,219.21 485.29,219.59 485.29,220.72 484.91,221.1 484.91,222.24 484.54,222.61 484.54,223.37 484.16,223.75 484.16,224.88 483.78,225.26 483.78,226.02 483.4,226.39 483.4,226.77 483.02,227.15 483.02,227.91 482.65,228.28 482.65,228.66 482.27,229.04 482.27,229.42 481.89,229.8 481.89,230.55 481.51,230.93 481.51,231.31 481.13,231.69 481.13,232.06 480.76,232.44 480.76,232.82 480.38,233.2 480.38,233.95 480,234.33 480,234.71 479.24,235.46 479.24,235.84 478.87,236.22 478.87,236.98 478.49,237.35 478.49,237.73 477.73,238.49 477.73,238.87 477.35,239.24 477.35,239.62 476.98,240 476.98,240.38 476.22,241.13 476.22,241.51 475.84,241.89 475.84,242.27 475.46,242.65 475.46,243.02 475.09,243.02 475.09,243.4 474.71,243.78 474.71,244.16 474.33,244.54 474.33,244.91 473.2,246.05 473.2,246.43 472.82,246.8 472.82,247.18 472.44,247.18 472.44,247.56 472.06,247.94 472.06,248.32 470.93,249.45 470.93,249.83 470.55,250.2 470.55,250.58 470.17,250.96 469.8,250.96 469.8,251.34 469.42,251.72 469.42,252.09 469.04,252.47 468.66,252.47 468.66,252.85 468.28,253.23 468.28,253.61 467.91,253.98 467.53,253.98 467.53,254.36 467.15,254.74 467.15,255.12 466.77,255.5 466.39,255.5 466.39,255.87 465.64,256.63 465.64,257.01 465.26,257.01 464.88,257.39 464.88,257.76 464.5,258.14 464.13,258.14 464.13,258.52 463.37,259.28 463.37,259.65 462.99,259.65 462.61,260.03 462.61,260.41 462.24,260.79 461.86,260.79 461.86,261.17 460.35,262.68 460.35,263.06 459.97,263.06 458.46,264.57 458.46,264.94 458.08,264.94 456.57,266.46 456.57,266.83 456.19,266.83 453.54,269.48 453.17,269.48 453.17,269.86 452.79,270.24 452.41,270.24 450.9,271.75 450.52,271.75 450.52,272.13 450.14,272.5 449.76,272.5 448.25,274.02 447.87,274.02 447.5,274.39 447.5,274.77 447.12,274.77 445.98,275.91 445.61,275.91 444.09,277.42 443.72,277.42 443.34,277.8 442.96,277.8 442.96,278.17 442.58,278.55 442.2,278.55 441.83,278.93 441.45,278.93 441.45,279.31 441.07,279.31 440.32,280.06 439.94,280.06 439.94,280.44 439.56,280.44 439.18,280.82 438.8,280.82 437.67,281.95 437.29,281.95 436.91,282.33 436.54,282.33 435.78,283.09 435.4,283.09 435.02,283.46 434.65,283.46 433.51,284.6 433.13,284.6 432.76,284.98 432.38,284.98 431.62,285.73 431.24,285.73 430.87,286.11 430.11,286.11 429.73,286.49 429.35,286.49 429.35,286.87 428.98,286.87 428.6,287.24 428.22,287.24 427.84,287.62 427.46,287.62 426.71,288.38 426.33,288.38 425.95,288.76 425.2,288.76 424.82,289.13 424.44,289.13 423.69,289.89 422.93,289.89 422.55,290.27 422.17,290.27 421.8,290.65 421.04,290.65 420.28,291.4 419.53,291.4 419.15,291.78 418.77,291.78 418.39,292.16 417.64,292.16 417.26,292.54 416.88,292.54 416.5,292.91 416.13,292.91 415.75,293.29 414.99,293.29 414.61,293.67 413.86,293.67 413.48,294.05 412.72,294.05 412.35,294.43 411.59,294.43 411.21,294.8 410.83,294.8 410.46,295.18 409.7,295.18 409.32,295.56 408.57,295.56 408.19,295.94 407.06,295.94 406.68,296.32 405.92,296.32 405.54,296.69 404.41,296.69 404.03,297.07 402.9,297.07 402.52,297.45 401.39,297.45 401.01,297.83 399.87,297.83 399.5,298.2 397.98,298.2 397.61,298.58 396.09,298.58 395.72,298.96 393.83,298.96 393.45,299.34 391.56,299.34 391.18,299.72 388.91,299.72 388.54,300.09 386.27,300.09 385.89,300.47 383.62,300.47 383.24,300.85 380.22,300.85 379.84,301.23 376.82,301.23 376.44,301.61 373.42,301.61 373.04,301.98 368.5,301.98 368.13,302.36 341.29,302.36 340.91,301.98 328.82,301.98 328.82,432 270.99,432 270.99,230.55 271.37,230.17 271.37,229.42 271.75,229.04 271.75,228.28 272.13,227.91 272.13,227.53 272.5,227.15 272.5,226.77 272.88,226.39 272.88,226.02 274.02,224.88 274.02,224.5 274.77,223.75 274.77,223.37 275.15,223.37 275.15,222.99 275.91,222.24 275.91,221.86 276.28,221.86 276.28,221.48 277.04,220.72 277.04,220.35 277.42,220.35 277.42,219.97 278.17,219.21 278.17,218.83 278.55,218.83 278.55,218.46 278.93,218.08 278.93,217.7 280.06,216.57 280.06,216.19 281.2,215.06 281.2,214.68 282.33,213.54 282.33,213.17 282.71,212.79 282.71,212.41 283.09,212.41 283.46,212.03 283.46,211.65 283.84,211.28 283.84,210.9 284.22,210.9 284.6,210.52 284.6,210.14 284.98,209.76 284.98,209.39 285.35,209.01 285.73,209.01 285.73,208.63 286.11,208.25 286.11,207.87 287.24,206.74 287.24,206.36 288.38,205.23 288.38,204.85 289.13,204.09 289.13,203.72 289.89,202.96 289.89,202.58 290.27,202.58 290.27,202.2 290.65,201.83 290.65,201.45 291.02,201.07 291.4,201.07 291.4,200.69 291.78,200.32 291.78,199.94 292.16,199.56 292.54,199.56 292.54,199.18 292.91,198.8 292.91,198.43 294.05,197.29 294.05,196.91 294.43,196.54 294.43,196.16 294.8,196.16 295.18,195.78 295.18,195.4 295.56,195.02 295.56,194.65 295.94,194.65 295.94,194.27 296.69,193.51 296.69,193.13 297.07,193.13 297.07,192.76 297.83,192 297.83,191.62 298.2,191.62 298.2,191.24 298.58,190.87 298.58,190.49 298.96,190.11 299.34,190.11 299.34,189.73 299.72,189.35 299.72,188.98 300.85,187.84 300.85,187.46 301.98,186.33 301.98,185.95 303.12,184.82 303.12,184.44 303.5,184.06 303.5,183.69 303.87,183.69 304.25,183.31 304.25,182.93 304.63,182.55 304.63,182.17 305.01,181.8 305.39,181.8 305.39,181.42 305.76,181.04 305.76,180.66 306.14,180.28 306.52,180.28 306.52,179.91 306.9,179.53 306.9,179.15 307.28,178.77 307.65,178.77 307.65,178.39 308.41,177.64 308.41,177.26 308.79,177.26 309.17,176.88 309.17,176.5 309.54,176.5 309.54,176.13 312.94,172.72 312.94,172.35 313.32,172.35 313.7,171.97 313.7,171.59 314.08,171.59 314.83,170.83 314.83,170.46 315.21,170.46 315.59,170.08 315.59,169.7 315.97,169.7 316.35,169.32 316.35,168.94 316.72,168.94 317.48,168.19 317.48,167.81 317.86,167.81 320.13,165.54 320.5,165.54 320.5,165.17 321.26,164.41 321.64,164.41 321.64,164.03 322.02,163.65 322.39,163.65 322.77,163.28 322.77,162.9 323.15,162.52 323.53,162.52 323.91,162.14 323.91,161.76 324.28,161.76 325.04,161.01 325.04,160.63 325.42,160.63 326.17,159.87 326.17,159.5 326.55,159.5 328.06,157.98 328.06,244.16 358.3,244.16 358.68,243.78 369.64,243.78 370.02,243.4 374.17,243.4 374.55,243.02 377.2,243.02 377.57,242.65 379.84,242.65 380.22,242.27 382.49,242.27 382.87,241.89 384.38,241.89 384.76,241.51 386.65,241.51 387.02,241.13 388.16,241.13 388.54,240.76 389.67,240.76 390.05,240.38 390.43,240.38 390.8,240 391.56,240 391.94,239.62 393.07,239.62 393.45,239.24 393.83,239.24 394.2,238.87 394.96,238.87 395.34,238.49 396.09,238.49 396.47,238.11 397.23,238.11 397.98,237.35 398.74,237.35 399.12,236.98 399.5,236.98 399.87,236.6 400.63,236.6 401.01,236.22 401.39,236.22 401.39,235.84 401.76,235.84 402.14,235.46 402.52,235.46 402.9,235.09 403.28,235.09 403.65,234.71 404.03,234.71 404.41,234.33 404.79,234.33 405.17,233.95 405.54,233.95 406.68,232.82 407.06,232.82 407.43,232.44 407.81,232.44 408.57,231.69 408.94,231.69 410.08,230.55 410.46,230.55 411.59,229.42 411.97,229.42 412.35,229.04 412.35,228.66 412.72,228.66 414.24,227.15 414.61,227.15 414.61,226.77 414.99,226.39 415.37,226.39 415.37,226.02 415.75,225.64 416.13,225.64 416.5,225.26 416.5,224.88 416.88,224.5 417.26,224.5 417.26,224.13 417.64,223.75 418.02,223.75 418.02,223.37 418.77,222.61 418.77,222.24 419.15,222.24 419.53,221.86 419.53,221.48 419.91,221.1 419.91,220.72 420.28,220.72 420.66,220.35 420.66,219.97 421.04,219.59 421.04,219.21 421.42,218.83 421.8,218.83 421.8,218.46 422.17,218.08 422.17,217.7 422.93,216.94 422.93,216.57 423.31,216.57 423.31,216.19 423.69,215.81 423.69,215.43 424.06,215.06 424.06,214.68 424.44,214.3 424.44,213.92 424.82,213.54 424.82,213.17 425.2,212.79 425.2,212.41 425.57,212.03 425.57,211.65 425.95,211.28 425.95,210.9 426.71,210.14 426.71,209.76 427.09,209.39 427.09,209.01 427.46,208.63 427.46,207.87 427.84,207.5 427.84,207.12 428.22,206.74 428.22,205.98 428.6,205.61 428.6,205.23 428.98,204.85 428.98,204.09 429.35,203.72 429.35,202.96 429.73,202.58 429.73,201.83 430.11,201.83 430.11,200.69 430.49,200.32 430.49,199.56 430.87,199.18 430.87,198.05 431.24,197.67 431.24,196.54 431.62,196.16 431.62,194.65 432,194.27 432,192.38 432.38,192 432.38,188.98 432.76,188.6 432.76,179.91 432.38,179.53 432.38,176.88 432,176.5 432,174.61 431.62,174.24 431.62,172.72 431.24,172.35 431.24,171.21 430.87,170.83 430.87,169.7 430.49,169.32 430.49,168.57 430.11,168.57 430.11,167.81 429.73,167.43 429.73,166.68 429.35,166.3 429.35,165.54 428.98,165.17 428.98,164.41 428.6,164.03 428.6,163.28 428.22,163.28 428.22,162.9 427.84,162.52 427.84,162.14 427.46,161.76 427.46,161.01 427.09,160.63 427.09,160.25 426.71,159.87 426.71,159.5 426.33,159.12 426.33,158.74 425.57,157.98 425.57,157.61 425.2,157.23 425.2,156.85 424.82,156.47 424.82,156.09 424.06,155.34 424.06,154.96 423.31,154.2 423.31,153.83 422.55,153.07 422.55,152.69 422.17,152.32 422.17,151.94 421.04,150.8 421.04,150.43 420.66,150.05 420.66,149.67 419.53,148.54 419.53,148.16 418.77,147.4 418.77,147.02 418.39,147.02 418.02,146.65 418.02,146.27 417.64,145.89 417.64,145.51 417.26,145.51 416.88,145.13 416.88,144.76 416.5,144.38 416.13,144.38 416.13,144 414.61,142.49 414.24,142.49 414.24,142.11 411.97,139.84 411.59,139.84 411.59,139.46 411.21,139.09 410.83,139.09 409.7,137.95 409.32,137.95 409.32,137.57 408.94,137.2 408.57,137.2 408.19,136.82 407.81,136.82 407.81,136.44 407.43,136.44 406.68,135.69 406.3,135.69 406.3,135.31 405.92,135.31 405.54,134.93 405.17,134.93 404.41,134.17 404.03,134.17 403.65,133.8 403.28,133.8 402.52,133.04 402.14,133.04 401.76,132.66 401.39,132.66 401.01,132.28 400.63,132.28 400.25,131.91 399.87,131.91 399.5,131.53 399.12,131.53 398.74,131.15 398.36,131.15 397.98,130.77 397.61,130.77 397.23,130.39 396.47,130.39 396.09,130.02 395.72,130.02 395.34,129.64 394.58,129.64 394.2,129.26 393.45,129.26 393.07,128.88 392.32,128.88 391.94,128.5 391.18,128.5 390.8,128.13 389.67,128.13 389.29,127.75 388.16,127.75 387.78,127.37 386.65,127.37 386.27,126.99 384.38,126.99 384,126.61 382.11,126.61 381.73,126.24 378.33,126.24 377.95,125.86 363.97,125.86 363.59,126.24 360.57,126.24 360.19,126.61 357.92,126.61 357.92,126.99 356.03,126.99 355.65,127.37 354.14,127.37 353.76,127.75 352.25,127.75 351.87,128.13 350.74,128.13 350.36,128.5 349.23,128.5 349.23,128.88 348.47,128.88 348.09,129.26 346.96,129.26 346.58,129.64 345.83,129.64 345.45,130.02 344.69,130.02 344.69,130.39 343.94,130.39 343.56,130.77 342.8,130.77 342.43,131.15 341.67,131.15 341.29,131.53 340.91,131.53 340.54,131.91 339.78,131.91 339.4,132.28 339.02,132.28 338.65,132.66 337.89,132.66 337.13,133.42 336.38,133.42 336,133.8 335.62,133.8 335.24,134.17 334.87,134.17 334.49,134.55 334.11,134.55 333.73,134.93 333.35,134.93 332.98,135.31 332.6,135.31 331.84,136.06 331.46,136.06 331.09,136.44 330.33,136.44 329.95,136.82 329.57,136.82 329.57,137.2 329.2,137.2 328.82,137.57 328.44,137.57 328.06,137.95 327.69,137.95 326.55,139.09 326.17,139.09 325.8,139.46 325.42,139.46 325.42,139.84 325.04,139.84 324.66,140.22 324.28,140.22 323.91,140.6 323.53,140.6 323.53,140.98 323.15,141.35 322.77,141.35 322.39,141.73 322.02,141.73 320.88,142.87 320.5,142.87 320.13,143.24 319.75,143.24 319.75,143.62 319.37,143.62 318.61,144.38 318.24,144.38 317.86,144.76 317.86,145.13 317.48,145.13 317.1,145.51 316.72,145.51 316.35,145.89 316.35,146.27 315.97,146.27 315.21,147.02 314.83,147.02 314.46,147.4 314.46,147.78 314.08,147.78 313.7,148.16 313.32,148.16 312.94,148.54 312.94,148.91 312.57,148.91 311.81,149.67 311.43,149.67 311.43,150.05 310.68,150.8 310.3,150.8 309.92,151.18 309.92,151.56 309.54,151.56 308.79,152.32 308.41,152.32 308.41,152.69 308.03,153.07 307.65,153.07 307.28,153.45 307.28,153.83 306.9,153.83 304.25,156.47 303.87,156.47 303.87,156.85 303.5,157.23 303.12,157.23 303.12,157.61 302.74,157.98 302.36,157.98 301.98,158.36 301.98,158.74 301.61,159.12 301.23,159.12 301.23,159.5 300.85,159.87 300.47,159.87 300.09,160.25 300.09,160.63 299.72,161.01 299.34,161.01 299.34,161.39 297.83,162.9 297.83,163.28 297.45,163.28 297.07,163.65 297.07,164.03 296.69,164.41 296.32,164.41 296.32,164.79 295.18,165.92 295.18,166.3 294.8,166.68 294.43,166.68 294.43,167.06 292.91,168.57 292.91,168.94 291.78,170.08 291.78,170.46 291.4,170.46 291.4,170.83 290.65,171.59 290.65,171.97 290.27,171.97 289.89,172.35 289.89,172.72 289.51,173.1 289.51,173.48 289.13,173.48 288.76,173.86 288.76,174.24 288.38,174.61 288.38,174.99 288,174.99 287.62,175.37 287.62,175.75 287.24,176.13 287.24,176.5 286.87,176.5 286.49,176.88 286.49,177.26 286.11,177.64 286.11,178.02 284.98,179.15 284.98,179.53 283.84,180.66 283.84,181.04 283.46,181.42 283.46,181.8 283.09,181.8 282.71,182.17 282.71,182.55 282.33,182.93 282.33,183.31 281.2,184.44 281.2,184.82 280.06,185.95 280.06,186.33 279.69,186.71 279.69,187.09 279.31,187.09 279.31,187.46 278.55,188.22 278.55,188.6 277.42,189.73 277.42,190.11 277.04,190.49 277.04,190.87 276.66,190.87 276.28,191.24 276.28,191.62 275.91,192 275.91,192.38 274.77,193.51 274.77,193.89 274.39,194.27 274.39,194.65 274.02,194.65 273.64,195.02 273.64,195.4 273.26,195.78 273.26,196.16 272.13,197.29 272.13,197.67 270.99,198.8 270.99,199.18 270.61,199.56 270.61,199.94 270.24,199.94 269.86,200.32 269.86,200.69 269.48,201.07 269.48,201.45 269.1,201.45 268.72,201.83 268.72,202.2 268.35,202.58 268.35,202.96 267.97,202.96 267.59,203.34 267.59,203.72 267.21,204.09 267.21,204.47 266.83,204.47 266.46,204.85 266.46,205.23 266.08,205.61 266.08,205.98 265.7,205.98 265.32,206.36 265.32,206.74 264.19,207.87 264.19,208.25 263.06,209.39 263.06,209.76 262.68,210.14 262.3,210.14 262.3,210.52 261.54,211.28 261.54,211.65 261.17,211.65 261.17,212.03 259.65,213.54 259.65,213.92 259.28,214.3 258.9,214.3 258.9,214.68 258.52,215.06 258.52,215.43 258.14,215.43 257.76,215.81 257.76,216.19 257.39,216.57 257.01,216.57 257.01,216.94 255.5,218.46 255.5,218.83 255.12,218.83 254.74,219.21 254.74,219.59 254.36,219.97 253.98,219.97 253.98,220.35 252.47,221.86 252.47,222.24 252.09,222.24 251.72,222.61 251.72,222.99 251.34,223.37 250.96,223.37 250.96,223.75 249.45,225.26 249.45,225.64 249.07,225.64 248.69,226.02 248.69,226.39 248.32,226.39 247.94,226.77 247.94,227.15 247.56,227.53 247.18,227.53 247.18,227.91 246.8,228.28 246.43,228.28 246.43,228.66 245.67,229.42 245.29,229.42 245.29,229.8 244.91,230.17 244.54,230.17 244.54,230.55 243.02,232.06 242.65,232.06 242.65,232.44 242.27,232.82 241.89,232.82 241.89,233.2 241.51,233.57 241.13,233.57 240.76,233.95 240.76,234.33 240.38,234.71 240,234.71 239.62,235.09 239.62,235.46 239.24,235.46 238.87,235.84 238.87,236.22 238.49,236.22 236.98,237.73 236.6,237.73 236.6,238.11 236.22,238.49 235.84,238.49 235.46,238.87 235.46,239.24 235.09,239.24 233.57,240.76 233.2,240.76 233.2,241.13 232.82,241.51 232.44,241.51 231.31,242.65 230.93,242.65 230.93,243.02 230.55,243.4 230.17,243.4 229.8,243.78 229.8,244.16 229.42,244.16 229.04,244.54 228.66,244.54 228.28,244.91 228.28,245.29 227.91,245.29 227.15,246.05 226.77,246.05 226.77,246.43 226.39,246.43 225.26,247.56 224.88,247.56 223.37,249.07 222.99,249.07 222.61,249.45 222.24,249.45 222.24,249.83 221.86,249.83 221.1,250.58 220.72,250.58 220.72,250.96 220.35,250.96 219.59,251.72 219.21,251.72 218.46,252.47 218.46,252.85 218.08,252.85 216.94,253.98 216.57,253.98 216.19,254.36 215.81,254.36 215.06,255.12 213.54,253.61 213.17,253.61 213.17,253.23 212.79,252.85 212.41,252.85 212.03,252.47 212.03,252.09 211.65,252.09 210.14,250.58 209.76,250.58 209.76,250.2 209.39,249.83 209.01,249.83 208.63,249.45 208.63,249.07 208.25,249.07 207.5,248.32 207.12,248.32 207.12,247.94 206.74,247.94 205.61,246.8 205.23,246.8 204.09,245.67 203.72,245.67 202.58,244.54 202.2,244.54 201.83,244.16 201.45,244.16 201.45,243.78 201.07,243.4 200.69,243.4 200.32,243.02 199.94,243.02 199.94,242.65 199.56,242.65 198.8,241.89 198.43,241.89 197.67,241.13 197.29,241.13 196.91,240.76 196.54,240.76 196.54,240.38 196.16,240.38 195.78,240 195.4,240 194.27,238.87 193.89,238.87 193.51,238.49 193.13,238.49 192.38,237.73 192,237.73 191.62,237.35 191.24,237.35 190.87,236.98 190.49,236.98 190.49,236.6 190.11,236.6 189.73,236.22 189.35,236.22 188.98,235.84 188.6,235.84 187.84,235.09 187.46,235.09 187.09,234.71 186.33,234.71 185.57,233.95 185.2,233.95 184.82,233.57 184.44,233.57 184.06,233.2 183.69,233.2 182.93,232.44 182.17,232.44 181.8,232.06 181.42,232.06 181.04,231.69 180.66,231.69 180.66,231.31 180.28,231.31 179.91,230.93 179.15,230.93 178.77,230.55 178.39,230.55 178.02,230.17 177.64,230.17 177.64,229.8 177.26,229.8 176.88,229.42 176.13,229.42 175.75,229.04 175.37,229.04 174.99,228.66 174.24,228.66 174.24,228.28 173.86,228.28 173.48,227.91 173.1,227.91 172.72,227.53 171.97,227.53 171.59,227.15 171.21,227.15 170.83,226.77 170.46,226.77 170.08,226.39 169.7,226.39 169.32,226.02 168.57,226.02 168.19,225.64 167.81,225.64 167.43,225.26 166.68,225.26 165.92,224.5 165.17,224.5 164.79,224.13 164.41,224.13 164.03,223.75 163.28,223.75 162.9,223.37 162.14,223.37 161.76,222.99 161.39,222.99 161.39,222.61 160.63,222.61 160.25,222.24 159.87,222.24 159.5,221.86 158.74,221.86 158.36,221.48 157.61,221.48 157.23,221.1 156.85,221.1 156.47,220.72 155.72,220.72 155.34,220.35 154.96,220.35 154.58,219.97 154.2,219.97 153.83,219.59 153.07,219.59 152.69,219.21 151.94,219.21 151.56,218.83 150.8,218.83 150.43,218.46 150.05,218.46 149.67,218.08 148.91,218.08 148.54,217.7 148.16,217.7 147.78,217.32 147.02,217.32 146.65,216.94 146.27,216.94 145.89,216.57 145.13,216.57 144.76,216.19 144,216.19 143.62,215.81 143.24,215.81 142.87,215.43 142.11,215.43 141.73,215.06 140.98,215.06 140.6,214.68 139.84,214.68 139.09,213.92 138.33,213.92 137.95,213.54 137.2,213.54 136.82,213.17 136.06,213.17 136.44,212.79 139.09,212.79 139.46,212.41 142.87,212.41 143.24,212.03 147.78,212.03 148.16,211.65 152.32,211.65 152.69,211.28 155.34,211.28 155.72,210.9 157.98,210.9 158.36,210.52 160.25,210.52 160.63,210.14 162.14,210.14 162.52,209.76 164.03,209.76 164.41,209.39 165.54,209.39 165.92,209.01 167.06,209.01 167.43,208.63 168.57,208.63 168.94,208.25 170.08,208.25 170.46,207.87 170.83,207.87 171.21,207.5 171.97,207.5 172.35,207.12 173.1,207.12 173.48,206.74 174.24,206.74 174.61,206.36 175.37,206.36 176.13,205.61 176.88,205.61 177.26,205.23 178.02,205.23 178.39,204.85 178.77,204.85 179.15,204.47 179.53,204.47 179.91,204.09 180.28,204.09 180.66,203.72 181.04,203.72 181.42,203.34 182.17,203.34 182.17,202.96 182.55,202.96 182.93,202.58 183.31,202.58 183.69,202.2 184.06,202.2 184.44,201.83 184.82,201.83 184.82,201.45 185.2,201.45 185.57,201.07 185.95,201.07 186.33,200.69 186.71,200.69 187.46,199.94 187.84,199.94 188.22,199.56 188.6,199.56 189.35,198.8 189.73,198.8 190.49,198.05 190.87,198.05 191.62,197.29 192,197.29 193.13,196.16 193.51,196.16 193.89,195.78 194.27,195.78 194.65,195.4 194.65,195.02 195.02,195.02 195.78,194.27 196.16,194.27 196.16,193.89 196.54,193.89 197.29,193.13 197.67,193.13 198.05,192.76 198.05,192.38 198.43,192.38 199.18,191.62 199.56,191.62 199.56,191.24 199.94,190.87 200.32,190.87 201.83,189.35 202.2,189.35 202.58,188.98 202.58,188.6 202.96,188.6 204.85,186.71 205.23,186.71 205.23,186.33 205.61,185.95 205.98,185.95 206.36,185.57 206.36,185.2 206.74,185.2 208.25,183.69 208.25,183.31 208.63,183.31 211.28,180.66 211.28,180.28 211.65,180.28 213.17,178.77 213.17,178.39 213.54,178.39 213.92,178.02 213.92,177.64 214.3,177.26 214.68,177.26 214.68,176.88 216.19,175.37 216.19,174.99 216.57,174.99 216.94,174.61 216.94,174.24 217.32,173.86 217.7,173.86 217.7,173.48 219.21,171.97 219.21,171.59 219.59,171.59 219.97,171.21 219.97,170.83 220.35,170.46 220.72,170.46 220.72,170.08 221.86,168.94 221.86,168.57 223.37,167.06 223.37,166.68 223.75,166.68 223.75,166.3 224.5,165.54 224.5,165.17 224.88,165.17 225.26,164.79 225.26,164.41 226.39,163.28 226.39,162.9 227.53,161.76 227.53,161.39 228.66,160.25 228.66,159.87 229.04,159.87 229.04,159.5 229.8,158.74 229.8,158.36 230.17,158.36 230.17,157.98 230.93,157.23 230.93,156.85 231.31,156.85 231.31,156.47 231.69,156.09 231.69,155.72 232.06,155.34 232.44,155.34 232.44,154.96 232.82,154.58 232.82,154.2 233.2,153.83 233.57,153.83 233.57,153.45 233.95,153.07 233.95,152.69 235.09,151.56 235.09,151.18 235.84,150.43 235.84,150.05 236.98,148.91 236.98,148.54 237.73,147.78 237.73,147.4 238.11,147.4 238.11,147.02 238.49,146.65 238.49,146.27 238.87,145.89 239.24,145.89 239.24,145.51 239.62,145.13 239.62,144.76 240.76,143.62 240.76,143.24 241.51,142.49 241.51,142.11 242.27,141.35 242.27,140.98 242.65,140.98 242.65,140.6 243.4,139.84 243.4,139.46 244.16,138.71 244.16,138.33 244.91,137.57 244.91,137.2 245.29,137.2 245.29,136.82 246.05,136.06 246.05,135.69 246.43,135.69 246.8,135.31 246.8,134.93 247.18,134.55 247.18,134.17 247.56,134.17 247.94,133.8 247.94,133.42 248.32,133.04 248.32,132.66 248.69,132.66 249.07,132.28 249.07,131.91 250.2,130.77 250.2,130.39 250.58,130.02 250.96,130.02 250.96,129.64 251.72,128.88 251.72,128.5 252.09,128.5 252.09,128.13 253.61,126.61 253.61,126.24 253.98,125.86 254.36,125.86 254.36,125.48 254.74,125.1 254.74,124.72 255.12,124.72 255.5,124.35 255.5,123.97 255.87,123.59 256.25,123.59 256.25,123.21 257.76,121.7 257.76,121.32 258.14,121.32 258.52,120.94 258.52,120.57 258.9,120.57 259.28,120.19 259.28,119.81 259.65,119.43 260.03,119.43 260.03,119.06 264.19,114.9 264.19,114.52 264.57,114.52 269.48,109.61 269.86,109.61 269.86,109.23 270.24,108.85 270.61,108.85 270.99,108.47 270.99,108.09 271.37,108.09 271.75,107.72 271.75,107.34 272.13,107.34 273.26,106.2 273.64,106.2 274.02,105.83 274.02,105.45 274.39,105.45 275.91,103.94 276.28,103.94 276.28,103.56 276.66,103.18 277.04,103.18 277.42,102.8 277.8,102.8 277.8,102.43 278.17,102.05 278.55,102.05 278.93,101.67 278.93,101.29 279.31,101.29 279.69,100.91 280.06,100.91 280.06,100.54 280.44,100.16 280.82,100.16 281.2,99.78 281.57,99.78 281.57,99.4 281.95,99.02 282.33,99.02 282.71,98.65 283.09,98.65 283.09,98.27 283.46,97.89 283.84,97.89 284.22,97.51 284.6,97.51 284.6,97.13 284.98,96.76 285.35,96.76 285.73,96.38 286.11,96.38 286.11,96 286.49,96 287.24,95.24 287.62,95.24 287.62,94.87 288,94.87 288.38,94.49 288.76,94.49 289.89,93.35 290.27,93.35 290.65,92.98 291.02,92.98 292.16,91.84 292.54,91.84 292.91,91.46 293.29,91.46 293.29,91.09 293.67,91.09 294.05,90.71 294.43,90.71 294.8,90.33 295.18,90.33 296.32,89.2 296.69,89.2 297.07,88.82 297.45,88.82 297.83,88.44 298.2,88.44 298.2,88.06 298.58,88.06 298.96,87.69 299.34,87.69 299.72,87.31 300.09,87.31 300.47,86.93 300.85,86.93 300.85,86.55 301.23,86.55 301.61,86.17 301.98,86.17 302.36,85.8 302.74,85.8 303.12,85.42 303.5,85.42 303.87,85.04 304.25,85.04 304.25,84.66 304.63,84.66 305.01,84.28 305.76,84.28 306.14,83.91 306.52,83.91 306.9,83.53 307.28,83.53 307.65,83.15 308.03,83.15 308.79,82.39 309.17,82.39 309.54,82.02 310.3,82.02 310.68,81.64 311.06,81.64 311.43,81.26 311.81,81.26 312.19,80.88 312.57,80.88 312.94,80.5 313.32,80.5 313.7,80.13 314.08,80.13 314.46,79.75 314.83,79.75 315.21,79.37 315.97,79.37 316.35,78.99 316.72,78.99 317.1,78.61 317.86,78.61 318.24,78.24 318.61,78.24 318.61,77.86 319.37,77.86 319.75,77.48 320.5,77.48 320.88,77.1 321.26,77.1 321.64,76.72 322.39,76.72 322.77,76.35 323.53,76.35 323.91,75.97 324.66,75.97 325.04,75.59 325.42,75.59 325.8,75.21 326.55,75.21 326.93,74.83 327.69,74.83 328.06,74.46 329.2,74.46 329.57,74.08 330.33,74.08 330.71,73.7 331.46,73.7 331.84,73.32 332.98,73.32 333.35,72.94 334.11,72.94 334.49,72.57 335.62,72.57 336,72.19 337.13,72.19 337.51,71.81 338.65,71.81 339.02,71.43 340.54,71.43 340.91,71.06 342.43,71.06 342.8,70.68 344.32,70.68 344.69,70.3 346.2,70.3 346.58,69.92 348.47,69.92 348.85,69.54 351.12,69.54 351.5,69.17 353.76,69.17 354.14,68.79 357.17,68.79 357.54,68.41 361.7,68.41 362.08,68.03 382.49,68.03 382.87,68.41 384.76,68.41 385.13,68.79 386.27,68.79 386.65,69.17 387.78,69.17 388.16,69.54 388.91,69.54 389.29,69.92 391.18,69.92 391.56,70.3 391.94,70.3 392.32,70.68 393.07,70.68 393.45,71.06 393.83,71.06 394.58,72.57 394.2,72.57 394.2,72.94 393.83,72.94"
      fill="var(--logo-fill, currentColor)"
    /></g></svg>
