<svg xmlns="http://www.w3.org/2000/svg" viewBox="0 0 500.02402 450.02163"><g fill="var(--logo-fill, currentColor)" stroke="var(--logo-stroke, currentColor)" style="display:inline"><path d="M34.02.0h1.51H35.15l1.51-1.51L36.28.0h.75l1.51-1.51L38.16.0H38.54l1.51-1.51L39.67.0H40.05l2.27-2.27L42.7.0H42.33h1.13l1.51-1.51L45.35.0H44.97 45.35l.75-.75L46.48.0H46.1 46.48l1.13-1.13L48.37.0h3.77l1.13-1.14L54.03.0h1.89l.75-21.52L57.44.0l.75-1.13h.75L66.51-26.82h.75l1.14-.75h.75l1.14-1.51h.75L73.69-29.84h.75L75.96.0H-31.35 79.74-31.73 81.25-32.48h116H-32.86 85.41-34 89.19-34.75 92.59-35.51 96.75-36.26 100.9-37.02 107.33-37.4h6.05l145.1-37.78h9.83L123.96-37.4h6.05L0 0H-36.64h191.6H-32.48h1.13L156.47-31.73h.75L0 0H-30.97L160.25-29.84 161 0 163.65-29.08h.75L165.92-27.57h.75L169.7-26.81h.75L171.59-25.68h.75L175.37.0l.75-20.77L185.2.0l.75-18.5L189.36.0l1.13 1.14L193.52.0l1.13 1.13L195.03-13.97h.75L196.54-13.59h.75L197.67-10.57h.75L203.72.0l1.13 1.13L209.02-4.53h.75L214.69.0l.75.76L216.95.0H0 216.95l-.75.75L216.58.0H214.68l-1.13 1.14H0 212.41L204.48.0l-.75.75L204.1.0l-.75 24.97L202.2.0l-.75 24.21L196.16 21.18h-.75L189.74 18.54h-.75L184.44 17.4h-.75L181.42.0l-1.13 15.14h-1.13L174.23.0l-.75 8.71h-.75L163.28 5.69h-.75L157.99 4.93h-.75L156.1 4.17h-.75L153.83.77 150.8.0H121.32L120.94 2.29h-1.13L119.43 2.67h-1.14L117.92 3.05h-1.14L116.4 3.8h-.75l-1.89 1.14h-.75l-3.03.75h-.75L108.09.0l-.75.76L105.82.0l-.75.76L102.8.0H97.51l-.75.76L96 0H89.2l-.75.75L89.21.0H88.45 88.83L88.45 22.69h.75L88.82 24.96h.75L89.2 25.72h1.13L89.95 26.48h1.13L27.24.0h2.27l64.6 27.61h10.21L104.7 28.37h1.89L109.6.0l3.78 30.27h.75l2.64 1.13h.75L120.17.0H123.96.0 126.6l.75.75L132.65.0l1.13 1.13L134.16.0H38.58L135.3 43.11h.75L140.97.0H142.86 45.75 147.02.0 174.63 57.46l118.3 58.21h.75L177.65 58.59h.75L0 0H208.64 69.93L0 70.31V0H212.42.0L213.56 71.82h.75L0 0H224.9 76.35 77.48L226.41 76.73h1.13L0 0H3.41.0L232.08 78.99h1.13L234.73.0H237 0 257.41 92.97L260.44 96.37h.75L264.97 97.5h.75L267.62.0H275.94l1.13 1.13L277.45.0H0L278.97 105.05h.75L0 0H303.93 116h1.13l188.3 116.38L0 0H360.21.0 359.44.0 136.08.0L-1.13.75H358.69-1.13 357.55-1.13 346.99-1.13 343.58-1.13 339.8-1.13 335.64.0 333.74.0 331.1.0 328.07.0 325.43.0 314.47.0 303.13.0 253.62.0 245.3.0 242.66.0 165.55.0L240.01 165.17h-.75L0 0H232.83.0 229.05.0 226.78.0 224.52.0 219.98.0 218.09 154.22l61.61 155.72L0 0H409.32.0 408.19.0 407.81.0 407.43.0L37.8 403.27h-.75L0 0H402.51-3.05 385.16 384.4L-4.19 384.79h-.76L0 0H384.03-7.59 383.66 381.01L-10.62 383.28h-1.13L-12.13 382.9h-1.14L-13.64 382.53h-1.14L-15.16 382.15h-1.51L-17.05 381.77h-1.13L-18.56 381.39h-1.51L-20.45 381.01h-1.89L-22.71 380.63h-1.88L-24.97 380.25h-1.89L-27.24 379.87h-1.89L0 0H379.11 374.95L-34.04 378.74h-1.89L0 0H381L19.24 379.12h1.13L20.75 379.5h1.14L0 0H382.52L24.91 380.63h1.13L26.42 381.01h1.14L0 0H401.78 68.01L96 1.89h.75l4.92 1.51h.75l3.03.76h.75l1.14 1.13h.75L110.74 5.67h1.14L112.25 6.05h1.14L113.77 6.8h1.89L117.92 7.18h2.27L120.57 7.56h3.78l11.34-8.69h.75l10.96-.76h.75L149.67.0l.75-.75L151.56-3.4h.75L153.07.0h9.84l1.13-1.13L163.28.0H163.66 163.28 163.66l.75-.75L163.27-14.36h-.75L163.66.0H163.28L163.65-15.86h-1.13L160.99-16.24h-1.13L160.24-20.03h-.75l-26.07-2.65h-1.13L125.86-23.43h-1.14L124.34-23.81h-.75L123.21.0l-1.14-1.14L120.95-27.2h-.75L114.89.0l-1.14-1.13L108.46-31.35h-.75L106.19.0H-33.62L102.41-35.51h-.75L144-3.78h-1.5L134.18-4.16h-.75L133.05-4.92h-.75L130.78-6.43h-.75L127-7.19h-.75l-1.14-.75h-.75l-1.14-3.4h-.75L114.15-12.48h-.75L109.99.0l-2.27-.75h-.75l-1.14-13.99h-.75l-2.27-7.18h-.75L86.18-23.06h-.75L83.91-27.59h-.75L74.84-29.11h-.75L70.69.0H-32.88 61.23l-.75-33.64L0 0H-34.78 57.08l-.75-35.54L55.19.0H-37.05 51.04l-.75-37.81L0 0H47.26-41.59 47.63L47.25-4.15 46.5.0 38.55-1.52H37.8L-7.57-22.66h-.76L-8.71-23.41h-.75L-11.36-23.79h-1.13L-12.86-24.17h-1.13L-14.37-24.55h-1.14L-15.89-25.68h-3.4L-21.18-26.06h-3.4L-24.96-26.44h-4.53L-29.87-27.58h-3.4L-46.49-27.96h-2.65L-48.76-28.33h-1.89L-50.28-29.09h-1.89L-29.46.0H-30.6L-52.93-30.21h-3.78L-56.33-30.59h-1.13L-57.09.0h25.37-1.13L-58.98-32.1h-1.13L0 0H27.25-61.22"/><path d="M393.83.0H0 405.93 70.67 71.8L407.44 71.05h1.13L408.95 72.18h.75L0 0H424.83l.75.75L426.34.0H0 453.19 96.38l1.89 1.89L99.03 2.27h.75l1.88 1.52h.75L105.81 7.2h.75L106.94 12.88h1.14l.75.76h.75l11.33 1.89h.75l3.78.76h.75l1.14 2.26L128.46 19.31h.75L133.76 25.71h.75L150.79 26.47h.75L153.06 28.35h.75L161 29.49h1.13L165.91.0H31.77 185.55 32.52 46.13L198.78 32.9h4.16L0 0H220.71.0 220.7.0 219.96.0 219.58.0 218.46 52.92 218.07 53.67 217.7 54.43 217.31l-.75 55.19L0 0H216.18-.75 201.42.0 197.64 197.26l-.75.75L196.13.0H196.51.0 194.24.0 192.35.0 186.3.0 184.79.0 177.99.0 174.59.0 173.08 85.07l85.36 86.58L0 0H166.65 86.96l78.18 88.47h-1.13L163.63 89.6H162.5L159.47 89.98h-1.13L0 0H432 230.55L230.93-.38h-.75L230.56.0l.75-.75L230.93.0H232.07 231.69l.75-.76L232.06.0H233.58l1.13-1.14L234.34.0H235.85l1.13-1.13L236.22.0l.75-.76L237.36.0H240.01 239.63l.75-21.17L240 0H242.27l1.13-1.13L242.27.0h6.44H-34.41h283.5l.75-35.17L0 0H249.85-35.55 250.23-35.93 251.36-40.09 255.14-40.84 255.9-41.22 259.3-44.63 387.44-45.39 394.62-45.76 397.26-46.14 399.91-46.52 401.8-46.9 404.07-47.28 405.58-47.65 407.09-48.79 410.49-49.92 413.89l.75-51.06L416.16.0H-51.43 416.92-51.81 418.05-52.19h471H-52.57 419.56-52.94 420.32-53.32 421.07-53.7 421.83-54.08 428.63-58.99 430.9-60.88 431.65-61.26h493.3H-62.02 432.79-62.4 433.18-63.16 433.56-63.92 433.93-65.05 434.32-66.19 435.08-74.47L431.64-73.72h-1.13L0 0H-83.55 416.54-80.52.0L399.13-80.9h-.75L0 0H-86.2 389.32l-1.13-1.14L387.82.0H-91.12 380.64 139.46l-1.13-1.14L136.05.0l-.75-.75L131.89-13.97h-1.13L129.24-15.11H127.35L109.97-15.49h-1.89L107.7-13.22h-.75L72.18.0H41.93l-.75.75L40.8.0H40.42l-.75.76L39.29.0H39.66 27.96 28.33l-.75 18.53L27.96.0H26.82 288 287.24l-1.13 1.13L286.87.0H285.36l-1.13 1.13L284.99.0H277.81l-1.13 1.13L277.44.0l-1.13 1.14L276.68.0H0 267.97 32.51 267.59 32.88 267.22 35.9 264.2 36.27 263.44 36.65h225.8-27.76l-1.13 1.14L232.8.0H233.17h-9.44l-.75.75H0 221.46l-.75-3.76h-.75L218.45.0l-.75-.75L210.88.0l-1.13-1.14L209.37.0l-1.13-1.13L196.9.0l-.75-.76L192-6.8h-1.13l-15.12-3.4L175 0 166.68-10.96h-.75L164.41-11.72h-.75L163.28-12.47h-.75L161.39-14.36h-.75L155.34-15.12h-.75L153.45-16.63h-.75l-3.03 15.5h-.75L140.6.0l-.75-.76L138.33-2.65h-.75L136.82-3.78h3.41L143.24-4.54h4.16L152.69-6.8h1.13l12.1-2.27h.75l6.81-1.51h.75l3.03-2.27h.75L181.79.0H184.81l.75-.75L187.08.0l.75-.76L188.97.0l.75-18.14L191.24.0l1.13-1.13L192.75.0H195.02l.75-21.54L196.15.0H196.53l.75-22.67L197.66.0H197.28 209-34 210.88-36.27 212.77-38.53 215.04l.75-41.94L0 0H215.8-42.32 218.84-47.24 219.21-48 219.59-48.75 219.96-49.13 220.72-52.91 222.23-53.66 222.6-54.04 224.13 223.75l.75-57.45L0 0H-58.2 225.65-60.48h286.5H-61.23 226.39h-288H227.53-63.12 227.91-63.88 229.43-66.16 229.81-66.91h298.6H-68.8 232.08-69.56 232.46l4.16-4.16L236.24.0H236.62l4.91-4.91L241.91.0H-79.76h322.8l1.13-1.14L244.55.0H-81.27 246.44-83.16 247.58-84.68 249.09-85.06 250.23-85.82 251.36-87.32 96.38l.75-.76L97.52.0l1.14-1.14L102.06.0l1.14-1.13L105.84.0h6.8L113.02-9.84h.75L114.15.0H127L127.38-16.26h.75L128.51-17.02h.75L130.4-17.77h.75L132.67-18.53h.75L134.56-20.04h.75l4.16-1.13h1.13L143.63-21.55h1.13L145.14-24.95h3.03L165.17-25.71h20.41L190.5-24.57h1.13L195.79-24.2h.75L196.92-23.06h.75L201.08.0"/></g></svg>