<svg xmlns="http://www.w3.org/2000/svg" viewBox="0 0 500.02402 450.02163">
  <g
    fill="var(--logo-fill, currentColor)"
    stroke="var(--logo-stroke, currentColor)"
    style="display:inline"
  >
    <path
      d="m34.02 111.87.75-.75v-.38l.38-.38v-.38l.38-.37h.38v-.38l.37-.38v-.38l.38-.38h.38v-.37l.38-.38v-.38l.38-.38h.37v-.38l.76-.75v-.38h.38v-.38l1.51-1.51v-.38l.38-.37h.37v-.38l.38-.38h.38v-.38l1.51-1.51v-.38h.38l1.51-1.51v-.38h.38l2.27-2.27h.38v-.37l.37-.38h.38l.38-.38v-.38h.38l1.51-1.51h.38v-.38h.38l.75-.75h.38v-.38l.38-.38h.38l1.13-1.13h.38l1.13-1.14h.38l.38-.37h.37v-.38l.38-.38h.38l.38-.38h.38v-.38h.37l.38-.37h.38l1.13-1.14h.38l.38-.38h.38l.38-.37h.37v-.38h.38l.38-.38h.38l.75-.76h.38v-.37h.38l.38-.38h.38l.37-.38h.38l.76-.76h.38l.37-.37h.76l.38-.38h.38l.75-.76h.38l.38-.38h.37l.38-.37h.38l.38-.38h.75l.76-.76h.38l.38-.38h.75l.38-.37h.38l.38-.38h.75l.38-.38h.38l.38-.38h.37l.38-.38h.38l.38-.37h.75l.38-.38h.76l.38-.38h.75l.38-.38h.76l.37-.38h.38l.38-.37h.76l.37-.38h.76l.38-.38h.75l.38-.38h.76l.37-.37h1.14l.38-.38h1.13l.38-.38h.38l.37-.38h1.14l.38-.38h1.13l.38-.37h1.51l.38-.38h1.13l.38-.38h1.51l.38-.38h1.89l.38-.38h1.51l.38-.37h1.89l.37-.38h2.65l.38-.38h3.4l.38-.38h5.67l.37-.38h9.83l.38.38h6.05l.37.38h2.65l.38.38h4.91l.38.38.76.37.37.38h2.27l.38.38h1.13l.38.38h.76l.37.38h.76l.38.37h.75l.38.38h1.51l.76.38h.38l.38.38h.75v.38h1.14l.37.37h.76v.38h.76l.37.38h.76l.38.38h.75l.38.37h.38l.38.38h.75l.38.38h.76l.37.38h.76l.38.38h.75l.38.37h.38l.38.38h.75l.38.38h.76l.38.38h.75l.38.38h.38l.38.37h.37l.38.38h.76l.38.38h.75l.38.38h.38l.38.38h.75l.38.37h.76v.38h.37l.38.38h.38l.38.38h.75l.38.38h.38l.38.37h.37l.38.38h.76v.38h.38l.37.38h.38l.38.38h.38l.38.37h.37l.38.38h.38l.76.76h.37l.38.38h.38l.38.37h.38l.75.76h.38l.76.76h.37l.76.75h.38l.75.76h.38v.38h.38l.76.75h.37l1.14 1.13h.38l1.13 1.14h.38l1.13 1.13h.38l.38.38v.38h.37l.38.38h.38v.37l.38.38h.38l.37.38v.38h.38l.76.75h.38v.38l.37.38h.38l1.14 1.13h.37v.38l.38.38h.38l1.51 1.51h.38v.38l.38.38h.38l1.13 1.13h.38v.38l.38.38h.37l1.14 1.13h.37l.38.38v.38h.38l.76.75h.37v.38l.76.38h.38l.38.38v.37l.75.76v.38l.38.38v1.13l-.38.38v.38l-.38.37v.38l-1.51 1.51v.38l-.38.38v.38h-.37l-.38.38v.37l-.38.38v.38h-.38v.38l-.75.75v.38h-.38v.38l-.76.76v.37h-.37v.38l-.76.76v.38h-.38v.37l-.38.38v.38l-.37.38h-.38v.37l-.38.38v.38l-.38.38h-.38v.38l-.37.37v.38l-1.14 1.14v.37l-1.13 1.14v.38l-1.14 1.13v.38l-1.13 1.13v.38l-1.51 1.51v.38l-1.14 1.13v.38l-1.13 1.14v.37l-1.13 1.14v.38l-.38.37v.38h-.38l-.38.38v.38l-.37.37v.38h-.38l-.38.38v.38l-.38.38v.37h-.38l-.37.38v.38l-.38.38v.38h-.38l-.38.37v.38l-.38.38v.38h-.37l-.38.38v.37l-.38.38v.38h-.38l-.38.38v.38l-.37.37v.38h-.38l-.38.38v.38l-.38.38v.37l-1.13 1.14v.38l-1.14 1.13v.38l-.75.75v.38l-1.14 1.14v.37l-.75.76h-.38l-.76.75h-.37l-.38.38h-.38l-.38.38v-.38l-.75-.75v-.38l-.76-.76v-.37l-.75-.76v-.38l-.38-.38v-.37l-1.14-1.14v-.38l-.37-.37v-.38l-.38-.38h-.38v-.38l-.38-.38v-.37l-.38-.38h-.37v-.38l-.38-.38v-.38l-.38-.37h-.38v-.38l-1.51-1.51v-.38h-.38l-.38-.38v-.38h-.37l-.38-.38v-.37l-.38-.38h-.38v-.38l-.38-.38h-.37v-.38l-.38-.37h-.38v-.38l-.38-.38h-.38l-1.13-1.13h-.38v-.38l-.38-.38h-.37l-1.14-1.13h-.38v-.38h-.37l-.76-.76h-.38v-.37h-.37l-.38-.38h-.38l-1.13-1.14h-.38l-.38-.37h-.38l-.75-.76h-.38l-.38-.38h-.38l-.38-.38h-.37l-.38-.37h-.38l-.76-.76h-.37l-.38-.38h-.38l-.38-.38h-.75l-.38-.37h-.38l-.38-.38h-.38l-.37-.38h-.76l-.38-.38h-.38l-.37-.38h-.38l-.38-.37h-.75l-.38-.38h-.38l-.38-.38h-.75l-.38-.38h-.76l-.38-.38h-.75l-.38-.37h-.76l-.37-.38h-.38l-.38-.38h-1.13l-.38-.38h-1.14l-.37-.38h-1.14l-.38-.37h-1.13l-.38-.38h-1.51l-.38-.38h-1.89l-.37-.38h-3.03l-.38-.38h-7.18l-.38.38h-3.02l-.38.38h-1.51l-.38.38h-3.78l-.37.38h-.38v.37l-.38.38h-1.13l-.38.38h-1.14l-.37.38h-1.14l-.38.38h-1.13l-.38.37h-.75l-.38.38h-.76l-.38.38h-1.13l-.38.38h-.75l-.38.38h-.38l-.38.37h-.75l-.38.38h-.76l-.75.76h-.76l-.38.38h-.37l-.38.37h-.76l-.75.76h-.38l-.38.38h-.38l-.38.38h-.37l-.38.37h-.38l-.38.38h-.38l-.37.38h-.38v.38h-.38l-.76.75h-.37v.38h-.38l-.38.38h-.38l-.75.76h-.38l-.38.37v.38h-.38l-.37.38h-.38v.38l-.38.38h-.38l-.38.37v.38h-.37l-.38.38h-.38v.38l-.38.37h-.38v.38l-.37.38h-.38v.38l-.38.38h-.38v.37l-2.27 2.27v.38h-.37l-.38.38v.38l-.38.37v.38h-.38l-.38.38v.38l-.37.38v.37h-.38l-.38.38v.38l-.38.38v.38l-.75.75v.38l-.38.38v.38l-.76.75v.38h-.38v.38l-.37.38v.37l-.38.38v.38l-.38.38v.75l-.38.38v.38l-.38.38v.37l-.37.38v.38l-.38.38v.38l-.38.37v.76l-.38.38v.75l-.75.76v1.13l-.38.38v.76l-.38.38v1.13l-.38.38v1.51l-.37.38v2.27l-.38.37v10.21l.38.38v2.26l.37.38v1.89l.38.38v1.51l.38.38v1.13l.38.38v1.13l.38.38v.76l.37.38v.75l.38.38v.76l.38.37v.76l.38.38v.75l.37.38v.38l.38.38v.38l.38.37v.76l.38.38v.38h.38v.37l.37.38v.38l.38.38v.75l.76.76v.38l.75.75v.38l.76.76v.37l.38.38v.38h.38v.38l.75.75v.38h.38v.38l1.13 1.13v.38l.38.38h.38v.38l4.54 4.53h.37v.38l.38.38h.38l.38.38v.38h.38l1.13 1.13h.38l.37.38v.38h.38l.38.37h.38l.38.38v.38h.37l.38.38h.38l.76.75h.37l.76.76h.38v.38h.38l.37.37h.38l.38.38h.38v.38h.38l.37.38h.38l.38.38h.38l.38.37h.37v.38h.38l.38.38h.38l.38.38h.37l.38.38h.38l.76.75h.75l.38.38h.38l.38.38h.37l.38.38h.76l.37.37h.38l.38.38h.76v.38h.37l.38.38h.76l.38.38h.37l.38.37h.76l.38.38h.37l.38.38h.76l.38.38h.37v.38h.76l.38.37h.38l.37.38h.76l.38.38h.38l.37.38h.76l.76.75h.75l.38.38h.75l.38.38h.38l.38.38h.75v.38h.38l.38.37h.76l.37.38h.76l.38.38h.38l.37.38h.76l.38.37h.38l.37.38h.76l.38.38h.38l.37.38h.76l.38.38h.75l.38.37h.38l.38.38h.75l.38.38h.76l.38.38h.75l.38.38h.75l.38.37h.76l.38.38h.37l.38.38h.76l.38.38h.75l.38.38h.76l.37.37h.76l.38.38h.38l.37.38h.76l.38.38h.75l.38.38h.38l.38.37h.75l.38.38h.38l.38.38h.75l.38.38h.76l.38.38h.75l.38.37h.38l.37.38h.38l.38.38h.38l.38.38h.75l.38.38h.76l.37.37h.38l.38.38h.76l.37.38h.38v.38h.76l.38.38h.37l.38.37h.76l.38.38h.37l.38.38h.38l.38.38h.38l.37.38h.38l.38.37h.38l.38.38h.75l.38.38h.38v.38h.37l.38.37h.76l.38.38h.37l.38.38h.38v.38h.38l.38.38h.37l.38.37h.76l.38.38h.37v.38h.38l.38.38h.38l.38.38h.37l.76.75h.38l.38.38h.37l.38.38h.38v.38h.38l.38.37h.37l.38.38h.38l.76.76h.37l.38.38h.38l.76.75h.37l1.14 1.14h.37l.38.37h.38v.38h.38l.38.38h.37l.38.38v.38h.38l.38.37h.38l1.51 1.52h.38l.37.37v.38h.38l.38.38h.38l.38.38v.37h.37l1.52 1.52h.37l.38.37v.38h.38l1.51 1.51h.38l.38.38v.38h.38l3.4 3.4h.37v.38l.38.38h.38v.38l.76.75h.37v.38l.38.38h.38v.38l3.4 3.4v.38h.38v.37l1.51 1.51v.38h.38l.38.38v.38l1.13 1.13v.38l.38.38h.38v.38l.38.37v.38h.37l.38.38v.38l.38.38v.37h.38v.38l.75.76v.38h.38v.37l.38.38v.38l1.13 1.13v.38l.38.38v.38h.38v.38l.38.37v.38l.37.38v.38l.76.75v.38l.38.38v.38l.38.38v.37h.37v.38l.38.38v.38l.38.37v.76l.76.76v.37l.37.38v.38l.38.38v.75l.38.38v.38l.38.38v.38l.38.37v.38l.37.38v.76l.38.37v.76l.38.38v.38l.38.37v.76l.38.38v.75l.37.38v.76l.38.38v.75l.38.38v1.13l.38.38v1.13l.38.38v1.14l.37.37v1.14l.38.38v1.51l.38.38v1.51l.38.38v1.51l.38.38v1.51l.37.38v2.64l.38.38v3.02l.38.38v5.29l.38.38v7.56l-.38.38v5.29l-.38.38v3.02l-.38.38v2.27l-.37.37v1.89l-.38.38v1.51l-.38.38v1.51l-.38.38v1.13l-.38.38v1.51l-.37.38v.76l-.38.38v.75l-.38.38v.76l-.38.37v.76l-.38.38v.75l-.37.38v.76l-.38.38v.37l-.38.38v.38l-.38.38v.75l-.38.38v.76l-.37.37v.76l-.38.38v.38h-.38v.75l-.38.38v.38l-.38.38v.75l-.75.76v.38l-.38.37v.76l-.38.38v.38l-.75.75v.38l-.38.38v.75l-.76.76v.38l-.38.38v.37l-.75.76v.38l-.38.38v.37l-.38.38v.38h-.38v.38l-.37.38v.37l-.76.76v.38l-.75.75v.38h-.38v.38l-.38.38v.37l-.38.38h-.38v.38l-.37.38v.38l-1.14 1.13v.38h-.38v.38l-.75.75v.38h-.38l-.38.38v.38l-1.51 1.51v.38h-.38l-.38.37v.38l-.37.38h-.38v.38l-4.92 4.91h-.37v.38l-.38.38h-.38l-.38.37v.38h-.37l-1.52 1.51h-.37l-1.14 1.14h-.38v.38l-.37.37h-.38l-.38.38h-.38v.38l-.38.38h-.37l-.38.38h-.38v.37l-.38.38h-.38l-.37.38h-.38v.38l-.38.38h-.38l-.38.37h-.37l-1.14 1.14h-.38l-.37.38h-.38v.37h-.38l-.38.38h-.38l-.37.38h-.38v.38h-.38l-.38.38h-.38l-.37.37h-.38v.38h-.38l-.38.38h-.37l-.38.38h-.38l-.38.38h-.38v.37h-.37l-.38.38h-.38l-.38.38h-.38l-.75.75h-.76l-.38.38h-.37l-.38.38h-.38l-.38.38h-.38l-.37.38h-.38l-.38.37h-.38l-.38.38h-.75l-.38.38h-.38v.38h-.75l-.38.38h-.76l-.38.37h-.37l-.38.38h-.76l-.38.38h-.75l-.38.38h-.38l-.37.38h-.76l-.38.37h-.75l-.38.38h-1.14l-.37.38h-.76l-.38.38h-1.13l-.38.38h-1.13l-.38.37h-1.14l-.37.38h-1.14l-.38.38h-1.13l-.38.38h-1.51l-.38.38h-1.51l-.38.37h-1.89l-.37.38h-1.89l-.38.38h-1.89l-.38.38h-2.65l-.37.38h-3.03l-.38.37h-4.53l-.38.38h-16.63l-.38-.38h-3.78l-.37-.37h-2.65l-.38-.38h-2.27l-.37-.38h-1.89l-.38-.38h-1.51l-.38-.38h-1.51l-.38-.37h-1.51l-.38-.38h-1.13l-.38-.38h-1.51l-.38-.38h-1.14l-.37-.38h-.76l-.38-.37h-1.13l-.38-.38h-.76l-.37-.38h-.76l-.38-.38h-.75l-.38-.38h-.76l-.37-.37h-1.14l-.38-.38h-.75l-.38-.38h-.38l-.38-.38h-.37l-.38-.38h-.76l-.38-.37h-.75l-.38-.38h-.76l-.75-.76h-.76l-.38-.38h-.37l-.38-.37h-.76l-.38-.38h-.37l-.38-.38h-.38l-.38-.38h-.38l-.37-.38h-.38l-.38-.37h-.75v-.38h-.38l-.38-.38h-.38l-.38-.38h-.37l-.38-.37h-.38l-.38-.38h-.38l-.37-.38h-.38l-.38-.38h-.38l-.38-.38h-.37v-.37h-.38l-.38-.38h-.38l-.38-.38h-.37l-.76-.76h-.38l-.38-.37h-.37l-.38-.38h-.38v-.38l-.38-.38h-.38l-.37-.38h-.38l-.76-.75h-.38l-.37-.38h-.38l-.38-.38v-.38h-.38l-.37-.37h-.38l-1.14-1.14h-.37l-.76-.75h-.38v-.38h-.38l-.75-.76h-.38v-.38l-.38-.37h-.38l-.37-.38h-.38v-.38l-.38-.38h-.38L48 409.7h-.38l-.38-.38v-.38h-.37l-.38-.37h-.38v-.38l-.76-.76h-.37v-.37l-.38-.38h-.38l-.38-.38v-.38h-.38l-4.15-4.16v-.37h-.38l-.38-.38v-.38h-.38l-.37-.38v-.38l-.38-.37h-.38v-.38l-1.51-1.51v-.38h-.38l-.38-.38v-.38l-.38-.38h-.37v-.37l-.38-.38v-.38h-.38l-.38-.38v-.38l-1.13-1.13v-.38l-1.14-1.13v-.38l-1.13-1.13v-.38l-.38-.38v-.38h-.38v-.37l-.37-.38v-.38l-.38-.38h-.38v-.38l-.38-.37v-.38l-.38-.38v-.38h-.37v-.38l-.38-.37v-.38l-.38-.38v-.38h-.38v-.38l-.38-.37v-.38l-.37-.38v-.38l-.76-.75v-.38l-.38-.38v-.38l-.37-.38v-.37h-.38v-.38l-.38-.38v-.38l-.38-.38v-.75l-.38-.38v-.38h-.37v-.37l-.38-.38v-.76l-.38-.38v-.37l-.38-.38v-.38l-.38-.38v-.38l-.37-.37v-.38l-.38-.38v-.76l-.38-.37v-.38l-.38-.38v-.76l-.38-.37v-.38l-.37-.38v-.76l-.38-.37v-.76l-.38-.38v-.38l-.38-.37v-.76l-.38-.38v-1.13l-.37-.38v-.76l-.38-.37v-.76h-.38v-1.13l-.38-.38v-1.13l-.38-.38v-1.14l-.37-.37v-1.14l-.38-.38v-1.51l-.38-.38v-1.13l-.38-.38v-1.51l-.38-.38v-1.89l-.37-.38v-1.88l-.38-.38v-1.89l-.38-.38v-1.89l-.38-.38v-1.89l-.38-.38v-1.89l-.37-.37v-1.89l-.38-.38v-1.89l-.38-.38v-1.51h55.94v.75l.38.38v.76l.37.38v.75l.38.38v1.13l.38.38v1.14l.38.37v.76l.38.38v1.13l.37.38v1.13l.38.38v1.14l.38.37v.76l.38.38v.75l.38.38v.76l.37.38v.75l.38.38v.38l.38.37v.38l.38.38v.76l.38.37v.38l.37.38v.38l.38.38v.37l.38.38v.38l.38.38v.38l.37.37v.38h.38v.38l.38.38v.38l.38.37v.38l1.13 1.14v.37l.38.38v.38l1.13 1.13v.38l1.14 1.14v.37h.38v.38l1.13 1.13v.38l.38.38h.38v.38l3.78 3.78h.37v.38l.38.37h.38v.38h.38l1.13 1.14h.38l.38.37v.38h.38l.37.38h.38v.38l.38.38h.38l.37.37h.38v.38h.38l.38.38h.38l.75.76h.38l.38.37h.38l.75.76h.38l.38.38h.38l.37.38h.38v.37H96l.38.38h.38l.37.38h.38l.38.38h.76v.38h.37l.38.37h.38l.38.38h.75l.38.38h.38l.38.38h.38l.37.37h.76l.38.38h.75l.38.38h.38l.38.38h.75l.38.38h.76l.37.37h.76l.38.38h.75l.38.38h1.14l.37.38h1.14l.38.38h1.51l.38.37h1.89l.37.38h2.27l.38.38h3.4l.38.38h6.8l.38-.38h3.78l.38-.38h2.26l.38-.38h1.14l.37-.37h1.52l.37-.38h1.14l.38-.38H144l.38-.38h.75l.38-.38h.38l.38-.37h.75l.38-.38h.76l.38-.38h.75l.38-.38h.76l.75-.75h.38l.38-.38h.75l.38-.38h.38l.38-.38h.37l.38-.37h.38v-.38l.38-.38h.38l.37-.38h.38l.38-.38h.38v-.37h.38l.37-.38h.38l.38-.38v-.38h.38l.38-.38h.37l.38-.37v-.38h.38l.38-.38h.38v-.38l.37-.38h.38v-.37l.38-.38h.38l.38-.38v-.38h.37l.38-.38v-.37h.38v-.38l1.89-1.89v-.38l1.13-1.13v-.38h.38v-.38l.38-.38v-.38l.75-.75v-.76l.76-.75v-.38l.38-.38v-.75h.38v-.38l.37-.38v-.76l.38-.37v-.76h.38v-.76l.38-.37v-1.14l.38-.38v-1.13l.37-.38v-1.13l.38-.38v-1.89l.38-.38v-10.96l-.38-.38v-2.64l-.38-.38v-2.65l-.37-.37v-1.14l-.38-.38v-1.13l-.38-.38v-1.13l-.38-.38v-.75l-.38-.38v-.76l-.37-.38v-.75l-.38-.38v-.38l-.38-.38v-.37l-.38-.38v-.38l-.38-.38v-.38l-.37-.37v-.76h-.38v-.38l-.38-.38v-.37l-.38-.38v-.38h-.37v-.38l-.76-.75v-.38h-.38v-.38l-.38-.38v-.38h-.37l-.38-.37v-.38l-1.14-1.14v-.37h-.37v-.38l-.38-.38h-.38v-.38l-.38-.37h-.38v-.38l-.37-.38h-.38v-.38l-.38-.38h-.38l-.38-.37v-.38h-.37l-.38-.38v-.38h-.38l-1.13-1.13h-.38l-.38-.38v-.38h-.38l-.38-.38h-.37l-1.14-1.13h-.38v-.38h-.37l-.38-.38h-.38l-.38-.37h-.37v-.38l-.38-.38h-.38l-.38-.38h-.38l-.75-.75h-.38l-.38-.38h-.38l-.37-.38h-.38l-.76-.76h-.38l-.37-.37h-.38l-.38-.38h-.38l-.38-.38h-.37v-.38H144l-.38-.38h-.38l-.37-.37h-.38l-.38-.38h-.38l-.38-.38h-.37l-.76-.75h-.76l-.37-.38h-.38l-.38-.38h-.76l-.37-.38h-.76l-.38-.38h-.37v-.37h-.76l-.38-.38h-.75l-.38-.38h-.76l-.38-.38h-.75l-.38-.38h-.38l-.38-.37h-.37l-.38-.38h-.76l-.38-.38h-.75l-.38-.38h-.38l-.38-.38h-.75l-.38-.37h-.38l-.38-.38h-.75l-.38-.38h-.76l-.37-.38h-.38l-.38-.38h-.76l-.37-.37h-.76l-.38-.38h-.37l-.38-.38h-.76l-.38-.38h-.37l-.38-.38h-.76l-.38-.37h-.75l-.38-.38h-.76v-.38h-.37l-.38-.38h-.76l-.38-.38h-.75l-.38-.37h-.76l-.37-.38h-.38l-.38-.38h-.76v-.38h-.75l-.38-.38h-.38l-.38-.37h-.75l-.38-.38h-.75l-.38-.38h-.38l-.38-.38h-.38l-.37-.38h-.76l-.38-.37h-.38l-.37-.38h-.76l-.38-.38h-.38l-.37-.38h-.38l-.38-.37h-.76l-.37-.38h-.38l-.38-.38h-.76l-.37-.38h-.38l-.38-.38h-.38l-.38-.37h-.37l-.38-.38h-.76l-.38-.38h-.37l-.38-.38h-.38l-.38-.38h-.38l-.37-.37h-.38l-.38-.38h-.75l-.38-.38h-.38l-.76-.76h-.75l-.38-.37h-.38l-.38-.38h-.37l-.76-.76h-.76l-.37-.38h-.38l-.38-.37h-.38l-.75-.76h-.38l-.38-.38h-.76l-.37-.38h-.38l-.76-.75h-.75l-.38-.38h-.38l-.38-.38h-.38l-.37-.38h-.38v-.37h-.38l-.38-.38h-.75l-.38-.38h-.38l-.38-.38h-.37v-.38h-.38l-.38-.37h-.38l-.38-.38h-.37l-.38-.38h-.38v-.38h-.38l-.38-.38h-.37l-.38-.37h-.38l-.38-.38h-.38v-.38h-.37l-.38-.38h-.38l-.38-.37h-.38l-.75-.76h-.38l-.38-.38h-.38l-.37-.38h-.38v-.37h-.38l-.38-.38h-.38l-.75-.76h-.38v-.38h-.38l-.38-.37h-.37l-.38-.38h-.38v-.38l-.38-.38h-.37l-.38-.38h-.38v-.37h-.38l-.75-.76h-.38l-1.14-1.13h-.37l-1.14-1.14h-.38l-1.13-1.13h-.38v-.38l-.38-.38h-.37l-.38-.38H48v-.37l-.38-.38h-.38l-.37-.38v-.38h-.38l-1.51-1.51h-.38v-.38l-.38-.37h-.38l-.38-.38v-.38h-.37l-.38-.38v-.38h-.38l-.76-.75v-.38h-.37l-.38-.38v-.38h-.38l-.75-.75v-.38h-.38l-.38-.38v-.38l-.38-.37h-.38v-.38l-.37-.38h-.38v-.38l-.76-.75v-.38h-.38l-.37-.38v-.38l-.38-.38h-.38v-.37l-.76-.76v-.38h-.37v-.38l-.76-.75v-.38h-.38l-.38-.38v-.38l-.37-.37v-.38h-.38l-.38-.38v-.38l-.38-.38v-.37l-1.13-1.14v-.37l-.38-.38v-.38l-.76-.76v-.37l-.37-.38v-.38l-.38-.38v-.38l-.38-.37h-.38v-.38l-.38-.38v-.38l-.37-.38v-.37l-.38-.38v-.38l-.38-.38v-.38l-.38-.37v-.38l-.38-.38v-.38h-.37v-.38l-.38-.37v-.38l-.38-.38v-.38l-.38-.38v-.75h-.37v-.38l-.38-.38v-.38l-.38-.37v-.76l-.38-.38v-.38h-.38v-.75l-.37-.38v-.38l-.38-.37v-.76l-.38-.38v-.38h-.38v-.75l-.38-.38v-.76l-.37-.37v-.76l-.38-.38v-.75l-.38-.38v-.38h-.38v-1.13l-.38-.38v-.76l-.37-.38v-.75l-.38-.38v-.76l-.38-.37v-1.14l-.38-.38v-.75l-.38-.38v-1.13l-.37-.38v-1.13l-.38-.38v-1.14l-.38-.37v-.38l-.38-.38v-.38l-.38-.38v-3.4l-.37-.38v-3.4l-.38-.38v-4.53l-.38-.38v-3.4h-.76v-9.83l.38-.38v-.37l.38-.38v-3.4l.38-.38v-2.65l.38-.37v-1.89l.37-.38v-.76l.38-.38v-1.89l.38-.37v-1.14l.38-.75v-3.78l.38-.38v-1.13l.37-.38v-1.14l.38-.37v-1.14l.38-.38v-.75l.38-.38v-1.13l.38-.38v-.76l.37-.38v-.75l.38-.38v-.76h.38v-.75l.38-.38v-.76l.38-.37v-.76l.37-.38v-.75l.38-.38v-.38l.38-.38v-.37l.38-.38v-.76l.38-.38v-.37l.37-.38v-.38l.38-.38v-.75h.38v-.38l.38-.38v-.38l.38-.38v-.75l.37-.38v-.38l.76-.75v-.38l.38-.38v-.38l.37-.38v-.37l.38-.38v-.38h.38v-.38l.38-.38v-.37l.38-.38v-.38l.37-.38v-.38h.38v-.37l.38-.38v-.38l.38-.38v-.37l.38-.38h.37v-.38l.38-.38v-.38l.38-.37v-.38l.38-.38h.38v-.38l.37-.38v-.37l1.14-1.14v-.38l.38-.37h.37v-.38h.38z"
    />
    <path
      d="M393.83 68.03h1.51l.38.38h1.51l.38.38h1.51l.38.38h.37l.76.37h.38l.38.38h2.64l.76.76.75.38h1.14l.38.37h.75l.38.38h1.13l.38.38h.76l.37.38h.76l.38.37h.75l.38.38h.76v.38h.75l.38.38h.76l.38.38h.37l.38.37h.76l.38.38h.75l.76.76h.75l.38.38h.38l.38.37h.75l.76.76h.76l.37.38h.38l.38.38h.38l.75.75h.76l.38.38h.37l.38.38h.38v.38h.38l.38.37h.37l.38.38h.38l.76.76h.37l.38.38h.38l.38.37h.38v.38h.37l.38.38h.38l.38.38h.38v.38h.37l.38.37h.38l1.13 1.14h.38l.38.38h.38l1.13 1.13h.38l.38.38h.38v.38h.37l.76.75h.38v.38h.37l.76.75h.38v.38l.38.38h.37l.38.38h.38v.38l.38.37h.38l1.51 1.52h.38l.37.37v.38h.38l1.51 1.51h.38l.38.38V96h.38l1.89 1.89h.38v.38l.37.38h.38v.37l1.51 1.52h.38v.37l3.4 3.41v.37h.38l.38.38v.38h.38l.37.38v.37l.38.38h.38v.38l.76.76h.37v.37l.76.76v.38h.38l.38.38v.37l.37.38h.38v.38l.38.38v.38h.38l.38.37v.38l1.51 1.51v.38h.38v.38l.75.76v.37h.38l.38.38v.38l.38.38v.38l.37.37h.38v.38l.38.38v.38l.38.38h.38v.37l.37.38v.38l.38.38v.37h.38l.38.38v.38l.37.38v.38l.76.75v.38l.38.38v.38l.38.37v.38h.37v.38l.76.76v.75l.38.38v.38h.38v.38l.37.37v.38l.38.38v.38l.38.38v.37l.38.38v.38h.38v.76l.37.37v.38l.38.38v.76l.38.37v.38l.38.38v.38l.38.38v.37l.37.38v.76l.38.37v.76l.38.38v.38l.38.37v.38l.38.38v.76l.37.37v.76l.38.38v.75l.38.38v.76l.38.38v.75l.38.38v.76l.37.37v1.14l.38.38v.75h.38v1.14l.38.37v1.14l.38.38v.75l.37.38v1.51l.38.38v1.13l.38.38v1.13l.38.38v1.51l.38.38v1.89l.37.38v1.89l.38.38v1.89l.38.38v3.02l.38.38v3.4l.37.38v3.78l.38.37v13.23l-.38.38v4.16l-.37.38v2.64l-.38.38v2.27l-.38.37v2.27l-.38.38v1.51l-.37.38v1.51l-.38.38v1.51l-.38.38v1.51l-.38.38v1.13l-.38.38v1.51l-.37.38v.76l-.38.37v1.14l-.38.38v.75l-.38.38v1.13l-.38.38v1.14l-.37.37v.76l-.38.38v1.13l-.38.38v.76l-.38.37v.38l-.38.38v.76l-.37.37v.38l-.38.38v.38l-.38.38v.75l-.38.38v.38l-.38.38v.37l-.37.38v.38l-.38.38v.75l-.38.38v.38l-.76.75v.38l-.37.38v.76l-.38.37v.38l-.76.76v.38l-.38.37v.38l-.37.38v.38l-.76.75v.38l-.38.38v.38l-.38.38v.37h-.37v.38l-.38.38v.38l-.38.38v.37l-1.13 1.14v.38l-.38.37v.38h-.38v.38l-.38.38v.38l-1.13 1.13v.38l-.38.37v.38l-.38.38h-.37v.38l-.38.38v.37l-.38.38h-.38v.38l-.38.38v.38l-.37.37h-.38v.38l-.38.38v.38l-.38.38h-.38v.37l-.75.76v.38h-.38l-.38.38v.37l-.38.38h-.37v.38l-.76.76v.37h-.38l-.38.38v.38l-.37.38h-.38v.38l-1.51 1.51v.38h-.38l-1.51 1.51v.37h-.38l-1.51 1.52v.37h-.38l-2.65 2.65h-.37v.38l-.38.38h-.38l-1.51 1.51h-.38v.38l-.38.37h-.38l-1.51 1.52h-.38l-.37.37v.38h-.38l-1.14 1.14h-.37l-1.52 1.51h-.37l-.38.38h-.38v.37l-.38.38h-.38l-.37.38h-.38v.38h-.38l-.75.75h-.38v.38h-.38l-.38.38h-.38l-1.13 1.13h-.38l-.38.38h-.37l-.76.76h-.38l-.38.37h-.37l-1.14 1.14h-.38l-.37.38h-.38l-.76.75h-.38l-.37.38h-.76l-.38.38h-.38v.38h-.37l-.38.37h-.38l-.38.38h-.38l-.75.76h-.38l-.38.38h-.75l-.38.37h-.38l-.75.76h-.76l-.38.38h-.38l-.37.38h-.76l-.76.75h-.75l-.38.38h-.38l-.38.38h-.75l-.38.38h-.38l-.38.37h-.37l-.38.38h-.76l-.38.38h-.75l-.38.38h-.76l-.37.38h-.76l-.38.37h-.38l-.37.38h-.76l-.38.38h-.75l-.38.38h-1.13l-.38.38h-.76l-.38.37h-1.13l-.38.38h-1.13l-.38.38h-1.13l-.38.38h-1.14l-.37.37h-1.52l-.37.38h-1.52l-.37.38h-1.89l-.38.38h-1.89l-.38.38h-2.27l-.37.37h-2.27l-.38.38h-2.27l-.38.38h-3.02l-.38.38h-3.02l-.38.38h-3.02l-.38.37h-4.54l-.37.38h-26.84l-.38-.38h-12.09V432h-57.83V230.55l.38-.38v-.75l.38-.38v-.76l.38-.37v-.38l.37-.38v-.38l.38-.38v-.37l1.14-1.14v-.38l.75-.75v-.38h.38v-.38l.76-.75v-.38h.37v-.38l.76-.76v-.37h.38v-.38l.75-.76v-.38h.38v-.37l.38-.38v-.38l1.13-1.13v-.38l1.14-1.13v-.38l1.13-1.14v-.37l.38-.38v-.38h.38l.37-.38v-.38l.38-.37v-.38h.38l.38-.38v-.38l.38-.38v-.37l.37-.38h.38v-.38l.38-.38v-.38l1.13-1.13v-.38l1.14-1.13v-.38l.75-.76v-.37l.76-.76v-.38h.38v-.38l.38-.37v-.38l.37-.38h.38v-.38l.38-.37v-.38l.38-.38h.38v-.38l.37-.38v-.37l1.14-1.14v-.38l.38-.37v-.38h.37l.38-.38v-.38l.38-.38v-.37h.38v-.38l.75-.76v-.38h.38v-.37l.76-.76v-.38h.37v-.38l.38-.37v-.38l.38-.38h.38v-.38l.38-.38v-.37l1.13-1.14v-.38l1.13-1.13v-.38l1.14-1.13v-.38l.38-.38v-.37h.37l.38-.38v-.38l.38-.38v-.38l.38-.37h.38v-.38l.37-.38v-.38l.38-.38h.38v-.37l.38-.38v-.38l.38-.38h.37v-.38l.76-.75v-.38h.38l.38-.38v-.38h.37v-.37l3.4-3.41v-.37h.38l.38-.38v-.38h.38l.75-.76v-.37h.38l.38-.38v-.38h.38l.38-.38v-.38h.37l.76-.75v-.38h.38l2.27-2.27h.37v-.37l.76-.76h.38v-.38l.38-.38h.37l.38-.37v-.38l.38-.38h.38l.38-.38v-.38h.37l.76-.75v-.38h.38l.75-.76v-.37h.38l1.51-1.52v86.18h30.24l.38-.38h10.96l.38-.38h4.15l.38-.38h2.65l.37-.37h2.27l.38-.38h2.27l.38-.38h1.51l.38-.38h1.89l.37-.38h1.14l.38-.37h1.13l.38-.38h.38l.37-.38h.76l.38-.38h1.13l.38-.38h.38l.37-.37h.76l.38-.38h.75l.38-.38h.76l.75-.76h.76l.38-.37h.38l.37-.38h.76l.38-.38h.38v-.38h.37l.38-.38h.38l.38-.37h.38l.37-.38h.38l.38-.38h.38l.38-.38h.37l1.14-1.13h.38l.37-.38h.38l.76-.75h.37l1.14-1.14h.38l1.13-1.13h.38l.38-.38v-.38h.37l1.52-1.51h.37v-.38l.38-.38h.38v-.37l.38-.38h.38l.37-.38v-.38l.38-.38h.38v-.37l.38-.38h.38v-.38l.75-.76v-.37h.38l.38-.38v-.38l.38-.38v-.38h.37l.38-.37v-.38l.38-.38v-.38l.38-.38h.38v-.37l.37-.38v-.38l.76-.76v-.37h.38v-.38l.38-.38v-.38l.37-.37v-.38l.38-.38v-.38l.38-.38v-.37l.38-.38v-.38l.37-.38v-.38l.38-.37v-.38l.76-.76v-.38l.38-.37v-.38l.37-.38v-.76l.38-.37v-.38l.38-.38v-.76l.38-.37v-.38l.38-.38v-.76l.37-.37v-.76l.38-.38v-.75h.38v-1.14l.38-.37v-.76l.38-.38v-1.13l.37-.38v-1.13l.38-.38v-1.51l.38-.38v-1.89l.38-.38v-3.02l.38-.38v-8.69l-.38-.38v-2.65l-.38-.38v-1.89l-.38-.37v-1.52l-.38-.37v-1.14l-.37-.38v-1.13l-.38-.38v-.75h-.38v-.76l-.38-.38v-.75l-.38-.38v-.76l-.37-.37v.37l-.38-1.51v-.75h-.38v-.38l-.38-.38v-.38l-.38-.38v-.75l-.37-.38v-.38l-.38-.38v-.37l-.38-.38v-.38l-.76-.76v-.37l-.37-.38v-.38l-.38-.38v-.38l-.76-.75v-.38l-.75-.76v-.37l-.76-.76v-.38l-.38-.37v-.38l-1.13-1.14v-.37l-.38-.38v-.38l-1.13-1.13v-.38l-.76-.76v-.38h-.38l-.37-.37v-.38l-.38-.38v-.38h-.38l-.38-.38v-.37l-.38-.38h-.37V144l-1.52-1.51h-.37v-.38l-2.27-2.27h-.38v-.38l-.38-.37h-.38l-1.13-1.14h-.38v-.38l-.38-.37h-.37l-.38-.38h-.38v-.38h-.38l-.75-.75h-.38v-.38h-.38l-.38-.38h-.37l-.76-.76h-.38l-.38-.37h-.37l-.76-.76h-.38l-.38-.38h-.37l-.38-.38h-.38l-.38-.37h-.38l-.37-.38h-.38l-.38-.38h-.38l-.38-.38h-.37l-.38-.38h-.76l-.38-.37h-.37l-.38-.38h-.76l-.38-.38h-.75l-.38-.38h-.75l-.38-.38h-.76l-.38-.37h-1.13l-.38-.38h-1.13l-.38-.38h-1.13l-.38-.38h-1.89l-.38-.38h-1.89l-.38-.37h-3.4l-.38-.38h-13.98l-.38.38h-3.02l-.38.37h-2.27v.38h-1.89l-.38.38h-1.51l-.38.38h-1.51l-.38.38h-1.13l-.38.37h-1.13v.38h-.76l-.38.38h-1.13l-.38.38h-.75l-.38.38h-.76v.37h-.75l-.38.38h-.76l-.37.38h-.76l-.38.38h-.38l-.37.38h-.76l-.38.37h-.38l-.37.38h-.76l-.76.76h-.75l-.38.38h-.38l-.38.37h-.37l-.38.38h-.38l-.38.38h-.38l-.37.38h-.38l-.76.75h-.38l-.37.38h-.76l-.38.38h-.38v.38h-.37l-.38.37h-.38l-.38.38h-.37l-1.14 1.14h-.38l-.37.37h-.38v.38h-.38l-.38.38h-.38l-.37.38h-.38v.38l-.38.37h-.38l-.38.38h-.37l-1.14 1.14h-.38l-.37.37h-.38v.38h-.38l-.76.76h-.37l-.38.38v.37h-.38l-.38.38h-.38l-.37.38v.38h-.38l-.76.75h-.38l-.37.38v.38h-.38l-.38.38h-.38l-.38.38v.37h-.37l-.76.76h-.38v.38l-.75.75h-.38l-.38.38v.38h-.38l-.75.76h-.38v.37l-.38.38h-.38l-.37.38v.38h-.38l-2.65 2.64h-.38v.38l-.37.38h-.38v.38l-.38.37h-.38l-.38.38v.38l-.37.38h-.38v.38l-.38.37h-.38l-.38.38v.38l-.37.38h-.38v.38l-1.51 1.51v.38h-.38l-.38.37v.38l-.38.38h-.37v.38l-1.14 1.13v.38l-.38.38h-.37v.38l-1.52 1.51v.37l-1.13 1.14v.38h-.38v.37l-.75.76v.38h-.38l-.38.38v.37l-.38.38v.38h-.38l-.37.38v.38l-.38.37v.38H288l-.38.38v.38l-.38.38v.37h-.37l-.38.38v.38l-.38.38v.38l-1.13 1.13v.38l-1.14 1.13v.38l-.38.38v.38h-.37l-.38.37v.38l-.38.38v.38l-1.13 1.13v.38l-1.14 1.13v.38l-.37.38v.38h-.38v.37l-.76.76v.38l-1.13 1.13v.38l-.38.38v.38h-.38l-.38.37v.38l-.37.38v.38l-1.14 1.13v.38l-.38.38v.38h-.37l-.38.37v.38l-.38.38v.38l-1.13 1.13v.38l-1.14 1.13v.38l-.38.38v.38h-.37l-.38.38v.37l-.38.38v.38h-.38l-.38.38v.37l-.37.38v.38h-.38l-.38.38v.38l-.38.37v.38h-.38l-.37.38v.38l-.38.38v.37h-.38l-.38.38v.38l-1.13 1.13v.38l-1.13 1.14v.37l-.38.38h-.38v.38l-.76.76v.37h-.37v.38l-1.52 1.51v.38l-.37.38h-.38v.38l-.38.38v.37h-.38l-.38.38v.38l-.37.38h-.38v.37l-1.51 1.52v.37h-.38l-.38.38v.38l-.38.38h-.38v.38l-1.51 1.51v.38h-.38l-.37.37v.38l-.38.38h-.38v.38l-1.51 1.51v.38h-.38l-.38.38v.37h-.37l-.38.38v.38l-.38.38h-.38v.38l-.38.37h-.37v.38l-.76.76h-.38v.38l-.38.37h-.37v.38l-1.52 1.51h-.37v.38l-.38.38h-.38v.38l-.38.37h-.38l-.37.38v-.62l-.38 1.38H240l-.38.38v.37h-.38l-.37.38v.38h-.38l-1.51 1.51h-.38v.38l-.38.38h-.38l-.38.38v.37h-.37l-1.52 1.52h-.37v.37l-.38.38h-.38l-1.13 1.14h-.38v.37l-.38.38h-.38l-.37.38v.38h-.38l-.38.38h-.38l-.38.37v.38h-.37l-.76.76h-.38v.38h-.38l-1.13 1.13h-.38l-1.51 1.51h-.38l-.38.38h-.37v.38h-.38l-.76.75h-.38v.38h-.37l-.76.76h-.38l-.75.75v.38h-.38l-1.14 1.13h-.37l-.38.38h-.38l-.75.76-1.52-1.51h-.37v-.38l-.38-.38h-.38l-.38-.38v-.38h-.38l-1.51-1.51h-.38v-.38l-.37-.37h-.38l-.38-.38v-.38h-.38l-.75-.75h-.38v-.38h-.38l-1.13-1.14h-.38l-1.14-1.13h-.37l-1.14-1.13h-.38l-.37-.38h-.38v-.38l-.38-.38h-.38l-.37-.38h-.38v-.37h-.38l-.76-.76h-.37l-.76-.76h-.38l-.38-.37h-.37v-.38h-.38l-.38-.38h-.38l-1.13-1.13h-.38l-.38-.38h-.38l-.75-.76H192l-.38-.38h-.38l-.37-.37h-.38v-.38h-.38l-.38-.38h-.38l-.37-.38h-.38l-.76-.75h-.38l-.37-.38h-.76l-.76-.76h-.37l-.38-.38h-.38l-.38-.37h-.37l-.76-.76h-.76l-.37-.38h-.38l-.38-.37h-.38v-.38h-.38l-.37-.38h-.76l-.38-.38h-.38l-.37-.38h-.38v-.37h-.38l-.38-.38h-.75l-.38-.38h-.38l-.38-.38h-.75v-.38h-.38l-.38-.37h-.38l-.38-.38h-.75l-.38-.38h-.38l-.38-.38h-.37l-.38-.38h-.38l-.38-.37h-.75l-.38-.38h-.38l-.38-.38h-.75l-.76-.76h-.75l-.38-.37h-.38l-.38-.38h-.75l-.38-.38h-.76l-.38-.38h-.37v-.38h-.76l-.38-.37h-.38l-.37-.38h-.76l-.38-.38h-.75l-.38-.38h-.38l-.38-.38h-.75l-.38-.37h-.38l-.38-.38h-.38l-.37-.38h-.76l-.38-.38h-.75l-.38-.38h-.76l-.37-.37h-.38l-.38-.38h-.76l-.37-.38h-.38l-.38-.38h-.76l-.37-.38h-.38l-.38-.37h-.76l-.37-.38H144l-.38-.38h-.38l-.37-.38h-.76l-.38-.37h-.75l-.38-.38h-.76l-.75-.76h-.76l-.38-.38h-.75l-.38-.37h-.76l.38-.38h2.65l.37-.38h3.41l.37-.38h4.54l.38-.38h4.16l.37-.37h2.65l.38-.38h2.26l.38-.38h1.89l.38-.38h1.51l.38-.38h1.51l.38-.37h1.13l.38-.38h1.14l.37-.38h1.14l.37-.38h1.14l.38-.38h.37l.38-.37h.76l.38-.38h.75l.38-.38h.76l.37-.38h.76l.76-.75h.75l.38-.38h.76l.37-.38h.38l.38-.38h.38l.38-.38h.37l.38-.37h.38l.38-.38h.75v-.38h.38l.38-.38h.38l.38-.38h.37l.38-.37h.38v-.38h.38l.37-.38h.38l.38-.38h.38l.75-.75h.38l.38-.38h.38l.75-.76h.38l.76-.75h.38l.75-.76h.38l1.13-1.13h.38l.38-.38h.38l.38-.38v-.38h.37l.76-.75h.38v-.38h.38l.75-.76h.38l.38-.37v-.38h.38l.75-.76h.38v-.38l.38-.37h.38l1.51-1.52h.37l.38-.37v-.38h.38l1.89-1.89h.38v-.38l.38-.38h.37l.38-.38v-.37h.38l1.51-1.51v-.38h.38l2.65-2.65v-.38h.37l1.52-1.51v-.38h.37l.38-.37v-.38l.38-.38h.38v-.38l1.51-1.51v-.38h.38l.37-.38v-.37l.38-.38h.38v-.38l1.51-1.51v-.38h.38l.38-.38v-.38l.38-.37h.37v-.38l1.14-1.14v-.37l1.51-1.51v-.38h.38v-.38l.75-.76v-.37h.38l.38-.38v-.38l1.13-1.13v-.38l1.14-1.14v-.37l1.13-1.14v-.38h.38v-.37l.76-.76v-.38h.37v-.38l.76-.75v-.38h.38v-.38l.38-.38v-.37l.37-.38h.38v-.38l.38-.38v-.38l.38-.37h.37v-.38l.38-.38v-.38l1.14-1.13v-.38l.75-.75v-.38l1.14-1.14v-.37l.75-.76v-.38h.38v-.38l.38-.37v-.38l.38-.38h.37v-.38l.38-.38v-.37l1.14-1.14v-.38l.75-.75v-.38l.76-.76v-.37h.38v-.38l.75-.76v-.38l.76-.75v-.38l.75-.76v-.37h.38v-.38l.76-.76v-.37h.38l.37-.38v-.38l.38-.38v-.38h.38l.38-.37v-.38l.38-.38v-.38h.37l.38-.38v-.37l1.13-1.14v-.38l.38-.37h.38v-.38l.76-.76v-.38h.37v-.37l1.52-1.52v-.37l.37-.38h.38v-.38l.38-.38v-.38h.38l.38-.37v-.38l.37-.38h.38v-.38l1.51-1.51v-.38h.38l.38-.38v-.37h.38l.38-.38v-.38l.37-.38h.38v-.37l4.16-4.16v-.38h.38l4.91-4.91h.38v-.38l.38-.38h.37l.38-.38v-.38h.38l.38-.37v-.38h.38l1.13-1.14h.38l.38-.37v-.38h.37l1.52-1.51h.37v-.38l.38-.38h.38l.38-.38h.38v-.37l.37-.38h.38l.38-.38v-.38h.38l.38-.38h.37v-.37l.38-.38h.38l.38-.38h.37v-.38l.38-.38h.38l.38-.37h.38v-.38l.37-.38h.38l.38-.38h.38v-.38l.38-.37h.37l.38-.38h.38V96h.38l.75-.76h.38v-.37h.38l.38-.38h.38l1.13-1.14h.38l.38-.37h.37l1.14-1.14h.38l.37-.38h.38v-.37h.38l.38-.38h.38l.37-.38h.38l1.14-1.13h.37l.38-.38h.38l.38-.38h.37v-.38h.38l.38-.37h.38l.38-.38h.37l.38-.38h.38v-.38h.38l.38-.38h.37l.38-.37h.38l.38-.38h.38l.37-.38h.38v-.38h.38l.38-.38h.75l.38-.37h.38l.38-.38h.38l.37-.38h.38l.76-.76h.38l.37-.37h.76l.38-.38h.38l.37-.38h.38l.38-.38h.38l.37-.38h.38l.38-.37h.38l.38-.38h.37l.38-.38h.76l.38-.38h.37l.38-.38h.76l.38-.37h.37v-.38h.76l.38-.38h.75l.38-.38h.38l.38-.38h.75l.38-.37h.76l.38-.38h.75l.38-.38h.38l.38-.38h.75l.38-.38h.76l.37-.37h1.14l.37-.38h.76l.38-.38h.75l.38-.38h1.14l.37-.38h.76l.38-.37h1.13l.38-.38h1.13l.38-.38h1.14l.37-.38h1.52l.37-.37h1.52l.37-.38h1.52l.37-.38h1.51l.38-.38h1.89l.38-.38h2.27l.38-.37h2.26l.38-.38h3.03l.37-.38h4.16l.38-.38h20.41l.38.38h1.89l.37.38h1.14l.38.38h1.13l.38.37h.75l.38.38h1.89l.38.38h.38l.38.38h.75l.38.38h.38v1.88z"
    />
  </g>
</svg>
