<svg xmlns="http://www.w3.org/2000/svg" height="11.90682227cm" viewBox="0 0 500.02401766636706 450.0216290902887" width="13.22980213cm"><defs/><g fill="none" id="layer1" stroke="var(--logo-stroke, currentColor)" style="display:inline"><polygon points="34.0157,111.874 34.7717,111.1181 34.7717,110.7402 35.1496,110.3622 35.1496,109.9843 35.5276,109.6063 35.9055,109.6063 35.9055,109.2283 36.2835,108.8504 36.2835,108.4724 36.6614,108.0945 37.0394,108.0945 37.0394,107.7165 37.4173,107.3386 37.4173,106.9606 37.7953,106.5827 38.1732,106.5827 38.1732,106.2047 38.9291,105.4488 38.9291,105.0709 39.3071,105.0709 39.3071,104.6929 40.8189,103.1811 40.8189,102.8031 41.1969,102.4252 41.5748,102.4252 41.5748,102.0472 41.9528,101.6693 42.3307,101.6693 42.3307,101.2913 43.8425,99.7795 43.8425,99.4016 44.2205,99.4016 45.7323,97.8898 45.7323,97.5118 46.1102,97.5118 48.378,95.2441 48.7559,95.2441 48.7559,94.8661 49.1339,94.4882 49.5118,94.4882 49.8898,94.1102 49.8898,93.7323 50.2677,93.7323 51.7795,92.2205 52.1575,92.2205 52.1575,91.8425 52.5354,91.8425 53.2913,91.0866 53.6693,91.0866 53.6693,90.7087 54.0472,90.3307 54.4252,90.3307 55.5591,89.1969 55.937,89.1969 57.0709,88.063 57.4488,88.063 57.8268,87.685 58.2047,87.685 58.2047,87.3071 58.5827,86.9291 58.9606,86.9291 59.3386,86.5512 59.7165,86.5512 59.7165,86.1732 60.0945,86.1732 60.4724,85.7953 60.8504,85.7953 61.9843,84.6614 62.3622,84.6614 62.7402,84.2835 63.1181,84.2835 63.4961,83.9055 63.874,83.9055 63.874,83.5276 64.252,83.5276 64.6299,83.1496 65.0079,83.1496 65.7638,82.3937 66.1417,82.3937 66.1417,82.0157 66.5197,82.0157 66.8976,81.6378 67.2756,81.6378 67.6535,81.2598 68.0315,81.2598 68.7874,80.5039 69.1654,80.5039 69.5433,80.126 70.2992,80.126 70.6772,79.748 71.0551,79.748 71.811,78.9921 72.189,78.9921 72.5669,78.6142 72.9449,78.6142 73.3228,78.2362 73.7008,78.2362 74.0787,77.8583 74.8346,77.8583 75.5906,77.1024 75.9685,77.1024 76.3465,76.7244 77.1024,76.7244 77.4803,76.3465 77.8583,76.3465 78.2362,75.9685 78.9921,75.9685 79.3701,75.5906 79.748,75.5906 80.126,75.2126 80.5039,75.2126 80.8819,74.8346 81.2598,74.8346 81.6378,74.4567 82.3937,74.4567 82.7717,74.0787 83.5276,74.0787 83.9055,73.7008 84.6614,73.7008 85.0394,73.3228 85.7953,73.3228 86.1732,72.9449 86.5512,72.9449 86.9291,72.5669 87.685,72.5669 88.063,72.189 88.8189,72.189 89.1969,71.811 89.9528,71.811 90.3307,71.4331 91.0866,71.4331 91.4646,71.0551 92.5984,71.0551 92.9764,70.6772 94.1102,70.6772 94.4882,70.2992 94.8661,70.2992 95.2441,69.9213 96.378,69.9213 96.7559,69.5433 97.8898,69.5433 98.2677,69.1654 99.7795,69.1654 100.1575,68.7874 101.2913,68.7874 101.6693,68.4094 103.1811,68.4094 103.5591,68.0315 105.4488,68.0315 105.8268,67.6535 107.3386,67.6535 107.7165,67.2756 109.6063,67.2756 109.9843,66.8976 112.6299,66.8976 113.0079,66.5197 116.4094,66.5197 116.7874,66.1417 122.4567,66.1417 122.8346,65.7638 132.6614,65.7638 133.0394,66.1417 139.0866,66.1417 139.4646,66.5197 142.1102,66.5197 142.4882,66.8976 147.4016,66.8976 147.7795,67.2756 148.5354,67.6535 148.9134,68.0315 151.1811,68.0315 151.5591,68.4094 152.6929,68.4094 153.0709,68.7874 153.8268,68.7874 154.2047,69.1654 154.9606,69.1654 155.3386,69.5433 156.0945,69.5433 156.4724,69.9213 157.9843,69.9213 158.7402,70.2992 159.1181,70.2992 159.4961,70.6772 160.252,70.6772 160.252,71.0551 161.3858,71.0551 161.7638,71.4331 162.5197,71.4331 162.5197,71.811 163.2756,71.811 163.6535,72.189 164.4094,72.189 164.7874,72.5669 165.5433,72.5669 165.9213,72.9449 166.2992,72.9449 166.6772,73.3228 167.4331,73.3228 167.811,73.7008 168.5669,73.7008 168.9449,74.0787 169.7008,74.0787 170.0787,74.4567 170.8346,74.4567 171.2126,74.8346 171.5906,74.8346 171.9685,75.2126 172.7244,75.2126 173.1024,75.5906 173.8583,75.5906 174.2362,75.9685 174.9921,75.9685 175.3701,76.3465 175.748,76.3465 176.126,76.7244 176.5039,76.7244 176.8819,77.1024 177.6378,77.1024 178.0157,77.4803 178.7717,77.4803 179.1496,77.8583 179.5276,77.8583 179.9055,78.2362 180.6614,78.2362 181.0394,78.6142 181.7953,78.6142 181.7953,78.9921 182.1732,78.9921 182.5512,79.3701 182.9291,79.3701 183.3071,79.748 184.063,79.748 184.4409,80.126 184.8189,80.126 185.1969,80.5039 185.5748,80.5039 185.9528,80.8819 186.7087,80.8819 186.7087,81.2598 187.0866,81.2598 187.4646,81.6378 187.8425,81.6378 188.2205,82.0157 188.5984,82.0157 188.9764,82.3937 189.3543,82.3937 189.7323,82.7717 190.1102,82.7717 190.8661,83.5276 191.2441,83.5276 191.622,83.9055 192.0,83.9055 192.378,84.2835 192.7559,84.2835 193.5118,85.0394 193.8898,85.0394 194.6457,85.7953 195.0236,85.7953 195.7795,86.5512 196.1575,86.5512 196.9134,87.3071 197.2913,87.3071 197.2913,87.685 197.6693,87.685 198.4252,88.4409 198.8031,88.4409 199.937,89.5748 200.315,89.5748 201.4488,90.7087 201.8268,90.7087 202.9606,91.8425 203.3386,91.8425 203.7165,92.2205 203.7165,92.5984 204.0945,92.5984 204.4724,92.9764 204.8504,92.9764 204.8504,93.3543 205.2283,93.7323 205.6063,93.7323 205.9843,94.1102 205.9843,94.4882 206.3622,94.4882 207.1181,95.2441 207.4961,95.2441 207.4961,95.622 207.874,96.0 208.252,96.0 209.3858,97.1339 209.7638,97.1339 209.7638,97.5118 210.1417,97.8898 210.5197,97.8898 212.0315,99.4016 212.4094,99.4016 212.4094,99.7795 212.7874,100.1575 213.1654,100.1575 214.2992,101.2913 214.6772,101.2913 214.6772,101.6693 215.0551,102.0472 215.4331,102.0472 216.5669,103.1811 216.9449,103.1811 217.3228,103.5591 217.3228,103.937 217.7008,103.937 218.4567,104.6929 218.8346,104.6929 218.8346,105.0709 219.5906,105.4488 219.9685,105.4488 220.3465,105.8268 220.3465,106.2047 221.1024,106.9606 221.1024,107.3386 221.4803,107.7165 221.4803,108.8504 221.1024,109.2283 221.1024,109.6063 220.7244,109.9843 220.7244,110.3622 219.2126,111.874 219.2126,112.252 218.8346,112.6299 218.8346,113.0079 218.4567,113.0079 218.0787,113.3858 218.0787,113.7638 217.7008,114.1417 217.7008,114.5197 217.3228,114.5197 217.3228,114.8976 216.5669,115.6535 216.5669,116.0315 216.189,116.0315 216.189,116.4094 215.4331,117.1654 215.4331,117.5433 215.0551,117.5433 215.0551,117.9213 214.2992,118.6772 214.2992,119.0551 213.9213,119.0551 213.9213,119.4331 213.5433,119.811 213.5433,120.189 213.1654,120.5669 212.7874,120.5669 212.7874,120.9449 212.4094,121.3228 212.4094,121.7008 212.0315,122.0787 211.6535,122.0787 211.6535,122.4567 211.2756,122.8346 211.2756,123.2126 210.1417,124.3465 210.1417,124.7244 209.0079,125.8583 209.0079,126.2362 207.874,127.3701 207.874,127.748 206.7402,128.8819 206.7402,129.2598 205.2283,130.7717 205.2283,131.1496 204.0945,132.2835 204.0945,132.6614 202.9606,133.7953 202.9606,134.1732 201.8268,135.3071 201.8268,135.685 201.4488,136.063 201.4488,136.4409 201.0709,136.4409 200.6929,136.8189 200.6929,137.1969 200.315,137.5748 200.315,137.9528 199.937,137.9528 199.5591,138.3307 199.5591,138.7087 199.1811,139.0866 199.1811,139.4646 198.8031,139.4646 198.4252,139.8425 198.4252,140.2205 198.0472,140.5984 198.0472,140.9764 197.6693,140.9764 197.2913,141.3543 197.2913,141.7323 196.9134,142.1102 196.9134,142.4882 196.5354,142.4882 196.1575,142.8661 196.1575,143.2441 195.7795,143.622 195.7795,144.0 195.4016,144.0 195.0236,144.378 195.0236,144.7559 194.6457,145.1339 194.6457,145.5118 194.2677,145.5118 193.8898,145.8898 193.8898,146.2677 193.5118,146.6457 193.5118,147.0236 192.378,148.1575 192.378,148.5354 191.2441,149.6693 191.2441,150.0472 190.4882,150.8031 190.4882,151.1811 189.3543,152.315 189.3543,152.6929 188.5984,153.4488 188.2205,153.4488 187.4646,154.2047 187.0866,154.2047 186.7087,154.5827 186.3307,154.5827 185.9528,154.9606 185.9528,154.5827 185.1969,153.8268 185.1969,153.4488 184.4409,152.6929 184.4409,152.315 183.685,151.5591 183.685,151.1811 183.3071,150.8031 183.3071,150.4252 182.1732,149.2913 182.1732,148.9134 181.7953,148.5354 181.7953,148.1575 181.4173,147.7795 181.0394,147.7795 181.0394,147.4016 180.6614,147.0236 180.6614,146.6457 180.2835,146.2677 179.9055,146.2677 179.9055,145.8898 179.5276,145.5118 179.5276,145.1339 179.1496,144.7559 178.7717,144.7559 178.7717,144.378 177.2598,142.8661 177.2598,142.4882 176.8819,142.4882 176.5039,142.1102 176.5039,141.7323 176.126,141.7323 175.748,141.3543 175.748,140.9764 175.3701,140.5984 174.9921,140.5984 174.9921,140.2205 174.6142,139.8425 174.2362,139.8425 174.2362,139.4646 173.8583,139.0866 173.4803,139.0866 173.4803,138.7087 173.1024,138.3307 172.7244,138.3307 171.5906,137.1969 171.2126,137.1969 171.2126,136.8189 170.8346,136.4409 170.4567,136.4409 169.3228,135.3071 168.9449,135.3071 168.9449,134.9291 168.5669,134.9291 167.811,134.1732 167.4331,134.1732 167.4331,133.7953 167.0551,133.7953 166.6772,133.4173 166.2992,133.4173 165.1654,132.2835 164.7874,132.2835 164.4094,131.9055 164.0315,131.9055 163.2756,131.1496 162.8976,131.1496 162.5197,130.7717 162.1417,130.7717 161.7638,130.3937 161.3858,130.3937 161.0079,130.0157 160.6299,130.0157 159.874,129.2598 159.4961,129.2598 159.1181,128.8819 158.7402,128.8819 158.3622,128.5039 157.6063,128.5039 157.2283,128.126 156.8504,128.126 156.4724,127.748 156.0945,127.748 155.7165,127.3701 154.9606,127.3701 154.5827,126.9921 154.2047,126.9921 153.8268,126.6142 153.4488,126.6142 153.0709,126.2362 152.315,126.2362 151.937,125.8583 151.5591,125.8583 151.1811,125.4803 150.4252,125.4803 150.0472,125.1024 149.2913,125.1024 148.9134,124.7244 148.1575,124.7244 147.7795,124.3465 147.0236,124.3465 146.6457,123.9685 146.2677,123.9685 145.8898,123.5906 144.7559,123.5906 144.378,123.2126 143.2441,123.2126 142.8661,122.8346 141.7323,122.8346 141.3543,122.4567 140.2205,122.4567 139.8425,122.0787 138.3307,122.0787 137.9528,121.7008 136.063,121.7008 135.685,121.3228 132.6614,121.3228 132.2835,120.9449 125.1024,120.9449 124.7244,121.3228 121.7008,121.3228 121.3228,121.7008 119.811,121.7008 119.4331,122.0787 115.6535,122.0787 115.2756,122.4567 114.8976,122.4567 114.8976,122.8346 114.5197,123.2126 113.3858,123.2126 113.0079,123.5906 111.874,123.5906 111.4961,123.9685 110.3622,123.9685 109.9843,124.3465 108.8504,124.3465 108.4724,124.7244 107.7165,124.7244 107.3386,125.1024 106.5827,125.1024 106.2047,125.4803 105.0709,125.4803 104.6929,125.8583 103.937,125.8583 103.5591,126.2362 103.1811,126.2362 102.8031,126.6142 102.0472,126.6142 101.6693,126.9921 100.9134,126.9921 100.1575,127.748 99.4016,127.748 99.0236,128.126 98.6457,128.126 98.2677,128.5039 97.5118,128.5039 96.7559,129.2598 96.378,129.2598 96.0,129.6378 95.622,129.6378 95.2441,130.0157 94.8661,130.0157 94.4882,130.3937 94.1102,130.3937 93.7323,130.7717 93.3543,130.7717 92.9764,131.1496 92.5984,131.1496 92.5984,131.5276 92.2205,131.5276 91.4646,132.2835 91.0866,132.2835 91.0866,132.6614 90.7087,132.6614 90.3307,133.0394 89.9528,133.0394 89.1969,133.7953 88.8189,133.7953 88.4409,134.1732 88.4409,134.5512 88.063,134.5512 87.685,134.9291 87.3071,134.9291 87.3071,135.3071 86.9291,135.685 86.5512,135.685 86.1732,136.063 86.1732,136.4409 85.7953,136.4409 85.4173,136.8189 85.0394,136.8189 85.0394,137.1969 84.6614,137.5748 84.2835,137.5748 84.2835,137.9528 83.9055,138.3307 83.5276,138.3307 83.5276,138.7087 83.1496,139.0866 82.7717,139.0866 82.7717,139.4646 80.5039,141.7323 80.5039,142.1102 80.126,142.1102 79.748,142.4882 79.748,142.8661 79.3701,143.2441 79.3701,143.622 78.9921,143.622 78.6142,144.0 78.6142,144.378 78.2362,144.7559 78.2362,145.1339 77.8583,145.1339 77.4803,145.5118 77.4803,145.8898 77.1024,146.2677 77.1024,146.6457 76.3465,147.4016 76.3465,147.7795 75.9685,148.1575 75.9685,148.5354 75.2126,149.2913 75.2126,149.6693 74.8346,149.6693 74.8346,150.0472 74.4567,150.4252 74.4567,150.8031 74.0787,151.1811 74.0787,151.5591 73.7008,151.937 73.7008,152.6929 73.3228,153.0709 73.3228,153.4488 72.9449,153.8268 72.9449,154.2047 72.5669,154.5827 72.5669,154.9606 72.189,155.3386 72.189,155.7165 71.811,156.0945 71.811,156.8504 71.4331,157.2283 71.4331,157.9843 70.6772,158.7402 70.6772,159.874 70.2992,160.252 70.2992,161.0079 69.9213,161.3858 69.9213,162.5197 69.5433,162.8976 69.5433,164.4094 69.1654,164.7874 69.1654,167.0551 68.7874,167.4331 68.7874,177.6378 69.1654,178.0157 69.1654,180.2835 69.5433,180.6614 69.5433,182.5512 69.9213,182.9291 69.9213,184.4409 70.2992,184.8189 70.2992,185.9528 70.6772,186.3307 70.6772,187.4646 71.0551,187.8425 71.0551,188.5984 71.4331,188.9764 71.4331,189.7323 71.811,190.1102 71.811,190.8661 72.189,191.2441 72.189,192.0 72.5669,192.378 72.5669,193.1339 72.9449,193.5118 72.9449,193.8898 73.3228,194.2677 73.3228,194.6457 73.7008,195.0236 73.7008,195.7795 74.0787,196.1575 74.0787,196.5354 74.4567,196.5354 74.4567,196.9134 74.8346,197.2913 74.8346,197.6693 75.2126,198.0472 75.2126,198.8031 75.9685,199.5591 75.9685,199.937 76.7244,200.6929 76.7244,201.0709 77.4803,201.8268 77.4803,202.2047 77.8583,202.5827 77.8583,202.9606 78.2362,202.9606 78.2362,203.3386 78.9921,204.0945 78.9921,204.4724 79.3701,204.4724 79.3701,204.8504 80.5039,205.9843 80.5039,206.3622 80.8819,206.7402 81.2598,206.7402 81.2598,207.1181 85.7953,211.6535 86.1732,211.6535 86.1732,212.0315 86.5512,212.4094 86.9291,212.4094 87.3071,212.7874 87.3071,213.1654 87.685,213.1654 88.8189,214.2992 89.1969,214.2992 89.5748,214.6772 89.5748,215.0551 89.9528,215.0551 90.3307,215.4331 90.7087,215.4331 91.0866,215.811 91.0866,216.189 91.4646,216.189 91.8425,216.5669 92.2205,216.5669 92.9764,217.3228 93.3543,217.3228 94.1102,218.0787 94.4882,218.0787 94.4882,218.4567 94.8661,218.4567 95.2441,218.8346 95.622,218.8346 96.0,219.2126 96.378,219.2126 96.378,219.5906 96.7559,219.5906 97.1339,219.9685 97.5118,219.9685 97.8898,220.3465 98.2677,220.3465 98.6457,220.7244 99.0236,220.7244 99.0236,221.1024 99.4016,221.1024 99.7795,221.4803 100.1575,221.4803 100.5354,221.8583 100.9134,221.8583 101.2913,222.2362 101.6693,222.2362 102.4252,222.9921 103.1811,222.9921 103.5591,223.3701 103.937,223.3701 104.315,223.748 104.6929,223.748 105.0709,224.126 105.8268,224.126 106.2047,224.5039 106.5827,224.5039 106.9606,224.8819 107.7165,224.8819 107.7165,225.2598 108.0945,225.2598 108.4724,225.6378 109.2283,225.6378 109.6063,226.0157 109.9843,226.0157 110.3622,226.3937 111.1181,226.3937 111.4961,226.7717 111.874,226.7717 112.252,227.1496 113.0079,227.1496 113.3858,227.5276 113.7638,227.5276 113.7638,227.9055 114.5197,227.9055 114.8976,228.2835 115.2756,228.2835 115.6535,228.6614 116.4094,228.6614 116.7874,229.0394 117.1654,229.0394 117.5433,229.4173 118.2992,229.4173 119.0551,230.1732 119.811,230.1732 120.189,230.5512 120.9449,230.5512 121.3228,230.9291 121.7008,230.9291 122.0787,231.3071 122.8346,231.3071 122.8346,231.685 123.2126,231.685 123.5906,232.063 124.3465,232.063 124.7244,232.4409 125.4803,232.4409 125.8583,232.8189 126.2362,232.8189 126.6142,233.1969 127.3701,233.1969 127.748,233.5748 128.126,233.5748 128.5039,233.9528 129.2598,233.9528 129.6378,234.3307 130.0157,234.3307 130.3937,234.7087 131.1496,234.7087 131.5276,235.0866 132.2835,235.0866 132.6614,235.4646 133.0394,235.4646 133.4173,235.8425 134.1732,235.8425 134.5512,236.2205 135.3071,236.2205 135.685,236.5984 136.4409,236.5984 136.8189,236.9764 137.5748,236.9764 137.9528,237.3543 138.7087,237.3543 139.0866,237.7323 139.4646,237.7323 139.8425,238.1102 140.5984,238.1102 140.9764,238.4882 141.7323,238.4882 142.1102,238.8661 142.8661,238.8661 143.2441,239.2441 144.0,239.2441 144.378,239.622 144.7559,239.622 145.1339,240.0 145.8898,240.0 146.2677,240.378 147.0236,240.378 147.4016,240.7559 147.7795,240.7559 148.1575,241.1339 148.9134,241.1339 149.2913,241.5118 149.6693,241.5118 150.0472,241.8898 150.8031,241.8898 151.1811,242.2677 151.937,242.2677 152.315,242.6457 153.0709,242.6457 153.4488,243.0236 153.8268,243.0236 154.2047,243.4016 154.5827,243.4016 154.9606,243.7795 155.3386,243.7795 155.7165,244.1575 156.4724,244.1575 156.8504,244.5354 157.6063,244.5354 157.9843,244.9134 158.3622,244.9134 158.7402,245.2913 159.4961,245.2913 159.874,245.6693 160.252,245.6693 160.252,246.0472 161.0079,246.0472 161.3858,246.4252 161.7638,246.4252 162.1417,246.8031 162.8976,246.8031 163.2756,247.1811 163.6535,247.1811 164.0315,247.5591 164.4094,247.5591 164.7874,247.937 165.1654,247.937 165.5433,248.315 165.9213,248.315 166.2992,248.6929 166.6772,248.6929 167.0551,249.0709 167.811,249.0709 168.189,249.4488 168.5669,249.4488 168.5669,249.8268 168.9449,249.8268 169.3228,250.2047 170.0787,250.2047 170.4567,250.5827 170.8346,250.5827 171.2126,250.9606 171.5906,250.9606 171.5906,251.3386 171.9685,251.3386 172.3465,251.7165 172.7244,251.7165 173.1024,252.0945 173.8583,252.0945 174.2362,252.4724 174.6142,252.4724 174.6142,252.8504 174.9921,252.8504 175.3701,253.2283 175.748,253.2283 176.126,253.6063 176.5039,253.6063 177.2598,254.3622 177.6378,254.3622 178.0157,254.7402 178.3937,254.7402 178.7717,255.1181 179.1496,255.1181 179.1496,255.4961 179.5276,255.4961 179.9055,255.874 180.2835,255.874 180.6614,256.252 181.0394,256.252 181.7953,257.0079 182.1732,257.0079 182.5512,257.3858 182.9291,257.3858 183.685,258.1417 184.063,258.1417 185.1969,259.2756 185.5748,259.2756 185.9528,259.6535 186.3307,259.6535 186.3307,260.0315 186.7087,260.0315 187.0866,260.4094 187.4646,260.4094 187.8425,260.7874 187.8425,261.1654 188.2205,261.1654 188.5984,261.5433 188.9764,261.5433 190.4882,263.0551 190.8661,263.0551 191.2441,263.4331 191.2441,263.811 191.622,263.811 192.0,264.189 192.378,264.189 192.7559,264.5669 192.7559,264.9449 193.1339,264.9449 194.6457,266.4567 195.0236,266.4567 195.4016,266.8346 195.4016,267.2126 195.7795,267.2126 197.2913,268.7244 197.6693,268.7244 198.0472,269.1024 198.0472,269.4803 198.4252,269.4803 201.8268,272.8819 202.2047,272.8819 202.2047,273.2598 202.5827,273.6378 202.9606,273.6378 202.9606,274.0157 203.7165,274.7717 204.0945,274.7717 204.0945,275.1496 204.4724,275.5276 204.8504,275.5276 204.8504,275.9055 208.252,279.3071 208.252,279.685 208.6299,279.685 208.6299,280.063 210.1417,281.5748 210.1417,281.9528 210.5197,281.9528 210.8976,282.3307 210.8976,282.7087 212.0315,283.8425 212.0315,284.2205 212.4094,284.5984 212.7874,284.5984 212.7874,284.9764 213.1654,285.3543 213.1654,285.7323 213.5433,285.7323 213.9213,286.1102 213.9213,286.4882 214.2992,286.8661 214.2992,287.2441 214.6772,287.2441 214.6772,287.622 215.4331,288.378 215.4331,288.7559 215.811,288.7559 215.811,289.1339 216.189,289.5118 216.189,289.8898 217.3228,291.0236 217.3228,291.4016 217.7008,291.7795 217.7008,292.1575 218.0787,292.1575 218.0787,292.5354 218.4567,292.9134 218.4567,293.2913 218.8346,293.6693 218.8346,294.0472 219.5906,294.8031 219.5906,295.1811 219.9685,295.5591 219.9685,295.937 220.3465,296.315 220.3465,296.6929 220.7244,296.6929 220.7244,297.0709 221.1024,297.4488 221.1024,297.8268 221.4803,298.2047 221.4803,298.9606 222.2362,299.7165 222.2362,300.0945 222.6142,300.4724 222.6142,300.8504 222.9921,301.2283 222.9921,301.9843 223.3701,302.3622 223.3701,302.7402 223.748,303.1181 223.748,303.4961 224.126,303.874 224.126,304.252 224.5039,304.6299 224.5039,305.3858 224.8819,305.7638 224.8819,306.5197 225.2598,306.8976 225.2598,307.2756 225.6378,307.6535 225.6378,308.4094 226.0157,308.7874 226.0157,309.5433 226.3937,309.9213 226.3937,310.6772 226.7717,311.0551 226.7717,311.811 227.1496,312.189 227.1496,313.3228 227.5276,313.7008 227.5276,314.8346 227.9055,315.2126 227.9055,316.3465 228.2835,316.7244 228.2835,317.8583 228.6614,318.2362 228.6614,319.748 229.0394,320.126 229.0394,321.6378 229.4173,322.0157 229.4173,323.5276 229.7953,323.9055 229.7953,325.4173 230.1732,325.7953 230.1732,328.4409 230.5512,328.8189 230.5512,331.8425 230.9291,332.2205 230.9291,337.5118 231.3071,337.8898 231.3071,345.4488 230.9291,345.8268 230.9291,351.1181 230.5512,351.4961 230.5512,354.5197 230.1732,354.8976 230.1732,357.1654 229.7953,357.5433 229.7953,359.4331 229.4173,359.811 229.4173,361.3228 229.0394,361.7008 229.0394,363.2126 228.6614,363.5906 228.6614,364.7244 228.2835,365.1024 228.2835,366.6142 227.9055,366.9921 227.9055,367.748 227.5276,368.126 227.5276,368.8819 227.1496,369.2598 227.1496,370.0157 226.7717,370.3937 226.7717,371.1496 226.3937,371.5276 226.3937,372.2835 226.0157,372.6614 226.0157,373.4173 225.6378,373.7953 225.6378,374.1732 225.2598,374.5512 225.2598,374.9291 224.8819,375.3071 224.8819,376.063 224.5039,376.4409 224.5039,377.1969 224.126,377.5748 224.126,378.3307 223.748,378.7087 223.748,379.0866 223.3701,379.0866 223.3701,379.8425 222.9921,380.2205 222.9921,380.5984 222.6142,380.9764 222.6142,381.7323 221.8583,382.4882 221.8583,382.8661 221.4803,383.2441 221.4803,384.0 221.1024,384.378 221.1024,384.7559 220.3465,385.5118 220.3465,385.8898 219.9685,386.2677 219.9685,387.0236 219.2126,387.7795 219.2126,388.1575 218.8346,388.5354 218.8346,388.9134 218.0787,389.6693 218.0787,390.0472 217.7008,390.4252 217.7008,390.8031 217.3228,391.1811 217.3228,391.5591 216.9449,391.5591 216.9449,391.937 216.5669,392.315 216.5669,392.6929 215.811,393.4488 215.811,393.8268 215.0551,394.5827 215.0551,394.9606 214.6772,394.9606 214.6772,395.3386 214.2992,395.7165 214.2992,396.0945 213.9213,396.4724 213.5433,396.4724 213.5433,396.8504 213.1654,397.2283 213.1654,397.6063 212.0315,398.7402 212.0315,399.1181 211.6535,399.1181 211.6535,399.4961 210.8976,400.252 210.8976,400.6299 210.5197,400.6299 210.1417,401.0079 210.1417,401.3858 208.6299,402.8976 208.6299,403.2756 208.252,403.2756 207.874,403.6535 207.874,404.0315 207.4961,404.4094 207.1181,404.4094 207.1181,404.7874 202.2047,409.7008 201.8268,409.7008 201.8268,410.0787 201.4488,410.4567 201.0709,410.4567 200.6929,410.8346 200.6929,411.2126 200.315,411.2126 198.8031,412.7244 198.4252,412.7244 197.2913,413.8583 196.9134,413.8583 196.9134,414.2362 196.5354,414.6142 196.1575,414.6142 195.7795,414.9921 195.4016,414.9921 195.4016,415.3701 195.0236,415.748 194.6457,415.748 194.2677,416.126 193.8898,416.126 193.8898,416.5039 193.5118,416.8819 193.1339,416.8819 192.7559,417.2598 192.378,417.2598 192.378,417.6378 192.0,418.0157 191.622,418.0157 191.2441,418.3937 190.8661,418.3937 189.7323,419.5276 189.3543,419.5276 188.9764,419.9055 188.5984,419.9055 188.5984,420.2835 188.2205,420.2835 187.8425,420.6614 187.4646,420.6614 187.0866,421.0394 186.7087,421.0394 186.7087,421.4173 186.3307,421.4173 185.9528,421.7953 185.5748,421.7953 185.1969,422.1732 184.8189,422.1732 184.8189,422.5512 184.4409,422.5512 184.063,422.9291 183.685,422.9291 183.3071,423.3071 182.9291,423.3071 182.5512,423.685 182.1732,423.685 182.1732,424.063 181.7953,424.063 181.4173,424.4409 181.0394,424.4409 180.6614,424.8189 180.2835,424.8189 179.5276,425.5748 178.7717,425.5748 178.3937,425.9528 178.0157,425.9528 177.6378,426.3307 177.2598,426.3307 176.8819,426.7087 176.5039,426.7087 176.126,427.0866 175.748,427.0866 175.3701,427.4646 174.9921,427.4646 174.6142,427.8425 173.8583,427.8425 173.4803,428.2205 173.1024,428.2205 173.1024,428.5984 172.3465,428.5984 171.9685,428.9764 171.2126,428.9764 170.8346,429.3543 170.4567,429.3543 170.0787,429.7323 169.3228,429.7323 168.9449,430.1102 168.189,430.1102 167.811,430.4882 167.4331,430.4882 167.0551,430.8661 166.2992,430.8661 165.9213,431.2441 165.1654,431.2441 164.7874,431.622 163.6535,431.622 163.2756,432.0 162.5197,432.0 162.1417,432.378 161.0079,432.378 160.6299,432.7559 159.4961,432.7559 159.1181,433.1339 157.9843,433.1339 157.6063,433.5118 156.4724,433.5118 156.0945,433.8898 154.9606,433.8898 154.5827,434.2677 153.0709,434.2677 152.6929,434.6457 151.1811,434.6457 150.8031,435.0236 148.9134,435.0236 148.5354,435.4016 146.6457,435.4016 146.2677,435.7795 144.378,435.7795 144.0,436.1575 141.3543,436.1575 140.9764,436.5354 137.9528,436.5354 137.5748,436.9134 133.0394,436.9134 132.6614,437.2913 116.0315,437.2913 115.6535,436.9134 111.874,436.9134 111.4961,436.5354 108.8504,436.5354 108.4724,436.1575 106.2047,436.1575 105.8268,435.7795 103.937,435.7795 103.5591,435.4016 102.0472,435.4016 101.6693,435.0236 100.1575,435.0236 99.7795,434.6457 98.2677,434.6457 97.8898,434.2677 96.7559,434.2677 96.378,433.8898 94.8661,433.8898 94.4882,433.5118 93.3543,433.5118 92.9764,433.1339 92.2205,433.1339 91.8425,432.7559 90.7087,432.7559 90.3307,432.378 89.5748,432.378 89.1969,432.0 88.4409,432.0 88.063,431.622 87.3071,431.622 86.9291,431.2441 86.1732,431.2441 85.7953,430.8661 84.6614,430.8661 84.2835,430.4882 83.5276,430.4882 83.1496,430.1102 82.7717,430.1102 82.3937,429.7323 82.0157,429.7323 81.6378,429.3543 80.8819,429.3543 80.5039,428.9764 79.748,428.9764 79.3701,428.5984 78.6142,428.5984 77.8583,427.8425 77.1024,427.8425 76.7244,427.4646 76.3465,427.4646 75.9685,427.0866 75.2126,427.0866 74.8346,426.7087 74.4567,426.7087 74.0787,426.3307 73.7008,426.3307 73.3228,425.9528 72.9449,425.9528 72.5669,425.5748 72.189,425.5748 71.811,425.1969 71.0551,425.1969 71.0551,424.8189 70.6772,424.8189 70.2992,424.4409 69.9213,424.4409 69.5433,424.063 69.1654,424.063 68.7874,423.685 68.4094,423.685 68.0315,423.3071 67.6535,423.3071 67.2756,422.9291 66.8976,422.9291 66.5197,422.5512 66.1417,422.5512 65.7638,422.1732 65.3858,422.1732 65.3858,421.7953 65.0079,421.7953 64.6299,421.4173 64.252,421.4173 63.874,421.0394 63.4961,421.0394 62.7402,420.2835 62.3622,420.2835 61.9843,419.9055 61.6063,419.9055 61.2283,419.5276 60.8504,419.5276 60.8504,419.1496 60.4724,418.7717 60.0945,418.7717 59.7165,418.3937 59.3386,418.3937 58.5827,417.6378 58.2047,417.6378 57.8268,417.2598 57.4488,417.2598 57.0709,416.8819 57.0709,416.5039 56.6929,416.5039 56.315,416.126 55.937,416.126 54.8031,414.9921 54.4252,414.9921 53.6693,414.2362 53.2913,414.2362 53.2913,413.8583 52.9134,413.8583 52.1575,413.1024 51.7795,413.1024 51.7795,412.7244 51.4016,412.3465 51.0236,412.3465 50.6457,411.9685 50.2677,411.9685 50.2677,411.5906 49.8898,411.2126 49.5118,411.2126 48.0,409.7008 47.622,409.7008 47.2441,409.3228 47.2441,408.9449 46.8661,408.9449 46.4882,408.5669 46.1102,408.5669 46.1102,408.189 45.7323,407.811 45.3543,407.4331 44.9764,407.4331 44.9764,407.0551 44.5984,406.6772 44.2205,406.6772 43.8425,406.2992 43.8425,405.9213 43.4646,405.9213 39.3071,401.7638 39.3071,401.3858 38.9291,401.3858 38.5512,401.0079 38.5512,400.6299 38.1732,400.6299 37.7953,400.252 37.7953,399.874 37.4173,399.4961 37.0394,399.4961 37.0394,399.1181 35.5276,397.6063 35.5276,397.2283 35.1496,397.2283 34.7717,396.8504 34.7717,396.4724 34.3937,396.0945 34.0157,396.0945 34.0157,395.7165 33.6378,395.3386 33.6378,394.9606 33.2598,394.9606 32.8819,394.5827 32.8819,394.2047 31.748,393.0709 31.748,392.6929 30.6142,391.5591 30.6142,391.1811 29.4803,390.0472 29.4803,389.6693 29.1024,389.2913 29.1024,388.9134 28.7244,388.9134 28.7244,388.5354 28.3465,388.1575 28.3465,387.7795 27.9685,387.4016 27.5906,387.4016 27.5906,387.0236 27.2126,386.6457 27.2126,386.2677 26.8346,385.8898 26.8346,385.5118 26.4567,385.5118 26.4567,385.1339 26.0787,384.7559 26.0787,384.378 25.7008,384.0 25.7008,383.622 25.3228,383.622 25.3228,383.2441 24.9449,382.8661 24.9449,382.4882 24.5669,382.1102 24.5669,381.7323 23.811,380.9764 23.811,380.5984 23.4331,380.2205 23.4331,379.8425 23.0551,379.4646 23.0551,379.0866 22.6772,379.0866 22.6772,378.7087 22.2992,378.3307 22.2992,377.9528 21.9213,377.5748 21.9213,376.8189 21.5433,376.4409 21.5433,376.063 21.1654,376.063 21.1654,375.685 20.7874,375.3071 20.7874,374.5512 20.4094,374.1732 20.4094,373.7953 20.0315,373.4173 20.0315,373.0394 19.6535,372.6614 19.6535,372.2835 19.2756,371.9055 19.2756,371.5276 18.8976,371.1496 18.8976,370.3937 18.5197,370.0157 18.5197,369.6378 18.1417,369.2598 18.1417,368.5039 17.7638,368.126 17.7638,367.748 17.3858,367.3701 17.3858,366.6142 17.0079,366.2362 17.0079,365.4803 16.6299,365.1024 16.6299,364.7244 16.252,364.3465 16.252,363.5906 15.874,363.2126 15.874,362.0787 15.4961,361.7008 15.4961,360.9449 15.1181,360.5669 15.1181,359.811 14.7402,359.811 14.7402,358.6772 14.3622,358.2992 14.3622,357.1654 13.9843,356.7874 13.9843,355.6535 13.6063,355.2756 13.6063,354.1417 13.2283,353.7638 13.2283,352.252 12.8504,351.874 12.8504,350.7402 12.4724,350.3622 12.4724,348.8504 12.0945,348.4724 12.0945,346.5827 11.7165,346.2047 11.7165,344.315 11.3386,343.937 11.3386,342.0472 10.9606,341.6693 10.9606,339.7795 10.5827,339.4016 10.5827,337.5118 10.2047,337.1339 10.2047,335.2441 9.8268,334.8661 9.8268,332.9764 9.4488,332.5984 9.4488,330.7087 9.0709,330.3307 9.0709,328.8189 65.0079,328.8189 65.0079,329.5748 65.3858,329.9528 65.3858,330.7087 65.7638,331.0866 65.7638,331.8425 66.1417,332.2205 66.1417,333.3543 66.5197,333.7323 66.5197,334.8661 66.8976,335.2441 66.8976,336.0 67.2756,336.378 67.2756,337.5118 67.6535,337.8898 67.6535,339.0236 68.0315,339.4016 68.0315,340.5354 68.4094,340.9134 68.4094,341.6693 68.7874,342.0472 68.7874,342.8031 69.1654,343.1811 69.1654,343.937 69.5433,344.315 69.5433,345.0709 69.9213,345.4488 69.9213,345.8268 70.2992,346.2047 70.2992,346.5827 70.6772,346.9606 70.6772,347.7165 71.0551,348.0945 71.0551,348.4724 71.4331,348.8504 71.4331,349.2283 71.811,349.6063 71.811,349.9843 72.189,350.3622 72.189,350.7402 72.5669,351.1181 72.5669,351.4961 72.9449,351.874 72.9449,352.252 73.3228,352.252 73.3228,352.6299 73.7008,353.0079 73.7008,353.3858 74.0787,353.7638 74.0787,354.1417 75.2126,355.2756 75.2126,355.6535 75.5906,356.0315 75.5906,356.4094 76.7244,357.5433 76.7244,357.9213 77.8583,359.0551 77.8583,359.4331 78.2362,359.4331 78.2362,359.811 79.3701,360.9449 79.3701,361.3228 79.748,361.7008 80.126,361.7008 80.126,362.0787 83.9055,365.8583 84.2835,365.8583 84.2835,366.2362 84.6614,366.6142 85.0394,366.6142 85.0394,366.9921 85.4173,366.9921 86.5512,368.126 86.9291,368.126 87.3071,368.5039 87.3071,368.8819 87.685,368.8819 88.063,369.2598 88.4409,369.2598 88.4409,369.6378 88.8189,370.0157 89.1969,370.0157 89.5748,370.3937 89.9528,370.3937 89.9528,370.7717 90.3307,370.7717 90.7087,371.1496 91.0866,371.1496 91.8425,371.9055 92.2205,371.9055 92.5984,372.2835 92.9764,372.2835 93.7323,373.0394 94.1102,373.0394 94.4882,373.4173 94.8661,373.4173 95.2441,373.7953 95.622,373.7953 95.622,374.1732 96.0,374.1732 96.378,374.5512 96.7559,374.5512 97.1339,374.9291 97.5118,374.9291 97.8898,375.3071 98.6457,375.3071 98.6457,375.685 99.0236,375.685 99.4016,376.063 99.7795,376.063 100.1575,376.4409 100.9134,376.4409 101.2913,376.8189 101.6693,376.8189 102.0472,377.1969 102.4252,377.1969 102.8031,377.5748 103.5591,377.5748 103.937,377.9528 104.6929,377.9528 105.0709,378.3307 105.4488,378.3307 105.8268,378.7087 106.5827,378.7087 106.9606,379.0866 107.7165,379.0866 108.0945,379.4646 108.8504,379.4646 109.2283,379.8425 109.9843,379.8425 110.3622,380.2205 111.4961,380.2205 111.874,380.5984 113.0079,380.5984 113.3858,380.9764 114.8976,380.9764 115.2756,381.3543 117.1654,381.3543 117.5433,381.7323 119.811,381.7323 120.189,382.1102 123.5906,382.1102 123.9685,382.4882 130.7717,382.4882 131.1496,382.1102 134.9291,382.1102 135.3071,381.7323 137.5748,381.7323 137.9528,381.3543 139.0866,381.3543 139.4646,380.9764 140.9764,380.9764 141.3543,380.5984 142.4882,380.5984 142.8661,380.2205 144.0,380.2205 144.378,379.8425 145.1339,379.8425 145.5118,379.4646 145.8898,379.4646 146.2677,379.0866 147.0236,379.0866 147.4016,378.7087 148.1575,378.7087 148.5354,378.3307 149.2913,378.3307 149.6693,377.9528 150.4252,377.9528 151.1811,377.1969 151.5591,377.1969 151.937,376.8189 152.6929,376.8189 153.0709,376.4409 153.4488,376.4409 153.8268,376.063 154.2047,376.063 154.5827,375.685 154.9606,375.685 154.9606,375.3071 155.3386,374.9291 155.7165,374.9291 156.0945,374.5512 156.4724,374.5512 156.8504,374.1732 157.2283,374.1732 157.2283,373.7953 157.6063,373.7953 157.9843,373.4173 158.3622,373.4173 158.7402,373.0394 158.7402,372.6614 159.1181,372.6614 159.4961,372.2835 159.874,372.2835 160.252,371.9055 160.252,371.5276 160.6299,371.5276 161.0079,371.1496 161.3858,371.1496 161.3858,370.7717 161.7638,370.3937 162.1417,370.3937 162.1417,370.0157 162.5197,369.6378 162.8976,369.6378 163.2756,369.2598 163.2756,368.8819 163.6535,368.8819 164.0315,368.5039 164.0315,368.126 164.4094,368.126 164.4094,367.748 166.2992,365.8583 166.2992,365.4803 167.4331,364.3465 167.4331,363.9685 167.811,363.9685 167.811,363.5906 168.189,363.2126 168.189,362.8346 168.9449,362.0787 168.9449,361.3228 169.7008,360.5669 169.7008,360.189 170.0787,359.811 170.0787,359.0551 170.4567,359.0551 170.4567,358.6772 170.8346,358.2992 170.8346,357.5433 171.2126,357.1654 171.2126,356.4094 171.5906,356.4094 171.5906,355.6535 171.9685,355.2756 171.9685,354.1417 172.3465,353.7638 172.3465,352.6299 172.7244,352.252 172.7244,351.1181 173.1024,350.7402 173.1024,348.8504 173.4803,348.4724 173.4803,337.5118 173.1024,337.1339 173.1024,334.4882 172.7244,334.1102 172.7244,331.4646 172.3465,331.0866 172.3465,329.9528 171.9685,329.5748 171.9685,328.4409 171.5906,328.063 171.5906,326.9291 171.2126,326.5512 171.2126,325.7953 170.8346,325.4173 170.8346,324.6614 170.4567,324.2835 170.4567,323.5276 170.0787,323.1496 170.0787,322.7717 169.7008,322.3937 169.7008,322.0157 169.3228,321.6378 169.3228,321.2598 168.9449,320.8819 168.9449,320.5039 168.5669,320.126 168.5669,319.3701 168.189,319.3701 168.189,318.9921 167.811,318.6142 167.811,318.2362 167.4331,317.8583 167.4331,317.4803 167.0551,317.4803 167.0551,317.1024 166.2992,316.3465 166.2992,315.9685 165.9213,315.9685 165.9213,315.5906 165.5433,315.2126 165.5433,314.8346 165.1654,314.8346 164.7874,314.4567 164.7874,314.0787 163.6535,312.9449 163.6535,312.5669 163.2756,312.5669 163.2756,312.189 162.8976,311.811 162.5197,311.811 162.5197,311.4331 162.1417,311.0551 161.7638,311.0551 161.7638,310.6772 161.3858,310.2992 161.0079,310.2992 161.0079,309.9213 160.6299,309.5433 160.252,309.5433 159.874,309.1654 159.874,308.7874 159.4961,308.7874 159.1181,308.4094 159.1181,308.0315 158.7402,308.0315 157.6063,306.8976 157.2283,306.8976 156.8504,306.5197 156.8504,306.1417 156.4724,306.1417 156.0945,305.7638 155.7165,305.7638 154.5827,304.6299 154.2047,304.6299 154.2047,304.252 153.8268,304.252 153.4488,303.874 153.0709,303.874 152.6929,303.4961 152.315,303.4961 152.315,303.1181 151.937,302.7402 151.5591,302.7402 151.1811,302.3622 150.8031,302.3622 150.0472,301.6063 149.6693,301.6063 149.2913,301.2283 148.9134,301.2283 148.5354,300.8504 148.1575,300.8504 147.4016,300.0945 147.0236,300.0945 146.6457,299.7165 146.2677,299.7165 145.8898,299.3386 145.5118,299.3386 145.1339,298.9606 144.7559,298.9606 144.7559,298.5827 144.0,298.5827 143.622,298.2047 143.2441,298.2047 142.8661,297.8268 142.4882,297.8268 142.1102,297.4488 141.7323,297.4488 141.3543,297.0709 140.9764,297.0709 140.2205,296.315 139.4646,296.315 139.0866,295.937 138.7087,295.937 138.3307,295.5591 137.5748,295.5591 137.1969,295.1811 136.4409,295.1811 136.063,294.8031 135.685,294.8031 135.685,294.4252 134.9291,294.4252 134.5512,294.0472 133.7953,294.0472 133.4173,293.6693 132.6614,293.6693 132.2835,293.2913 131.5276,293.2913 131.1496,292.9134 130.7717,292.9134 130.3937,292.5354 130.0157,292.5354 129.6378,292.1575 128.8819,292.1575 128.5039,291.7795 127.748,291.7795 127.3701,291.4016 126.9921,291.4016 126.6142,291.0236 125.8583,291.0236 125.4803,290.6457 125.1024,290.6457 124.7244,290.2677 123.9685,290.2677 123.5906,289.8898 122.8346,289.8898 122.4567,289.5118 122.0787,289.5118 121.7008,289.1339 120.9449,289.1339 120.5669,288.7559 119.811,288.7559 119.4331,288.378 119.0551,288.378 118.6772,288.0 117.9213,288.0 117.5433,287.622 117.1654,287.622 116.7874,287.2441 116.0315,287.2441 115.6535,286.8661 114.8976,286.8661 114.5197,286.4882 113.7638,286.4882 113.7638,286.1102 113.3858,286.1102 113.0079,285.7323 112.252,285.7323 111.874,285.3543 111.1181,285.3543 110.7402,284.9764 109.9843,284.9764 109.6063,284.5984 109.2283,284.5984 108.8504,284.2205 108.0945,284.2205 108.0945,283.8425 107.3386,283.8425 106.9606,283.4646 106.5827,283.4646 106.2047,283.0866 105.4488,283.0866 105.0709,282.7087 104.315,282.7087 103.937,282.3307 103.5591,282.3307 103.1811,281.9528 102.8031,281.9528 102.4252,281.5748 101.6693,281.5748 101.2913,281.1969 100.9134,281.1969 100.5354,280.8189 99.7795,280.8189 99.4016,280.4409 99.0236,280.4409 98.6457,280.063 98.2677,280.063 97.8898,279.685 97.1339,279.685 96.7559,279.3071 96.378,279.3071 96.0,278.9291 95.2441,278.9291 94.8661,278.5512 94.4882,278.5512 94.1102,278.1732 93.7323,278.1732 93.3543,277.7953 92.9764,277.7953 92.5984,277.4173 91.8425,277.4173 91.4646,277.0394 91.0866,277.0394 90.7087,276.6614 90.3307,276.6614 89.9528,276.2835 89.5748,276.2835 89.1969,275.9055 88.8189,275.9055 88.4409,275.5276 87.685,275.5276 87.3071,275.1496 86.9291,275.1496 86.1732,274.3937 85.4173,274.3937 85.0394,274.0157 84.6614,274.0157 84.2835,273.6378 83.9055,273.6378 83.1496,272.8819 82.3937,272.8819 82.0157,272.5039 81.6378,272.5039 81.2598,272.126 80.8819,272.126 80.126,271.3701 79.748,271.3701 79.3701,270.9921 78.6142,270.9921 78.2362,270.6142 77.8583,270.6142 77.1024,269.8583 76.3465,269.8583 75.9685,269.4803 75.5906,269.4803 75.2126,269.1024 74.8346,269.1024 74.4567,268.7244 74.0787,268.7244 74.0787,268.3465 73.7008,268.3465 73.3228,267.9685 72.5669,267.9685 72.189,267.5906 71.811,267.5906 71.4331,267.2126 71.0551,267.2126 71.0551,266.8346 70.6772,266.8346 70.2992,266.4567 69.9213,266.4567 69.5433,266.0787 69.1654,266.0787 68.7874,265.7008 68.4094,265.7008 68.4094,265.3228 68.0315,265.3228 67.6535,264.9449 67.2756,264.9449 66.8976,264.5669 66.5197,264.5669 66.1417,264.189 65.7638,264.189 65.7638,263.811 65.3858,263.811 65.0079,263.4331 64.6299,263.4331 64.252,263.0551 63.874,263.0551 63.1181,262.2992 62.7402,262.2992 62.3622,261.9213 61.9843,261.9213 61.6063,261.5433 61.2283,261.5433 61.2283,261.1654 60.8504,261.1654 60.4724,260.7874 60.0945,260.7874 59.3386,260.0315 58.9606,260.0315 58.9606,259.6535 58.5827,259.6535 58.2047,259.2756 57.8268,259.2756 57.4488,258.8976 57.0709,258.8976 57.0709,258.5197 56.6929,258.1417 56.315,258.1417 55.937,257.7638 55.5591,257.7638 55.5591,257.3858 55.1811,257.3858 54.4252,256.6299 54.0472,256.6299 52.9134,255.4961 52.5354,255.4961 51.4016,254.3622 51.0236,254.3622 49.8898,253.2283 49.5118,253.2283 49.5118,252.8504 49.1339,252.4724 48.7559,252.4724 48.378,252.0945 48.0,252.0945 48.0,251.7165 47.622,251.3386 47.2441,251.3386 46.8661,250.9606 46.8661,250.5827 46.4882,250.5827 44.9764,249.0709 44.5984,249.0709 44.5984,248.6929 44.2205,248.315 43.8425,248.315 43.4646,247.937 43.4646,247.5591 43.0866,247.5591 42.7087,247.1811 42.7087,246.8031 42.3307,246.8031 41.5748,246.0472 41.5748,245.6693 41.1969,245.6693 40.8189,245.2913 40.8189,244.9134 40.4409,244.9134 39.685,244.1575 39.685,243.7795 39.3071,243.7795 38.9291,243.4016 38.9291,243.0236 38.5512,242.6457 38.1732,242.6457 38.1732,242.2677 37.7953,241.8898 37.4173,241.8898 37.4173,241.5118 36.6614,240.7559 36.6614,240.378 36.2835,240.378 35.9055,240.0 35.9055,239.622 35.5276,239.2441 35.1496,239.2441 35.1496,238.8661 34.3937,238.1102 34.3937,237.7323 34.0157,237.7323 34.0157,237.3543 33.2598,236.5984 33.2598,236.2205 32.8819,236.2205 32.5039,235.8425 32.5039,235.4646 32.126,235.0866 32.126,234.7087 31.748,234.7087 31.3701,234.3307 31.3701,233.9528 30.9921,233.5748 30.9921,233.1969 29.8583,232.063 29.8583,231.685 29.4803,231.3071 29.4803,230.9291 28.7244,230.1732 28.7244,229.7953 28.3465,229.4173 28.3465,229.0394 27.9685,228.6614 27.9685,228.2835 27.5906,227.9055 27.2126,227.9055 27.2126,227.5276 26.8346,227.1496 26.8346,226.7717 26.4567,226.3937 26.4567,226.0157 26.0787,225.6378 26.0787,225.2598 25.7008,224.8819 25.7008,224.5039 25.3228,224.126 25.3228,223.748 24.9449,223.3701 24.9449,222.9921 24.5669,222.9921 24.5669,222.6142 24.189,222.2362 24.189,221.8583 23.811,221.4803 23.811,221.1024 23.4331,220.7244 23.4331,219.9685 23.0551,219.9685 23.0551,219.5906 22.6772,219.2126 22.6772,218.8346 22.2992,218.4567 22.2992,217.7008 21.9213,217.3228 21.9213,216.9449 21.5433,216.9449 21.5433,216.189 21.1654,215.811 21.1654,215.4331 20.7874,215.0551 20.7874,214.2992 20.4094,213.9213 20.4094,213.5433 20.0315,213.5433 20.0315,212.7874 19.6535,212.4094 19.6535,211.6535 19.2756,211.2756 19.2756,210.5197 18.8976,210.1417 18.8976,209.3858 18.5197,209.0079 18.5197,208.6299 18.1417,208.6299 18.1417,207.4961 17.7638,207.1181 17.7638,206.3622 17.3858,205.9843 17.3858,205.2283 17.0079,204.8504 17.0079,204.0945 16.6299,203.7165 16.6299,202.5827 16.252,202.2047 16.252,201.4488 15.874,201.0709 15.874,199.937 15.4961,199.5591 15.4961,198.4252 15.1181,198.0472 15.1181,196.9134 14.7402,196.5354 14.7402,196.1575 14.3622,195.7795 14.3622,195.4016 13.9843,195.0236 13.9843,191.622 13.6063,191.2441 13.6063,187.8425 13.2283,187.4646 13.2283,182.9291 12.8504,182.5512 12.8504,179.1496 12.0945,179.1496 12.0945,169.3228 12.4724,168.9449 12.4724,168.5669 12.8504,168.189 12.8504,164.7874 13.2283,164.4094 13.2283,161.7638 13.6063,161.3858 13.6063,159.4961 13.9843,159.1181 13.9843,158.3622 14.3622,157.9843 14.3622,156.0945 14.7402,155.7165 14.7402,154.5827 15.1181,153.8268 15.1181,150.0472 15.4961,149.6693 15.4961,148.5354 15.874,148.1575 15.874,147.0236 16.252,146.6457 16.252,145.5118 16.6299,145.1339 16.6299,144.378 17.0079,144.0 17.0079,142.8661 17.3858,142.4882 17.3858,141.7323 17.7638,141.3543 17.7638,140.5984 18.1417,140.2205 18.1417,139.4646 18.5197,139.4646 18.5197,138.7087 18.8976,138.3307 18.8976,137.5748 19.2756,137.1969 19.2756,136.4409 19.6535,136.063 19.6535,135.3071 20.0315,134.9291 20.0315,134.5512 20.4094,134.1732 20.4094,133.7953 20.7874,133.4173 20.7874,132.6614 21.1654,132.2835 21.1654,131.9055 21.5433,131.5276 21.5433,131.1496 21.9213,130.7717 21.9213,130.0157 22.2992,130.0157 22.2992,129.6378 22.6772,129.2598 22.6772,128.8819 23.0551,128.5039 23.0551,127.748 23.4331,127.3701 23.4331,126.9921 24.189,126.2362 24.189,125.8583 24.5669,125.4803 24.5669,125.1024 24.9449,124.7244 24.9449,124.3465 25.3228,123.9685 25.3228,123.5906 25.7008,123.5906 25.7008,123.2126 26.0787,122.8346 26.0787,122.4567 26.4567,122.0787 26.4567,121.7008 26.8346,121.3228 26.8346,120.9449 27.2126,120.9449 27.2126,120.5669 27.5906,120.189 27.5906,119.811 27.9685,119.4331 27.9685,119.0551 28.3465,118.6772 28.7244,118.6772 28.7244,118.2992 29.1024,117.9213 29.1024,117.5433 29.4803,117.1654 29.4803,116.7874 29.8583,116.4094 30.2362,116.4094 30.2362,116.0315 30.6142,115.6535 30.6142,115.2756 31.748,114.1417 31.748,113.7638 32.126,113.3858 32.5039,113.3858 32.5039,113.0079 32.8819,113.0079" fill="var(--logo-fill, currentColor)"/><polygon points="393.8268,68.0315 395.3386,68.0315 395.7165,68.4094 397.2283,68.4094 397.6063,68.7874 399.1181,68.7874 399.4961,69.1654 399.874,69.1654 400.6299,69.5433 401.0079,69.5433 401.3858,69.9213 404.0315,69.9213 404.7874,70.6772 405.5433,71.0551 406.6772,71.0551 407.0551,71.4331 407.811,71.4331 408.189,71.811 409.3228,71.811 409.7008,72.189 410.4567,72.189 410.8346,72.5669 411.5906,72.5669 411.9685,72.9449 412.7244,72.9449 413.1024,73.3228 413.8583,73.3228 413.8583,73.7008 414.6142,73.7008 414.9921,74.0787 415.748,74.0787 416.126,74.4567 416.5039,74.4567 416.8819,74.8346 417.6378,74.8346 418.0157,75.2126 418.7717,75.2126 419.5276,75.9685 420.2835,75.9685 420.6614,76.3465 421.0394,76.3465 421.4173,76.7244 422.1732,76.7244 422.9291,77.4803 423.685,77.4803 424.063,77.8583 424.4409,77.8583 424.8189,78.2362 425.1969,78.2362 425.9528,78.9921 426.7087,78.9921 427.0866,79.3701 427.4646,79.3701 427.8425,79.748 428.2205,79.748 428.2205,80.126 428.5984,80.126 428.9764,80.5039 429.3543,80.5039 429.7323,80.8819 430.1102,80.8819 430.8661,81.6378 431.2441,81.6378 431.622,82.0157 432.0,82.0157 432.378,82.3937 432.7559,82.3937 432.7559,82.7717 433.1339,82.7717 433.5118,83.1496 433.8898,83.1496 434.2677,83.5276 434.6457,83.5276 434.6457,83.9055 435.0236,83.9055 435.4016,84.2835 435.7795,84.2835 436.9134,85.4173 437.2913,85.4173 437.6693,85.7953 438.0472,85.7953 439.1811,86.9291 439.5591,86.9291 439.937,87.3071 440.315,87.3071 440.315,87.685 440.6929,87.685 441.4488,88.4409 441.8268,88.4409 441.8268,88.8189 442.2047,88.8189 442.9606,89.5748 443.3386,89.5748 443.3386,89.9528 443.7165,90.3307 444.0945,90.3307 444.4724,90.7087 444.8504,90.7087 444.8504,91.0866 445.2283,91.4646 445.6063,91.4646 447.1181,92.9764 447.4961,92.9764 447.874,93.3543 447.874,93.7323 448.252,93.7323 449.7638,95.2441 450.1417,95.2441 450.5197,95.622 450.5197,96.0 450.8976,96.0 452.7874,97.8898 453.1654,97.8898 453.1654,98.2677 453.5433,98.6457 453.9213,98.6457 453.9213,99.0236 455.4331,100.5354 455.811,100.5354 455.811,100.9134 459.2126,104.315 459.2126,104.6929 459.5906,104.6929 459.9685,105.0709 459.9685,105.4488 460.3465,105.4488 460.7244,105.8268 460.7244,106.2047 461.1024,106.5827 461.4803,106.5827 461.4803,106.9606 462.2362,107.7165 462.6142,107.7165 462.6142,108.0945 463.3701,108.8504 463.3701,109.2283 463.748,109.2283 464.126,109.6063 464.126,109.9843 464.5039,110.3622 464.8819,110.3622 464.8819,110.7402 465.2598,111.1181 465.2598,111.4961 465.6378,111.4961 466.0157,111.874 466.0157,112.252 467.5276,113.7638 467.5276,114.1417 467.9055,114.1417 467.9055,114.5197 468.6614,115.2756 468.6614,115.6535 469.0394,115.6535 469.4173,116.0315 469.4173,116.4094 469.7953,116.7874 469.7953,117.1654 470.1732,117.5433 470.5512,117.5433 470.5512,117.9213 470.9291,118.2992 470.9291,118.6772 471.3071,119.0551 471.685,119.0551 471.685,119.4331 472.063,119.811 472.063,120.189 472.4409,120.5669 472.4409,120.9449 472.8189,120.9449 473.1969,121.3228 473.1969,121.7008 473.5748,122.0787 473.5748,122.4567 474.3307,123.2126 474.3307,123.5906 474.7087,123.9685 474.7087,124.3465 475.0866,124.7244 475.0866,125.1024 475.4646,125.1024 475.4646,125.4803 476.2205,126.2362 476.2205,126.9921 476.5984,127.3701 476.5984,127.748 476.9764,127.748 476.9764,128.126 477.3543,128.5039 477.3543,128.8819 477.7323,129.2598 477.7323,129.6378 478.1102,130.0157 478.1102,130.3937 478.4882,130.7717 478.4882,131.1496 478.8661,131.1496 478.8661,131.9055 479.2441,132.2835 479.2441,132.6614 479.622,133.0394 479.622,133.7953 480.0,134.1732 480.0,134.5512 480.378,134.9291 480.378,135.3071 480.7559,135.685 480.7559,136.063 481.1339,136.4409 481.1339,137.1969 481.5118,137.5748 481.5118,138.3307 481.8898,138.7087 481.8898,139.0866 482.2677,139.4646 482.2677,139.8425 482.6457,140.2205 482.6457,140.9764 483.0236,141.3543 483.0236,142.1102 483.4016,142.4882 483.4016,143.2441 483.7795,143.622 483.7795,144.378 484.1575,144.7559 484.1575,145.5118 484.5354,145.8898 484.5354,146.6457 484.9134,147.0236 484.9134,148.1575 485.2913,148.5354 485.2913,149.2913 485.6693,149.2913 485.6693,150.4252 486.0472,150.8031 486.0472,151.937 486.4252,152.315 486.4252,153.0709 486.8031,153.4488 486.8031,154.9606 487.1811,155.3386 487.1811,156.4724 487.5591,156.8504 487.5591,157.9843 487.937,158.3622 487.937,159.874 488.315,160.252 488.315,162.1417 488.6929,162.5197 488.6929,164.4094 489.0709,164.7874 489.0709,166.6772 489.4488,167.0551 489.4488,170.0787 489.8268,170.4567 489.8268,173.8583 490.2047,174.2362 490.2047,178.0157 490.5827,178.3937 490.5827,191.622 490.2047,192.0 490.2047,196.1575 489.8268,196.5354 489.8268,199.1811 489.4488,199.5591 489.4488,201.8268 489.0709,202.2047 489.0709,204.4724 488.6929,204.8504 488.6929,206.3622 488.315,206.7402 488.315,208.252 487.937,208.6299 487.937,210.1417 487.5591,210.5197 487.5591,212.0315 487.1811,212.4094 487.1811,213.5433 486.8031,213.9213 486.8031,215.4331 486.4252,215.811 486.4252,216.5669 486.0472,216.9449 486.0472,218.0787 485.6693,218.4567 485.6693,219.2126 485.2913,219.5906 485.2913,220.7244 484.9134,221.1024 484.9134,222.2362 484.5354,222.6142 484.5354,223.3701 484.1575,223.748 484.1575,224.8819 483.7795,225.2598 483.7795,226.0157 483.4016,226.3937 483.4016,226.7717 483.0236,227.1496 483.0236,227.9055 482.6457,228.2835 482.6457,228.6614 482.2677,229.0394 482.2677,229.4173 481.8898,229.7953 481.8898,230.5512 481.5118,230.9291 481.5118,231.3071 481.1339,231.685 481.1339,232.063 480.7559,232.4409 480.7559,232.8189 480.378,233.1969 480.378,233.9528 480.0,234.3307 480.0,234.7087 479.2441,235.4646 479.2441,235.8425 478.8661,236.2205 478.8661,236.9764 478.4882,237.3543 478.4882,237.7323 477.7323,238.4882 477.7323,238.8661 477.3543,239.2441 477.3543,239.622 476.9764,240.0 476.9764,240.378 476.2205,241.1339 476.2205,241.5118 475.8425,241.8898 475.8425,242.2677 475.4646,242.6457 475.4646,243.0236 475.0866,243.0236 475.0866,243.4016 474.7087,243.7795 474.7087,244.1575 474.3307,244.5354 474.3307,244.9134 473.1969,246.0472 473.1969,246.4252 472.8189,246.8031 472.8189,247.1811 472.4409,247.1811 472.4409,247.5591 472.063,247.937 472.063,248.315 470.9291,249.4488 470.9291,249.8268 470.5512,250.2047 470.5512,250.5827 470.1732,250.9606 469.7953,250.9606 469.7953,251.3386 469.4173,251.7165 469.4173,252.0945 469.0394,252.4724 468.6614,252.4724 468.6614,252.8504 468.2835,253.2283 468.2835,253.6063 467.9055,253.9843 467.5276,253.9843 467.5276,254.3622 467.1496,254.7402 467.1496,255.1181 466.7717,255.4961 466.3937,255.4961 466.3937,255.874 465.6378,256.6299 465.6378,257.0079 465.2598,257.0079 464.8819,257.3858 464.8819,257.7638 464.5039,258.1417 464.126,258.1417 464.126,258.5197 463.3701,259.2756 463.3701,259.6535 462.9921,259.6535 462.6142,260.0315 462.6142,260.4094 462.2362,260.7874 461.8583,260.7874 461.8583,261.1654 460.3465,262.6772 460.3465,263.0551 459.9685,263.0551 459.5906,263.4331 458.4567,264.5669 458.4567,264.9449 458.0787,264.9449 456.5669,266.4567 456.5669,266.8346 456.189,266.8346 453.5433,269.4803 453.1654,269.4803 453.1654,269.8583 452.7874,270.2362 452.4094,270.2362 450.8976,271.748 450.5197,271.748 450.5197,272.126 450.1417,272.5039 449.7638,272.5039 448.252,274.0157 447.874,274.0157 447.4961,274.3937 447.4961,274.7717 447.1181,274.7717 445.9843,275.9055 445.6063,275.9055 444.0945,277.4173 443.7165,277.4173 443.3386,277.7953 442.9606,277.7953 442.9606,278.1732 442.5827,278.5512 442.2047,278.5512 441.8268,278.9291 441.4488,278.9291 441.4488,279.3071 441.0709,279.3071 440.315,280.063 439.937,280.063 439.937,280.4409 439.5591,280.4409 439.1811,280.8189 438.8031,280.8189 437.6693,281.9528 437.2913,281.9528 436.9134,282.3307 436.5354,282.3307 435.7795,283.0866 435.4016,283.0866 435.0236,283.4646 434.6457,283.4646 433.5118,284.5984 433.1339,284.5984 432.7559,284.9764 432.378,284.9764 431.622,285.7323 431.2441,285.7323 430.8661,286.1102 430.1102,286.1102 429.7323,286.4882 429.3543,286.4882 429.3543,286.8661 428.9764,286.8661 428.5984,287.2441 428.2205,287.2441 427.8425,287.622 427.4646,287.622 426.7087,288.378 426.3307,288.378 425.9528,288.7559 425.1969,288.7559 424.8189,289.1339 424.4409,289.1339 423.685,289.8898 422.9291,289.8898 422.5512,290.2677 422.1732,290.2677 421.7953,290.6457 421.0394,290.6457 420.2835,291.4016 419.5276,291.4016 419.1496,291.7795 418.7717,291.7795 418.3937,292.1575 417.6378,292.1575 417.2598,292.5354 416.8819,292.5354 416.5039,292.9134 416.126,292.9134 415.748,293.2913 414.9921,293.2913 414.6142,293.6693 413.8583,293.6693 413.4803,294.0472 412.7244,294.0472 412.3465,294.4252 411.5906,294.4252 411.2126,294.8031 410.8346,294.8031 410.4567,295.1811 409.7008,295.1811 409.3228,295.5591 408.5669,295.5591 408.189,295.937 407.0551,295.937 406.6772,296.315 405.9213,296.315 405.5433,296.6929 404.4094,296.6929 404.0315,297.0709 402.8976,297.0709 402.5197,297.4488 401.3858,297.4488 401.0079,297.8268 399.874,297.8268 399.4961,298.2047 397.9843,298.2047 397.6063,298.5827 396.0945,298.5827 395.7165,298.9606 393.8268,298.9606 393.4488,299.3386 391.5591,299.3386 391.1811,299.7165 388.9134,299.7165 388.5354,300.0945 386.2677,300.0945 385.8898,300.4724 383.622,300.4724 383.2441,300.8504 380.2205,300.8504 379.8425,301.2283 376.8189,301.2283 376.4409,301.6063 373.4173,301.6063 373.0394,301.9843 368.5039,301.9843 368.126,302.3622 341.2913,302.3622 340.9134,301.9843 328.8189,301.9843 328.8189,432.0 270.9921,432.0 270.9921,230.5512 271.3701,230.1732 271.3701,229.4173 271.748,229.0394 271.748,228.2835 272.126,227.9055 272.126,227.5276 272.5039,227.1496 272.5039,226.7717 272.8819,226.3937 272.8819,226.0157 274.0157,224.8819 274.0157,224.5039 274.7717,223.748 274.7717,223.3701 275.1496,223.3701 275.1496,222.9921 275.9055,222.2362 275.9055,221.8583 276.2835,221.8583 276.2835,221.4803 277.0394,220.7244 277.0394,220.3465 277.4173,220.3465 277.4173,219.9685 278.1732,219.2126 278.1732,218.8346 278.5512,218.8346 278.5512,218.4567 278.9291,218.0787 278.9291,217.7008 280.063,216.5669 280.063,216.189 281.1969,215.0551 281.1969,214.6772 282.3307,213.5433 282.3307,213.1654 282.7087,212.7874 282.7087,212.4094 283.0866,212.4094 283.4646,212.0315 283.4646,211.6535 283.8425,211.2756 283.8425,210.8976 284.2205,210.8976 284.5984,210.5197 284.5984,210.1417 284.9764,209.7638 284.9764,209.3858 285.3543,209.0079 285.7323,209.0079 285.7323,208.6299 286.1102,208.252 286.1102,207.874 287.2441,206.7402 287.2441,206.3622 288.378,205.2283 288.378,204.8504 289.1339,204.0945 289.1339,203.7165 289.8898,202.9606 289.8898,202.5827 290.2677,202.5827 290.2677,202.2047 290.6457,201.8268 290.6457,201.4488 291.0236,201.0709 291.4016,201.0709 291.4016,200.6929 291.7795,200.315 291.7795,199.937 292.1575,199.5591 292.5354,199.5591 292.5354,199.1811 292.9134,198.8031 292.9134,198.4252 294.0472,197.2913 294.0472,196.9134 294.4252,196.5354 294.4252,196.1575 294.8031,196.1575 295.1811,195.7795 295.1811,195.4016 295.5591,195.0236 295.5591,194.6457 295.937,194.6457 295.937,194.2677 296.6929,193.5118 296.6929,193.1339 297.0709,193.1339 297.0709,192.7559 297.8268,192.0 297.8268,191.622 298.2047,191.622 298.2047,191.2441 298.5827,190.8661 298.5827,190.4882 298.9606,190.1102 299.3386,190.1102 299.3386,189.7323 299.7165,189.3543 299.7165,188.9764 300.8504,187.8425 300.8504,187.4646 301.9843,186.3307 301.9843,185.9528 303.1181,184.8189 303.1181,184.4409 303.4961,184.063 303.4961,183.685 303.874,183.685 304.252,183.3071 304.252,182.9291 304.6299,182.5512 304.6299,182.1732 305.0079,181.7953 305.3858,181.7953 305.3858,181.4173 305.7638,181.0394 305.7638,180.6614 306.1417,180.2835 306.5197,180.2835 306.5197,179.9055 306.8976,179.5276 306.8976,179.1496 307.2756,178.7717 307.6535,178.7717 307.6535,178.3937 308.4094,177.6378 308.4094,177.2598 308.7874,177.2598 309.1654,176.8819 309.1654,176.5039 309.5433,176.5039 309.5433,176.126 312.9449,172.7244 312.9449,172.3465 313.3228,172.3465 313.7008,171.9685 313.7008,171.5906 314.0787,171.5906 314.4567,171.2126 314.8346,170.8346 314.8346,170.4567 315.2126,170.4567 315.5906,170.0787 315.5906,169.7008 315.9685,169.7008 316.3465,169.3228 316.3465,168.9449 316.7244,168.9449 317.4803,168.189 317.4803,167.811 317.8583,167.811 320.126,165.5433 320.5039,165.5433 320.5039,165.1654 321.2598,164.4094 321.6378,164.4094 321.6378,164.0315 322.0157,163.6535 322.3937,163.6535 322.7717,163.2756 322.7717,162.8976 323.1496,162.5197 323.5276,162.5197 323.9055,162.1417 323.9055,161.7638 324.2835,161.7638 325.0394,161.0079 325.0394,160.6299 325.4173,160.6299 325.7953,160.252 326.1732,159.874 326.1732,159.4961 326.5512,159.4961 328.063,157.9843 328.063,244.1575 358.2992,244.1575 358.6772,243.7795 369.6378,243.7795 370.0157,243.4016 374.1732,243.4016 374.5512,243.0236 377.1969,243.0236 377.5748,242.6457 379.8425,242.6457 380.2205,242.2677 382.4882,242.2677 382.8661,241.8898 384.378,241.8898 384.7559,241.5118 386.6457,241.5118 387.0236,241.1339 388.1575,241.1339 388.5354,240.7559 389.6693,240.7559 390.0472,240.378 390.4252,240.378 390.8031,240.0 391.5591,240.0 391.937,239.622 393.0709,239.622 393.4488,239.2441 393.8268,239.2441 394.2047,238.8661 394.9606,238.8661 395.3386,238.4882 396.0945,238.4882 396.4724,238.1102 397.2283,238.1102 397.9843,237.3543 398.7402,237.3543 399.1181,236.9764 399.4961,236.9764 399.874,236.5984 400.6299,236.5984 401.0079,236.2205 401.3858,236.2205 401.3858,235.8425 401.7638,235.8425 402.1417,235.4646 402.5197,235.4646 402.8976,235.0866 403.2756,235.0866 403.6535,234.7087 404.0315,234.7087 404.4094,234.3307 404.7874,234.3307 405.1654,233.9528 405.5433,233.9528 406.6772,232.8189 407.0551,232.8189 407.4331,232.4409 407.811,232.4409 408.5669,231.685 408.9449,231.685 410.0787,230.5512 410.4567,230.5512 411.5906,229.4173 411.9685,229.4173 412.3465,229.0394 412.3465,228.6614 412.7244,228.6614 414.2362,227.1496 414.6142,227.1496 414.6142,226.7717 414.9921,226.3937 415.3701,226.3937 415.3701,226.0157 415.748,225.6378 416.126,225.6378 416.5039,225.2598 416.5039,224.8819 416.8819,224.5039 417.2598,224.5039 417.2598,224.126 417.6378,223.748 418.0157,223.748 418.0157,223.3701 418.7717,222.6142 418.7717,222.2362 419.1496,222.2362 419.5276,221.8583 419.5276,221.4803 419.9055,221.1024 419.9055,220.7244 420.2835,220.7244 420.6614,220.3465 420.6614,219.9685 421.0394,219.5906 421.0394,219.2126 421.4173,218.8346 421.7953,218.8346 421.7953,218.4567 422.1732,218.0787 422.1732,217.7008 422.9291,216.9449 422.9291,216.5669 423.3071,216.5669 423.3071,216.189 423.685,215.811 423.685,215.4331 424.063,215.0551 424.063,214.6772 424.4409,214.2992 424.4409,213.9213 424.8189,213.5433 424.8189,213.1654 425.1969,212.7874 425.1969,212.4094 425.5748,212.0315 425.5748,211.6535 425.9528,211.2756 425.9528,210.8976 426.7087,210.1417 426.7087,209.7638 427.0866,209.3858 427.0866,209.0079 427.4646,208.6299 427.4646,207.874 427.8425,207.4961 427.8425,207.1181 428.2205,206.7402 428.2205,205.9843 428.5984,205.6063 428.5984,205.2283 428.9764,204.8504 428.9764,204.0945 429.3543,203.7165 429.3543,202.9606 429.7323,202.5827 429.7323,201.8268 430.1102,201.8268 430.1102,200.6929 430.4882,200.315 430.4882,199.5591 430.8661,199.1811 430.8661,198.0472 431.2441,197.6693 431.2441,196.5354 431.622,196.1575 431.622,194.6457 432.0,194.2677 432.0,192.378 432.378,192.0 432.378,188.9764 432.7559,188.5984 432.7559,179.9055 432.378,179.5276 432.378,176.8819 432.0,176.5039 432.0,174.6142 431.622,174.2362 431.622,172.7244 431.2441,172.3465 431.2441,171.2126 430.8661,170.8346 430.8661,169.7008 430.4882,169.3228 430.4882,168.5669 430.1102,168.5669 430.1102,167.811 429.7323,167.4331 429.7323,166.6772 429.3543,166.2992 429.3543,165.5433 428.9764,165.1654 428.9764,164.4094 428.5984,164.0315 428.5984,163.2756 428.2205,163.2756 428.2205,162.8976 427.8425,162.5197 427.8425,162.1417 427.4646,161.7638 427.4646,161.0079 427.0866,160.6299 427.0866,160.252 426.7087,159.874 426.7087,159.4961 426.3307,159.1181 426.3307,158.7402 425.5748,157.9843 425.5748,157.6063 425.1969,157.2283 425.1969,156.8504 424.8189,156.4724 424.8189,156.0945 424.063,155.3386 424.063,154.9606 423.3071,154.2047 423.3071,153.8268 422.5512,153.0709 422.5512,152.6929 422.1732,152.315 422.1732,151.937 421.0394,150.8031 421.0394,150.4252 420.6614,150.0472 420.6614,149.6693 419.5276,148.5354 419.5276,148.1575 418.7717,147.4016 418.7717,147.0236 418.3937,147.0236 418.0157,146.6457 418.0157,146.2677 417.6378,145.8898 417.6378,145.5118 417.2598,145.5118 416.8819,145.1339 416.8819,144.7559 416.5039,144.378 416.126,144.378 416.126,144.0 414.6142,142.4882 414.2362,142.4882 414.2362,142.1102 411.9685,139.8425 411.5906,139.8425 411.5906,139.4646 411.2126,139.0866 410.8346,139.0866 409.7008,137.9528 409.3228,137.9528 409.3228,137.5748 408.9449,137.1969 408.5669,137.1969 408.189,136.8189 407.811,136.8189 407.811,136.4409 407.4331,136.4409 406.6772,135.685 406.2992,135.685 406.2992,135.3071 405.9213,135.3071 405.5433,134.9291 405.1654,134.9291 404.4094,134.1732 404.0315,134.1732 403.6535,133.7953 403.2756,133.7953 402.5197,133.0394 402.1417,133.0394 401.7638,132.6614 401.3858,132.6614 401.0079,132.2835 400.6299,132.2835 400.252,131.9055 399.874,131.9055 399.4961,131.5276 399.1181,131.5276 398.7402,131.1496 398.3622,131.1496 397.9843,130.7717 397.6063,130.7717 397.2283,130.3937 396.4724,130.3937 396.0945,130.0157 395.7165,130.0157 395.3386,129.6378 394.5827,129.6378 394.2047,129.2598 393.4488,129.2598 393.0709,128.8819 392.315,128.8819 391.937,128.5039 391.1811,128.5039 390.8031,128.126 389.6693,128.126 389.2913,127.748 388.1575,127.748 387.7795,127.3701 386.6457,127.3701 386.2677,126.9921 384.378,126.9921 384.0,126.6142 382.1102,126.6142 381.7323,126.2362 378.3307,126.2362 377.9528,125.8583 363.9685,125.8583 363.5906,126.2362 360.5669,126.2362 360.189,126.6142 357.9213,126.6142 357.9213,126.9921 356.0315,126.9921 355.6535,127.3701 354.1417,127.3701 353.7638,127.748 352.252,127.748 351.874,128.126 350.7402,128.126 350.3622,128.5039 349.2283,128.5039 349.2283,128.8819 348.4724,128.8819 348.0945,129.2598 346.9606,129.2598 346.5827,129.6378 345.8268,129.6378 345.4488,130.0157 344.6929,130.0157 344.6929,130.3937 343.937,130.3937 343.5591,130.7717 342.8031,130.7717 342.4252,131.1496 341.6693,131.1496 341.2913,131.5276 340.9134,131.5276 340.5354,131.9055 339.7795,131.9055 339.4016,132.2835 339.0236,132.2835 338.6457,132.6614 337.8898,132.6614 337.1339,133.4173 336.378,133.4173 336.0,133.7953 335.622,133.7953 335.2441,134.1732 334.8661,134.1732 334.4882,134.5512 334.1102,134.5512 333.7323,134.9291 333.3543,134.9291 332.9764,135.3071 332.5984,135.3071 331.8425,136.063 331.4646,136.063 331.0866,136.4409 330.3307,136.4409 329.9528,136.8189 329.5748,136.8189 329.5748,137.1969 329.1969,137.1969 328.8189,137.5748 328.4409,137.5748 328.063,137.9528 327.685,137.9528 326.5512,139.0866 326.1732,139.0866 325.7953,139.4646 325.4173,139.4646 325.4173,139.8425 325.0394,139.8425 324.6614,140.2205 324.2835,140.2205 323.9055,140.5984 323.5276,140.5984 323.5276,140.9764 323.1496,141.3543 322.7717,141.3543 322.3937,141.7323 322.0157,141.7323 320.8819,142.8661 320.5039,142.8661 320.126,143.2441 319.748,143.2441 319.748,143.622 319.3701,143.622 318.6142,144.378 318.2362,144.378 317.8583,144.7559 317.8583,145.1339 317.4803,145.1339 317.1024,145.5118 316.7244,145.5118 316.3465,145.8898 316.3465,146.2677 315.9685,146.2677 315.2126,147.0236 314.8346,147.0236 314.4567,147.4016 314.4567,147.7795 314.0787,147.7795 313.7008,148.1575 313.3228,148.1575 312.9449,148.5354 312.9449,148.9134 312.5669,148.9134 311.811,149.6693 311.4331,149.6693 311.4331,150.0472 311.0551,150.4252 310.6772,150.8031 310.2992,150.8031 309.9213,151.1811 309.9213,151.5591 309.5433,151.5591 308.7874,152.315 308.4094,152.315 308.4094,152.6929 308.0315,153.0709 307.6535,153.0709 307.2756,153.4488 307.2756,153.8268 306.8976,153.8268 304.252,156.4724 303.874,156.4724 303.874,156.8504 303.4961,157.2283 303.1181,157.2283 303.1181,157.6063 302.7402,157.9843 302.3622,157.9843 301.9843,158.3622 301.9843,158.7402 301.6063,159.1181 301.2283,159.1181 301.2283,159.4961 300.8504,159.874 300.4724,159.874 300.0945,160.252 300.0945,160.6299 299.7165,161.0079 299.3386,161.0079 299.3386,161.3858 297.8268,162.8976 297.8268,163.2756 297.4488,163.2756 297.0709,163.6535 297.0709,164.0315 296.6929,164.4094 296.315,164.4094 296.315,164.7874 295.1811,165.9213 295.1811,166.2992 294.8031,166.6772 294.4252,166.6772 294.4252,167.0551 292.9134,168.5669 292.9134,168.9449 291.7795,170.0787 291.7795,170.4567 291.4016,170.4567 291.4016,170.8346 290.6457,171.5906 290.6457,171.9685 290.2677,171.9685 289.8898,172.3465 289.8898,172.7244 289.5118,173.1024 289.5118,173.4803 289.1339,173.4803 288.7559,173.8583 288.7559,174.2362 288.378,174.6142 288.378,174.9921 288.0,174.9921 287.622,175.3701 287.622,175.748 287.2441,176.126 287.2441,176.5039 286.8661,176.5039 286.4882,176.8819 286.4882,177.2598 286.1102,177.6378 286.1102,178.0157 284.9764,179.1496 284.9764,179.5276 283.8425,180.6614 283.8425,181.0394 283.4646,181.4173 283.4646,181.7953 283.0866,181.7953 282.7087,182.1732 282.7087,182.5512 282.3307,182.9291 282.3307,183.3071 281.1969,184.4409 281.1969,184.8189 280.063,185.9528 280.063,186.3307 279.685,186.7087 279.685,187.0866 279.3071,187.0866 279.3071,187.4646 278.5512,188.2205 278.5512,188.5984 277.4173,189.7323 277.4173,190.1102 277.0394,190.4882 277.0394,190.8661 276.6614,190.8661 276.2835,191.2441 276.2835,191.622 275.9055,192.0 275.9055,192.378 274.7717,193.5118 274.7717,193.8898 274.3937,194.2677 274.3937,194.6457 274.0157,194.6457 273.6378,195.0236 273.6378,195.4016 273.2598,195.7795 273.2598,196.1575 272.126,197.2913 272.126,197.6693 270.9921,198.8031 270.9921,199.1811 270.6142,199.5591 270.6142,199.937 270.2362,199.937 269.8583,200.315 269.8583,200.6929 269.4803,201.0709 269.4803,201.4488 269.1024,201.4488 268.7244,201.8268 268.7244,202.2047 268.3465,202.5827 268.3465,202.9606 267.9685,202.9606 267.5906,203.3386 267.5906,203.7165 267.2126,204.0945 267.2126,204.4724 266.8346,204.4724 266.4567,204.8504 266.4567,205.2283 266.0787,205.6063 266.0787,205.9843 265.7008,205.9843 265.3228,206.3622 265.3228,206.7402 264.189,207.874 264.189,208.252 263.0551,209.3858 263.0551,209.7638 262.6772,210.1417 262.2992,210.1417 262.2992,210.5197 261.5433,211.2756 261.5433,211.6535 261.1654,211.6535 261.1654,212.0315 259.6535,213.5433 259.6535,213.9213 259.2756,214.2992 258.8976,214.2992 258.8976,214.6772 258.5197,215.0551 258.5197,215.4331 258.1417,215.4331 257.7638,215.811 257.7638,216.189 257.3858,216.5669 257.0079,216.5669 257.0079,216.9449 255.4961,218.4567 255.4961,218.8346 255.1181,218.8346 254.7402,219.2126 254.7402,219.5906 254.3622,219.9685 253.9843,219.9685 253.9843,220.3465 252.4724,221.8583 252.4724,222.2362 252.0945,222.2362 251.7165,222.6142 251.7165,222.9921 251.3386,223.3701 250.9606,223.3701 250.9606,223.748 249.4488,225.2598 249.4488,225.6378 249.0709,225.6378 248.6929,226.0157 248.6929,226.3937 248.315,226.3937 247.937,226.7717 247.937,227.1496 247.5591,227.5276 247.1811,227.5276 247.1811,227.9055 246.8031,228.2835 246.4252,228.2835 246.4252,228.6614 245.6693,229.4173 245.2913,229.4173 245.2913,229.7953 244.9134,230.1732 244.5354,230.1732 244.5354,230.5512 244.1575,230.9291 243.0236,232.063 242.6457,232.063 242.6457,232.4409 242.2677,232.8189 241.8898,232.8189 241.8898,233.1969 241.5118,233.5748 241.1339,233.5748 240.7559,233.9528 240.7559,234.3307 240.378,234.7087 240.0,234.7087 239.622,235.0866 239.622,235.4646 239.2441,235.4646 238.8661,235.8425 238.8661,236.2205 238.4882,236.2205 236.9764,237.7323 236.5984,237.7323 236.5984,238.1102 236.2205,238.4882 235.8425,238.4882 235.4646,238.8661 235.4646,239.2441 235.0866,239.2441 233.5748,240.7559 233.1969,240.7559 233.1969,241.1339 232.8189,241.5118 232.4409,241.5118 231.3071,242.6457 230.9291,242.6457 230.9291,243.0236 230.5512,243.4016 230.1732,243.4016 229.7953,243.7795 229.7953,244.1575 229.4173,244.1575 229.0394,244.5354 228.6614,244.5354 228.2835,244.9134 228.2835,245.2913 227.9055,245.2913 227.1496,246.0472 226.7717,246.0472 226.7717,246.4252 226.3937,246.4252 225.2598,247.5591 224.8819,247.5591 223.3701,249.0709 222.9921,249.0709 222.6142,249.4488 222.2362,249.4488 222.2362,249.8268 221.8583,249.8268 221.1024,250.5827 220.7244,250.5827 220.7244,250.9606 220.3465,250.9606 219.5906,251.7165 219.2126,251.7165 218.4567,252.4724 218.4567,252.8504 218.0787,252.8504 216.9449,253.9843 216.5669,253.9843 216.189,254.3622 215.811,254.3622 215.0551,255.1181 213.5433,253.6063 213.1654,253.6063 213.1654,253.2283 212.7874,252.8504 212.4094,252.8504 212.0315,252.4724 212.0315,252.0945 211.6535,252.0945 210.1417,250.5827 209.7638,250.5827 209.7638,250.2047 209.3858,249.8268 209.0079,249.8268 208.6299,249.4488 208.6299,249.0709 208.252,249.0709 207.4961,248.315 207.1181,248.315 207.1181,247.937 206.7402,247.937 205.6063,246.8031 205.2283,246.8031 204.0945,245.6693 203.7165,245.6693 202.5827,244.5354 202.2047,244.5354 201.8268,244.1575 201.4488,244.1575 201.4488,243.7795 201.0709,243.4016 200.6929,243.4016 200.315,243.0236 199.937,243.0236 199.937,242.6457 199.5591,242.6457 198.8031,241.8898 198.4252,241.8898 197.6693,241.1339 197.2913,241.1339 196.9134,240.7559 196.5354,240.7559 196.5354,240.378 196.1575,240.378 195.7795,240.0 195.4016,240.0 194.2677,238.8661 193.8898,238.8661 193.5118,238.4882 193.1339,238.4882 192.378,237.7323 192.0,237.7323 191.622,237.3543 191.2441,237.3543 190.8661,236.9764 190.4882,236.9764 190.4882,236.5984 190.1102,236.5984 189.7323,236.2205 189.3543,236.2205 188.9764,235.8425 188.5984,235.8425 187.8425,235.0866 187.4646,235.0866 187.0866,234.7087 186.3307,234.7087 185.5748,233.9528 185.1969,233.9528 184.8189,233.5748 184.4409,233.5748 184.063,233.1969 183.685,233.1969 182.9291,232.4409 182.1732,232.4409 181.7953,232.063 181.4173,232.063 181.0394,231.685 180.6614,231.685 180.6614,231.3071 180.2835,231.3071 179.9055,230.9291 179.1496,230.9291 178.7717,230.5512 178.3937,230.5512 178.0157,230.1732 177.6378,230.1732 177.6378,229.7953 177.2598,229.7953 176.8819,229.4173 176.126,229.4173 175.748,229.0394 175.3701,229.0394 174.9921,228.6614 174.2362,228.6614 174.2362,228.2835 173.8583,228.2835 173.4803,227.9055 173.1024,227.9055 172.7244,227.5276 171.9685,227.5276 171.5906,227.1496 171.2126,227.1496 170.8346,226.7717 170.4567,226.7717 170.0787,226.3937 169.7008,226.3937 169.3228,226.0157 168.5669,226.0157 168.189,225.6378 167.811,225.6378 167.4331,225.2598 166.6772,225.2598 165.9213,224.5039 165.1654,224.5039 164.7874,224.126 164.4094,224.126 164.0315,223.748 163.2756,223.748 162.8976,223.3701 162.1417,223.3701 161.7638,222.9921 161.3858,222.9921 161.3858,222.6142 160.6299,222.6142 160.252,222.2362 159.874,222.2362 159.4961,221.8583 158.7402,221.8583 158.3622,221.4803 157.6063,221.4803 157.2283,221.1024 156.8504,221.1024 156.4724,220.7244 155.7165,220.7244 155.3386,220.3465 154.9606,220.3465 154.5827,219.9685 154.2047,219.9685 153.8268,219.5906 153.0709,219.5906 152.6929,219.2126 151.937,219.2126 151.5591,218.8346 150.8031,218.8346 150.4252,218.4567 150.0472,218.4567 149.6693,218.0787 148.9134,218.0787 148.5354,217.7008 148.1575,217.7008 147.7795,217.3228 147.0236,217.3228 146.6457,216.9449 146.2677,216.9449 145.8898,216.5669 145.1339,216.5669 144.7559,216.189 144.0,216.189 143.622,215.811 143.2441,215.811 142.8661,215.4331 142.1102,215.4331 141.7323,215.0551 140.9764,215.0551 140.5984,214.6772 139.8425,214.6772 139.0866,213.9213 138.3307,213.9213 137.9528,213.5433 137.1969,213.5433 136.8189,213.1654 136.063,213.1654 136.4409,212.7874 139.0866,212.7874 139.4646,212.4094 142.8661,212.4094 143.2441,212.0315 147.7795,212.0315 148.1575,211.6535 152.315,211.6535 152.6929,211.2756 155.3386,211.2756 155.7165,210.8976 157.9843,210.8976 158.3622,210.5197 160.252,210.5197 160.6299,210.1417 162.1417,210.1417 162.5197,209.7638 164.0315,209.7638 164.4094,209.3858 165.5433,209.3858 165.9213,209.0079 167.0551,209.0079 167.4331,208.6299 168.5669,208.6299 168.9449,208.252 170.0787,208.252 170.4567,207.874 170.8346,207.874 171.2126,207.4961 171.9685,207.4961 172.3465,207.1181 173.1024,207.1181 173.4803,206.7402 174.2362,206.7402 174.6142,206.3622 175.3701,206.3622 176.126,205.6063 176.8819,205.6063 177.2598,205.2283 178.0157,205.2283 178.3937,204.8504 178.7717,204.8504 179.1496,204.4724 179.5276,204.4724 179.9055,204.0945 180.2835,204.0945 180.6614,203.7165 181.0394,203.7165 181.4173,203.3386 182.1732,203.3386 182.1732,202.9606 182.5512,202.9606 182.9291,202.5827 183.3071,202.5827 183.685,202.2047 184.063,202.2047 184.4409,201.8268 184.8189,201.8268 184.8189,201.4488 185.1969,201.4488 185.5748,201.0709 185.9528,201.0709 186.3307,200.6929 186.7087,200.6929 187.4646,199.937 187.8425,199.937 188.2205,199.5591 188.5984,199.5591 189.3543,198.8031 189.7323,198.8031 190.4882,198.0472 190.8661,198.0472 191.622,197.2913 192.0,197.2913 193.1339,196.1575 193.5118,196.1575 193.8898,195.7795 194.2677,195.7795 194.6457,195.4016 194.6457,195.0236 195.0236,195.0236 195.7795,194.2677 196.1575,194.2677 196.1575,193.8898 196.5354,193.8898 197.2913,193.1339 197.6693,193.1339 198.0472,192.7559 198.0472,192.378 198.4252,192.378 199.1811,191.622 199.5591,191.622 199.5591,191.2441 199.937,190.8661 200.315,190.8661 201.8268,189.3543 202.2047,189.3543 202.5827,188.9764 202.5827,188.5984 202.9606,188.5984 204.8504,186.7087 205.2283,186.7087 205.2283,186.3307 205.6063,185.9528 205.9843,185.9528 206.3622,185.5748 206.3622,185.1969 206.7402,185.1969 208.252,183.685 208.252,183.3071 208.6299,183.3071 210.1417,181.7953 211.2756,180.6614 211.2756,180.2835 211.6535,180.2835 213.1654,178.7717 213.1654,178.3937 213.5433,178.3937 213.9213,178.0157 213.9213,177.6378 214.2992,177.2598 214.6772,177.2598 214.6772,176.8819 216.189,175.3701 216.189,174.9921 216.5669,174.9921 216.9449,174.6142 216.9449,174.2362 217.3228,173.8583 217.7008,173.8583 217.7008,173.4803 219.2126,171.9685 219.2126,171.5906 219.5906,171.5906 219.9685,171.2126 219.9685,170.8346 220.3465,170.4567 220.7244,170.4567 220.7244,170.0787 221.8583,168.9449 221.8583,168.5669 223.3701,167.0551 223.3701,166.6772 223.748,166.6772 223.748,166.2992 224.5039,165.5433 224.5039,165.1654 224.8819,165.1654 225.2598,164.7874 225.2598,164.4094 226.3937,163.2756 226.3937,162.8976 227.5276,161.7638 227.5276,161.3858 228.6614,160.252 228.6614,159.874 229.0394,159.874 229.0394,159.4961 229.7953,158.7402 229.7953,158.3622 230.1732,158.3622 230.1732,157.9843 230.9291,157.2283 230.9291,156.8504 231.3071,156.8504 231.3071,156.4724 231.685,156.0945 231.685,155.7165 232.063,155.3386 232.4409,155.3386 232.4409,154.9606 232.8189,154.5827 232.8189,154.2047 233.1969,153.8268 233.5748,153.8268 233.5748,153.4488 233.9528,153.0709 233.9528,152.6929 235.0866,151.5591 235.0866,151.1811 235.8425,150.4252 235.8425,150.0472 236.9764,148.9134 236.9764,148.5354 237.7323,147.7795 237.7323,147.4016 238.1102,147.4016 238.1102,147.0236 238.4882,146.6457 238.4882,146.2677 238.8661,145.8898 239.2441,145.8898 239.2441,145.5118 239.622,145.1339 239.622,144.7559 240.7559,143.622 240.7559,143.2441 241.5118,142.4882 241.5118,142.1102 242.2677,141.3543 242.2677,140.9764 242.6457,140.9764 242.6457,140.5984 243.4016,139.8425 243.4016,139.4646 244.1575,138.7087 244.1575,138.3307 244.9134,137.5748 244.9134,137.1969 245.2913,137.1969 245.2913,136.8189 246.0472,136.063 246.0472,135.685 246.4252,135.685 246.8031,135.3071 246.8031,134.9291 247.1811,134.5512 247.1811,134.1732 247.5591,134.1732 247.937,133.7953 247.937,133.4173 248.315,133.0394 248.315,132.6614 248.6929,132.6614 249.0709,132.2835 249.0709,131.9055 250.2047,130.7717 250.2047,130.3937 250.5827,130.0157 250.9606,130.0157 250.9606,129.6378 251.7165,128.8819 251.7165,128.5039 252.0945,128.5039 252.0945,128.126 253.6063,126.6142 253.6063,126.2362 253.9843,125.8583 254.3622,125.8583 254.3622,125.4803 254.7402,125.1024 254.7402,124.7244 255.1181,124.7244 255.4961,124.3465 255.4961,123.9685 255.874,123.5906 256.252,123.5906 256.252,123.2126 257.7638,121.7008 257.7638,121.3228 258.1417,121.3228 258.5197,120.9449 258.5197,120.5669 258.8976,120.5669 259.2756,120.189 259.2756,119.811 259.6535,119.4331 260.0315,119.4331 260.0315,119.0551 264.189,114.8976 264.189,114.5197 264.5669,114.5197 269.4803,109.6063 269.8583,109.6063 269.8583,109.2283 270.2362,108.8504 270.6142,108.8504 270.9921,108.4724 270.9921,108.0945 271.3701,108.0945 271.748,107.7165 271.748,107.3386 272.126,107.3386 273.2598,106.2047 273.6378,106.2047 274.0157,105.8268 274.0157,105.4488 274.3937,105.4488 275.9055,103.937 276.2835,103.937 276.2835,103.5591 276.6614,103.1811 277.0394,103.1811 277.4173,102.8031 277.7953,102.8031 277.7953,102.4252 278.1732,102.0472 278.5512,102.0472 278.9291,101.6693 278.9291,101.2913 279.3071,101.2913 279.685,100.9134 280.063,100.9134 280.063,100.5354 280.4409,100.1575 280.8189,100.1575 281.1969,99.7795 281.5748,99.7795 281.5748,99.4016 281.9528,99.0236 282.3307,99.0236 282.7087,98.6457 283.0866,98.6457 283.0866,98.2677 283.4646,97.8898 283.8425,97.8898 284.2205,97.5118 284.5984,97.5118 284.5984,97.1339 284.9764,96.7559 285.3543,96.7559 285.7323,96.378 286.1102,96.378 286.1102,96.0 286.4882,96.0 287.2441,95.2441 287.622,95.2441 287.622,94.8661 288.0,94.8661 288.378,94.4882 288.7559,94.4882 289.8898,93.3543 290.2677,93.3543 290.6457,92.9764 291.0236,92.9764 292.1575,91.8425 292.5354,91.8425 292.9134,91.4646 293.2913,91.4646 293.2913,91.0866 293.6693,91.0866 294.0472,90.7087 294.4252,90.7087 294.8031,90.3307 295.1811,90.3307 296.315,89.1969 296.6929,89.1969 297.0709,88.8189 297.4488,88.8189 297.8268,88.4409 298.2047,88.4409 298.2047,88.063 298.5827,88.063 298.9606,87.685 299.3386,87.685 299.7165,87.3071 300.0945,87.3071 300.4724,86.9291 300.8504,86.9291 300.8504,86.5512 301.2283,86.5512 301.6063,86.1732 301.9843,86.1732 302.3622,85.7953 302.7402,85.7953 303.1181,85.4173 303.4961,85.4173 303.874,85.0394 304.252,85.0394 304.252,84.6614 304.6299,84.6614 305.0079,84.2835 305.7638,84.2835 306.1417,83.9055 306.5197,83.9055 306.8976,83.5276 307.2756,83.5276 307.6535,83.1496 308.0315,83.1496 308.7874,82.3937 309.1654,82.3937 309.5433,82.0157 310.2992,82.0157 310.6772,81.6378 311.0551,81.6378 311.4331,81.2598 311.811,81.2598 312.189,80.8819 312.5669,80.8819 312.9449,80.5039 313.3228,80.5039 313.7008,80.126 314.0787,80.126 314.4567,79.748 314.8346,79.748 315.2126,79.3701 315.9685,79.3701 316.3465,78.9921 316.7244,78.9921 317.1024,78.6142 317.8583,78.6142 318.2362,78.2362 318.6142,78.2362 318.6142,77.8583 319.3701,77.8583 319.748,77.4803 320.5039,77.4803 320.8819,77.1024 321.2598,77.1024 321.6378,76.7244 322.3937,76.7244 322.7717,76.3465 323.5276,76.3465 323.9055,75.9685 324.6614,75.9685 325.0394,75.5906 325.4173,75.5906 325.7953,75.2126 326.5512,75.2126 326.9291,74.8346 327.685,74.8346 328.063,74.4567 329.1969,74.4567 329.5748,74.0787 330.3307,74.0787 330.7087,73.7008 331.4646,73.7008 331.8425,73.3228 332.9764,73.3228 333.3543,72.9449 334.1102,72.9449 334.4882,72.5669 335.622,72.5669 336.0,72.189 337.1339,72.189 337.5118,71.811 338.6457,71.811 339.0236,71.4331 340.5354,71.4331 340.9134,71.0551 342.4252,71.0551 342.8031,70.6772 344.315,70.6772 344.6929,70.2992 346.2047,70.2992 346.5827,69.9213 348.4724,69.9213 348.8504,69.5433 351.1181,69.5433 351.4961,69.1654 353.7638,69.1654 354.1417,68.7874 357.1654,68.7874 357.5433,68.4094 361.7008,68.4094 362.0787,68.0315 382.4882,68.0315 382.8661,68.4094 384.7559,68.4094 385.1339,68.7874 386.2677,68.7874 386.6457,69.1654 387.7795,69.1654 388.1575,69.5433 388.9134,69.5433 389.2913,69.9213 391.1811,69.9213 391.5591,70.2992 391.937,70.2992 392.315,70.6772 393.0709,70.6772 393.4488,71.0551 393.8268,71.0551 394.2047,71.811 394.5827,72.5669 394.2047,72.5669 394.2047,72.9449 393.8268,72.9449" fill="var(--logo-fill, currentColor)"/></g></svg>